<?xml version="1.0" encoding="utf-8"?>
<!-- Generator: Adobe Illustrator 23.1.0, SVG Export Plug-In . SVG Version: 6.00 Build 0)  -->
<svg version="1.1" id="PD_WHITE_copy" xmlns="http://www.w3.org/2000/svg" xmlns:xlink="http://www.w3.org/1999/xlink" x="0px"
	 y="0px" viewBox="0 0 170.8 44.1" style="enable-background:new 0 0 170.8 44.1;" xml:space="preserve">
<style type="text/css">
	.st0{fill:#D4AEA6;}
</style>
<path class="st0" d="M11,10.7c0-0.4,0-0.9-0.2-1.3c-0.1-0.2-0.1-0.5-0.1-0.7c0-0.3,0.2-0.6,0.5-0.7c0.3-0.2,0.7-0.3,1.1-0.3
	c0.9,0,1.8,0.2,2.4,0.8c0.6,0.5,0.9,1.2,0.9,1.9v19.8c0.8-0.1,1.6-0.3,2.3-0.6c0.9-0.3,1.8-0.8,2.7-1.3c1-0.6,1.9-1.3,2.7-2.1
	c0.9-0.9,1.7-1.8,2.4-2.9c1.6-2.5,2.3-5.4,2.3-8.4c0-1.2-0.2-2.4-0.5-3.5c-0.4-1.2-1-2.3-1.8-3.3C25,7,24,6.1,22.8,5.5
	c-1.4-0.7-3-1-4.5-1C16.1,4.5,14,4.9,12,5.6c-1.6,0.7-3.1,1.7-4.2,3C6.7,9.9,5.9,11.4,5.4,13c-0.5,1.7-0.8,3.5-0.8,5.3
	c0,1.1,0.1,2.3,0.3,3.4c0.2,0.8,0.4,1.5,0.8,2.3c0.2,0.5,0.5,0.9,0.8,1.3l0.4,0.5c0.3-0.1,0.6-0.1,0.7,0.1c0.2,0.2,0.2,0.5,0.2,0.7
	c0,0.4-0.1,0.8-0.3,1.2c-0.2,0.6-0.4,1.1-0.8,1.6c-0.3,0.4-0.7,0.8-1.1,1.1c-0.4,0.2-0.9,0.2-1.3-0.1c-0.2-0.2-0.6-0.6-1.1-1.2
	c-0.6-0.7-1.1-1.5-1.4-2.3c-0.6-1.1-1-2.3-1.3-3.4C0.2,21.9,0,20.3,0,18.7c0-2.6,0.4-5.2,1.3-7.7c0.8-2.2,2.1-4.2,3.7-5.9
	c1.6-1.7,3.6-3,5.8-3.8C13.2,0.4,15.7,0,18.3,0c2.1,0,4.1,0.3,6,1.1c1.7,0.7,3.3,1.7,4.6,3.1c1.3,1.3,2.3,2.9,2.9,4.7
	c0.7,1.9,1,3.9,1,5.9c0,2.5-0.5,5-1.4,7.3c-0.9,2.2-2.2,4.2-3.8,6c-3.1,3.4-7.3,5.8-11.9,6.7v8c0,0.4-0.2,0.8-0.5,1.1
	c-0.4,0.2-0.8,0.3-1.2,0.3c-0.4,0-0.7-0.1-1.1-0.2c-0.3-0.1-0.7-0.2-1-0.4c-0.3-0.1-0.5-0.3-0.7-0.6c-0.2-0.2-0.3-0.4-0.3-0.7
	L11,10.7z M48.9,44.1c-0.7,0-1.5-0.1-2.2-0.3c-0.7-0.2-1.4-0.6-2-1.1c-0.6-0.6-1.1-1.3-1.5-2.1c-0.4-1.1-0.6-2.2-0.6-3.3
	c0-2.1,0.3-4.2,0.8-6.2c0.6-2.4,1.4-4.8,2.3-7.2h-5.3c0,0.6-0.1,1.3-0.1,2.2s-0.1,1.9-0.3,2.9S39.8,31,39.6,32c-0.2,1-0.4,2-0.7,2.9
	c-0.2,0.6-0.5,1-0.9,1.1c-0.4,0.1-0.9,0-1.3-0.2c-0.4-0.3-0.8-0.6-1-1.1c-0.3-0.4-0.3-1-0.2-1.5c0.2-0.7,0.3-1.5,0.4-2.2
	c0.1-0.9,0.2-1.8,0.3-2.8s0.1-2,0.2-2.9s0.1-1.8,0.1-2.6c-0.7-0.4-1.4-0.9-1.9-1.6c-0.5-0.7-0.8-1.5-0.7-2.3c0-0.4,0.1-0.8,0.3-1.1
	c0.3-0.7,0.9-1.2,1.6-1.4c0.4-0.1,0.8-0.2,1.1-0.2c0.4,0,0.7,0.1,1.1,0.1c0.4,0.1,0.8,0.3,1.1,0.5c0.4,0.3,0.7,0.6,0.9,1
	c0.3,0.5,0.5,1,0.7,1.5l1.3,0.1l0.9,0.1h0.6h3.6c0.3,0,0.6,0.2,0.8,0.3c0.8,0.5,1.4,1.2,1.9,1.9c0.2,0.4,0.2,0.8,0.2,1.1
	c0,0.3-0.1,0.6-0.2,0.9l-0.5,1.7c-0.2,0.7-0.4,1.5-0.6,2.4s-0.4,1.8-0.6,2.8s-0.4,2-0.5,3.1c-0.1,1-0.2,2.1-0.2,3.1
	c0,0.4,0,0.8,0.1,1.2c0.1,0.4,0.2,0.7,0.4,1.1c0.2,0.3,0.5,0.6,0.8,0.7c0.3,0.2,0.7,0.3,1.1,0.3c0.7,0,1.3-0.2,1.8-0.7
	c0.5-0.5,0.9-1,1.2-1.6c0.3-0.7,0.6-1.4,0.8-2.1c0.2-0.8,0.4-1.5,0.5-2.1c0.1-0.5,0.3-1,0.6-1.4c0.2-0.3,0.5-0.4,0.9-0.4
	c0.3,0,0.5,0.1,0.7,0.2c0.3,0.2,0.5,0.4,0.7,0.6c0.2,0.2,0.4,0.5,0.5,0.8c0.1,0.3,0.2,0.6,0.2,0.9c0,0.1,0,0.2,0,0.2
	c0,0.1,0,0.1,0,0.2c-0.3,1.1-0.7,2.1-1.1,3.2c-0.4,1.1-1,2.1-1.7,3c-0.7,0.9-1.5,1.7-2.5,2.3C51.2,43.7,50.1,44.1,48.9,44.1z
	 M57.5,13.3c-0.5,0-1-0.1-1.4-0.3c-0.4-0.2-0.8-0.5-1.1-0.8c-0.3-0.3-0.6-0.7-0.8-1.2c-0.2-0.5-0.3-0.9-0.3-1.4c0-0.5,0.1-1,0.3-1.5
	c0.2-0.4,0.4-0.8,0.8-1.2c0.3-0.3,0.7-0.6,1.1-0.8C56.5,6,57,5.9,57.5,5.9c0.5,0,1,0.1,1.5,0.3c0.4,0.2,0.8,0.4,1.2,0.8
	c0.3,0.3,0.6,0.7,0.8,1.2c0.2,0.5,0.3,1,0.3,1.5c0,0.5-0.1,1-0.3,1.4c-0.2,0.4-0.4,0.8-0.8,1.2c-0.3,0.3-0.7,0.6-1.2,0.8
	C58.5,13.2,57.9,13.3,57.5,13.3L57.5,13.3z M58.9,37.3c0,0.1,0,0.4,0,0.7c0,0.3,0.1,0.6,0.2,0.9c0.1,0.3,0.3,0.6,0.5,0.8
	c0.2,0.2,0.6,0.4,0.9,0.3c0.6,0,1.1-0.2,1.6-0.7c0.5-0.5,0.9-1,1.2-1.6c0.3-0.7,0.6-1.4,0.8-2.1c0.2-0.8,0.4-1.5,0.5-2.1
	c0.1-0.5,0.3-0.9,0.6-1.3c0.2-0.3,0.5-0.4,0.8-0.5c0.3,0,0.6,0.1,0.9,0.2c0.3,0.2,0.6,0.4,0.8,0.7c0.2,0.3,0.4,0.6,0.5,1
	c0.1,0.3,0.1,0.7,0,1c-0.3,1.1-0.7,2.1-1.1,3.2c-0.4,1.1-1,2.1-1.7,3c-0.7,0.9-1.5,1.7-2.5,2.3c-1,0.6-2.2,1-3.4,0.9
	c-0.7,0-1.5-0.1-2.2-0.5c-0.6-0.3-1.2-0.7-1.6-1.2c-0.5-0.5-0.8-1.1-1-1.8c-0.2-0.7-0.3-1.4-0.3-2.2V22.2c0-0.4,0-0.8-0.1-1.2
	c-0.1-0.2-0.1-0.5-0.1-0.7c0-0.3,0.2-0.6,0.5-0.7c0.3-0.2,0.7-0.3,1.1-0.3c0.9,0,1.7,0.2,2.4,0.8c0.6,0.5,0.9,1.2,0.9,1.9L58.9,37.3
	z M100.9,34.6c-0.3,1.1-0.7,2.1-1.1,3.2c-0.4,1.1-1,2.1-1.7,3c-0.7,0.9-1.5,1.7-2.5,2.3c-1,0.6-2.2,1-3.4,0.9
	c-0.7,0-1.5-0.1-2.1-0.5c-0.6-0.3-1.2-0.7-1.6-1.2c-0.5-0.5-0.8-1.1-1-1.8c-0.2-0.7-0.3-1.4-0.3-2.2V26.1c0-0.5,0-0.9,0-1.3
	c0-0.4-0.1-0.7-0.1-1.1c-0.1-0.3-0.2-0.5-0.3-0.8c-0.1-0.2-0.4-0.3-0.6-0.3c-0.6,0.1-1.1,0.4-1.5,0.9c-0.7,0.7-1.2,1.5-1.7,2.3
	c-0.6,1-1.1,2.1-1.5,3.2c-0.4,1.2-0.7,2.4-0.8,3.6v8.8c0,0.3,0,0.6,0,0.9c0,0.3-0.1,0.6-0.2,0.8c-0.1,0.2-0.3,0.5-0.5,0.6
	c-0.3,0.2-0.6,0.3-1,0.3c-0.3,0-0.7,0-1-0.1c-0.3-0.1-0.7-0.2-0.9-0.4c-0.3-0.2-0.5-0.5-0.7-0.8c-0.2-0.4-0.4-0.9-0.4-1.4V26.1
	c0-0.5,0-0.9-0.1-1.3c0-0.4-0.1-0.7-0.2-1.1c-0.1-0.3-0.2-0.5-0.3-0.8c-0.1-0.2-0.4-0.3-0.6-0.3c-0.6,0.1-1.1,0.4-1.5,0.9
	c-0.7,0.7-1.2,1.5-1.7,2.3c-0.6,1-1.1,2.1-1.5,3.2c-0.4,1.2-0.7,2.4-0.8,3.6v8.8c0,0.3,0,0.6,0,0.9c0,0.3-0.1,0.6-0.2,0.8
	c-0.1,0.2-0.3,0.5-0.5,0.6c-0.3,0.2-0.6,0.3-1,0.3c-0.3,0-0.7,0-1-0.1c-0.3-0.1-0.7-0.2-0.9-0.4c-0.3-0.2-0.5-0.5-0.7-0.8
	c-0.2-0.4-0.3-0.9-0.3-1.4V22.2c0-0.4,0-0.8-0.1-1.2c-0.1-0.2-0.1-0.5-0.1-0.7c0-0.3,0.2-0.6,0.5-0.7c0.3-0.2,0.7-0.3,1.1-0.3
	c0.9,0,1.7,0.2,2.4,0.8c0.6,0.5,0.9,1.2,0.9,1.9v2.5c0.4-0.8,0.8-1.6,1.3-2.3c0.4-0.7,0.9-1.3,1.5-1.8c0.5-0.5,1.1-0.9,1.7-1.2
	c0.6-0.3,1.3-0.4,1.9-0.4c0.8,0,1.6,0.1,2.3,0.5c0.6,0.3,1.1,0.8,1.4,1.3c0.4,0.6,0.6,1.2,0.8,1.8c0.2,0.7,0.3,1.3,0.3,2
	c0.4-0.8,0.8-1.5,1.2-2.3c0.4-0.7,0.9-1.3,1.5-1.8c0.5-0.5,1.1-0.9,1.7-1.2c0.6-0.3,1.3-0.4,1.9-0.4c0.8,0,1.7,0.2,2.4,0.6
	c0.6,0.3,1.1,0.8,1.5,1.4c0.4,0.6,0.6,1.3,0.7,2c0.1,0.7,0.2,1.4,0.2,2.1v12.5c0,0.1,0,0.4,0,0.7c0,0.3,0.1,0.6,0.2,0.9
	c0.1,0.3,0.3,0.6,0.5,0.8c0.2,0.2,0.6,0.4,0.9,0.3c0.6,0,1.3-0.2,1.7-0.7c0.5-0.5,0.9-1,1.1-1.6c0.3-0.7,0.6-1.4,0.8-2.1
	c0.2-0.8,0.4-1.5,0.5-2.1c0.1-0.5,0.3-1,0.6-1.4c0.2-0.3,0.5-0.4,0.9-0.4c0.3,0,0.5,0.1,0.7,0.2c0.3,0.2,0.5,0.3,0.7,0.6
	c0.2,0.2,0.4,0.5,0.5,0.8c0.1,0.3,0.2,0.6,0.2,0.9v0.2C100.9,34.5,100.8,34.6,100.9,34.6L100.9,34.6z M100.8,13.2
	c-0.5,0-1-0.1-1.4-0.3c-0.4-0.2-0.8-0.5-1.2-0.8c-0.3-0.3-0.6-0.7-0.8-1.2c-0.2-0.5-0.3-0.9-0.3-1.4c0-0.5,0.1-1,0.3-1.5
	c0.2-0.4,0.4-0.8,0.8-1.2c0.3-0.3,0.7-0.6,1.2-0.8c0.4-0.2,0.9-0.3,1.4-0.3c0.5,0,1,0.1,1.5,0.3c0.4,0.2,0.8,0.4,1.2,0.8
	c0.3,0.3,0.6,0.7,0.8,1.2c0.2,0.5,0.3,1,0.3,1.5c0,0.5-0.1,1-0.3,1.4c-0.2,0.4-0.4,0.8-0.8,1.2c-0.3,0.3-0.7,0.6-1.2,0.8
	C101.8,13.2,101.3,13.3,100.8,13.2L100.8,13.2z M102.2,37.2c0,0.1,0,0.4,0,0.7c0,0.3,0.1,0.6,0.2,0.9c0.1,0.3,0.3,0.6,0.5,0.8
	c0.2,0.2,0.6,0.4,0.9,0.3c0.6,0,1.2-0.2,1.6-0.7c0.5-0.5,0.9-1,1.1-1.6c0.3-0.7,0.6-1.4,0.8-2.1c0.2-0.8,0.4-1.5,0.5-2.1
	c0.1-0.5,0.3-0.9,0.6-1.3c0.2-0.3,0.5-0.4,0.8-0.5c0.3,0,0.6,0.1,0.9,0.2c0.3,0.2,0.5,0.4,0.8,0.7c0.2,0.3,0.4,0.6,0.5,1
	c0.1,0.3,0.1,0.7,0,1c-0.3,1.1-0.7,2.1-1.1,3.2c-0.4,1.1-1,2.1-1.7,3c-0.7,0.9-1.5,1.7-2.5,2.3c-1,0.6-2.2,1-3.4,0.9
	c-0.7,0-1.5-0.1-2.2-0.5c-0.6-0.3-1.1-0.7-1.6-1.2c-0.5-0.5-0.8-1.1-1-1.8c-0.2-0.7-0.3-1.4-0.3-2.2V22.2c0-0.4,0-0.8-0.1-1.2
	c-0.1-0.2-0.1-0.5-0.1-0.7c0-0.3,0.2-0.6,0.5-0.7c0.3-0.2,0.7-0.3,1.1-0.3c0.9,0,1.7,0.2,2.4,0.8c0.6,0.5,0.9,1.2,0.9,1.9
	L102.2,37.2z M102.6,13.9c0.5,0,1,0.1,1.5,0.1s1,0.1,1.7,0.1h2.3V3.9c0-0.3,0-0.7-0.1-1c-0.1-0.2-0.1-0.4-0.2-0.6
	c-0.1-0.1-0.1-0.2-0.2-0.3c-0.1-0.1-0.1-0.2-0.1-0.3c0-0.1,0.1-0.2,0.2-0.3c0.1-0.1,0.3-0.2,0.5-0.2c0.2-0.1,0.4-0.1,0.6-0.1
	c0.2,0,0.4,0,0.7,0c0.9,0,1.7,0.2,2.4,0.8c0.6,0.5,0.9,1.2,0.9,1.9v10.6c1.9,0,3.8,0,5.9,0s4.1-0.1,6.2-0.2c0.3-0.3,0.5-0.4,0.7-0.3
	c0.2,0.1,0.3,0.3,0.3,0.6c0,0.4,0,0.7,0,1.1c0,0.4-0.1,0.8-0.2,1.2c-0.1,0.4-0.3,0.7-0.5,1.1c-0.1,0.3-0.4,0.4-0.7,0.4
	c-2.4,0.1-4.6,0.1-6.4,0.1h-5.2v19.1c-0.1,0.8,0.1,1.5,0.6,2.1c0.4,0.4,0.9,0.7,1.5,0.7c0.6,0,1.2-0.2,1.6-0.7
	c0.5-0.5,0.9-1,1.1-1.6c0.3-0.7,0.6-1.4,0.8-2.1c0.2-0.8,0.4-1.5,0.5-2.1c0.1-0.5,0.3-1,0.6-1.4c0.2-0.3,0.5-0.4,0.9-0.4
	c0.3,0,0.5,0.1,0.7,0.2c0.3,0.2,0.5,0.3,0.7,0.6c0.2,0.2,0.4,0.5,0.5,0.8c0.1,0.3,0.2,0.6,0.2,0.9v0.2c0,0.1,0,0.2-0.1,0.3
	c-0.3,1.1-0.6,2.1-1,3.2c-0.4,1.1-1,2.1-1.7,3c-0.7,0.9-1.5,1.7-2.5,2.3c-1,0.6-2.2,1-3.4,0.9c-0.8,0-1.5-0.1-2.2-0.4
	c-0.7-0.2-1.3-0.6-1.8-1.2c-0.5-0.6-0.9-1.3-1.2-2.1c-0.3-1-0.4-2-0.4-3.1V18.1h-1.8H105l-1.1-0.1c-0.5,0-1-0.2-1.3-0.6
	c-0.4-0.4-0.6-0.9-0.8-1.4c-0.1-0.5-0.2-0.9-0.1-1.4C101.9,14.2,102.2,13.9,102.6,13.9L102.6,13.9z M122.2,13.2
	c-0.5,0-1-0.1-1.4-0.3c-0.4-0.2-0.8-0.5-1.1-0.8c-0.3-0.3-0.6-0.7-0.8-1.2c-0.2-0.5-0.3-0.9-0.3-1.4c0-0.5,0.1-1,0.3-1.5
	c0.2-0.4,0.4-0.8,0.8-1.2c0.7-0.7,1.6-1,2.6-1c0.5,0,1,0.1,1.5,0.3c0.4,0.2,0.8,0.4,1.2,0.8c0.3,0.3,0.6,0.7,0.8,1.2
	c0.2,0.5,0.3,1,0.3,1.5c0,0.5-0.1,1-0.3,1.4c-0.2,0.4-0.4,0.8-0.8,1.2c-0.3,0.3-0.7,0.6-1.2,0.8C123.2,13.2,122.7,13.3,122.2,13.2
	L122.2,13.2z M123.6,37.2c0,0.1,0,0.4,0,0.7c0,0.3,0.1,0.6,0.2,0.9c0.1,0.3,0.3,0.6,0.5,0.8c0.2,0.2,0.6,0.4,0.9,0.3
	c0.6,0,1.1-0.2,1.6-0.7c0.5-0.5,0.8-1,1.1-1.6c0.3-0.7,0.6-1.4,0.8-2.1c0.2-0.8,0.4-1.5,0.5-2.1c0.1-0.5,0.3-0.9,0.6-1.3
	c0.2-0.2,0.5-0.4,0.8-0.5c0.3,0,0.6,0.1,0.9,0.2c0.3,0.2,0.6,0.4,0.8,0.7c0.2,0.3,0.4,0.6,0.5,1c0.1,0.3,0.1,0.7,0,1
	c-0.3,1.1-0.7,2.1-1.1,3.2c-0.4,1.1-1,2.1-1.7,3c-0.7,0.9-1.5,1.7-2.5,2.3c-1,0.6-2.2,1-3.4,0.9c-1.4,0-2.8-0.6-3.8-1.7
	c-0.4-0.5-0.8-1.1-1-1.8c-0.2-0.7-0.3-1.4-0.3-2.2V22.2c0-0.4,0-0.8-0.1-1.2c-0.1-0.2-0.1-0.5-0.1-0.7c0-0.3,0.2-0.6,0.5-0.7
	c0.3-0.2,0.7-0.3,1.1-0.3c0.9,0,1.7,0.2,2.4,0.8c0.6,0.5,0.9,1.2,0.9,1.9L123.6,37.2z M129.5,22.2c0-0.4,0-0.8-0.1-1.2
	c-0.1-0.2-0.1-0.5-0.1-0.7c0-0.3,0.2-0.6,0.5-0.7c0.3-0.2,0.7-0.3,1.1-0.3c0.9,0,1.7,0.2,2.4,0.8c0.6,0.5,0.9,1.2,0.9,1.9v16.3
	c0,0.5,0.1,0.9,0.3,1.4c0.2,0.4,0.6,0.6,1.1,0.5c0.8,0,1.6-0.3,2.3-0.8c0.8-0.6,1.5-1.3,2-2.2c0.7-1.1,1.2-2.3,1.5-3.5
	c0.4-1.5,0.6-3.1,0.6-4.7c0-1-0.1-2-0.3-3c-0.1-0.7-0.4-1.4-0.7-2c-0.2-0.4-0.5-0.8-0.8-1.1l-0.7-0.6c-0.2-0.1-0.3-0.2-0.5-0.2
	c-0.2,0-0.3-0.1-0.3-0.3c0,0,0,0,0,0c0-0.3,0.1-0.6,0.2-0.9c0.1-0.4,0.3-0.7,0.6-1c0.2-0.3,0.5-0.6,0.8-0.8c0.3-0.2,0.6-0.3,0.9-0.3
	c0.7,0,1.4,0.4,1.9,0.9c0.7,0.7,1.3,1.5,1.7,2.4c0.6,1.1,1,2.2,1.3,3.3c0.3,1.2,0.5,2.5,0.5,3.8c0,2-0.3,3.9-0.8,5.8
	c-0.5,1.7-1.3,3.3-2.4,4.8c-1,1.3-2.2,2.4-3.7,3.2c-1.5,0.8-3.1,1.2-4.8,1.2c-0.8,0-1.7-0.1-2.4-0.5c-0.6-0.3-1.2-0.7-1.6-1.3
	c-0.4-0.6-0.7-1.2-0.9-1.9c-0.2-0.7-0.3-1.5-0.3-2.3L129.5,22.2z M163.1,24.7c0,1.2-0.2,2.3-0.6,3.5c-0.4,1.2-1,2.3-1.7,3.4
	c-0.8,1.1-1.7,2-2.8,2.8c-1.2,0.9-2.5,1.5-3.9,1.9c0.2,0.5,0.5,1,0.8,1.5c0.3,0.5,0.7,0.9,1.2,1.2c0.5,0.3,1,0.6,1.6,0.8
	c0.7,0.2,1.4,0.3,2.1,0.3c1,0,2.1-0.2,3-0.7c0.8-0.4,1.5-1,2.1-1.7c0.6-0.7,1.1-1.6,1.4-2.4c0.3-0.9,0.6-1.8,0.8-2.8
	c0.1-0.6,0.4-1.1,0.9-1.3c0.4-0.2,0.9-0.3,1.3-0.2c0.5,0.1,0.9,0.4,1.1,0.8c0.3,0.4,0.5,0.9,0.4,1.4c-0.1,0.7-0.2,1.4-0.4,2.1
	c-0.2,0.8-0.5,1.6-0.8,2.4c-0.4,0.8-0.9,1.6-1.4,2.4c-0.6,0.8-1.3,1.5-2.1,2.1c-0.9,0.6-1.9,1.1-3,1.5c-1.3,0.4-2.6,0.6-3.9,0.6
	c-2.8,0-5.5-1.1-7.4-3.2c-1-1.1-1.8-2.4-2.4-3.8c-0.6-1.6-0.9-3.3-0.9-5.1c0-1.8,0.3-3.6,0.8-5.3c0.5-1.5,1.2-3,2.1-4.3
	c0.8-1.1,1.8-2.1,3-2.8c1-0.6,2.2-1,3.4-1c0.8,0,1.6,0.1,2.3,0.4c0.7,0.3,1.3,0.7,1.7,1.3c0.5,0.6,0.8,1.2,1.1,1.9
	C162.9,23.1,163,23.9,163.1,24.7L163.1,24.7z M153.3,31.9c0,0.2,0,0.4,0,0.5c0,0.2,0,0.4,0,0.6c0.7-0.4,1.4-0.8,2-1.4
	c0.6-0.6,1.1-1.2,1.6-1.9c0.4-0.7,0.8-1.5,1-2.3c0.2-0.9,0.4-1.7,0.4-2.6c0-0.5-0.1-1.1-0.3-1.6c-0.2-0.4-0.5-0.6-0.9-0.6
	c-0.5,0-1,0.2-1.3,0.5c-0.4,0.4-0.8,0.8-1,1.3c-0.3,0.6-0.5,1.2-0.7,1.8c-0.2,0.7-0.3,1.4-0.5,2.1c-0.1,0.7-0.2,1.3-0.2,2
	C153.2,30.9,153.2,31.4,153.3,31.9L153.3,31.9z"/>
</svg>
