<svg xmlns="http://www.w3.org/2000/svg" viewBox="0 0 90 89.94"><defs><style>.cls-1{fill:#d4aea6;}</style></defs><title>Asset 3</title><g id="Layer_2" data-name="Layer 2"><g id="Layer_1-2" data-name="Layer 1"><path class="cls-1" d="M89.34,38.47A43.77,43.77,0,0,0,76.46,13,44.42,44.42,0,0,0,50.81.42C49.61.24,48.48.12,47.28,0H42.6c-1.43.18-2.81.3-4.25.54A44.23,44.23,0,0,0,8.75,18.4,44.72,44.72,0,0,0,.42,39C.24,40.21.12,41.4,0,42.66v4.68c.18,1.38.3,2.81.54,4.19a43.69,43.69,0,0,0,17,29,42.73,42.73,0,0,0,22.35,9l2.93.36h4.32c1.44-.18,2.93-.3,4.37-.54A44.2,44.2,0,0,0,81.25,71.48a43.63,43.63,0,0,0,8.57-23.42l.18-.9V42.84C89.7,41.34,89.58,39.91,89.34,38.47ZM28.28,79.69C8.87,70.53,1.32,47.28,9.77,29.18ZM21.51,28.1c-.42-1.26-.36-1.38.9-1.38h3.42c.59,0,.83-.24.83-.83-.06-2.7.36-2.34-2.33-2.28-3.84.12-7.73.24-11.87.3,6-8.81,13.9-14.5,24.09-16.66,12.82-2.7,24.21.48,34.34,9.11-.72.12-1.2.12-1.68.24-3.72.78-5.69,4-5.1,8a17.2,17.2,0,0,0,2.46,6.11A29,29,0,0,1,70.11,38a20.27,20.27,0,0,1-.18,11.32C68.07,55.55,66,61.78,63.87,68c-.06-.24-.17-.42-.23-.66-4.44-13-8.87-26.06-13.25-39.07-.48-1.38-.36-1.5,1.08-1.56h3.06c.54,0,.78-.18.78-.71-.06-2.76.48-2.4-2.4-2.4-6.11.06-12.28,0-18.4,0-2.39,0-2-.24-2.09,1.92,0,1.25,0,1.25,1.26,1.25h3.11a1.21,1.21,0,0,1,1.26.9c1.8,5,3.65,10,5.45,15a2,2,0,0,1,0,.84c-2.69,8.21-5.45,16.48-8.15,24.69-.06.12-.12.3-.18.42C34,65.19,33,62,31.82,58.72Zm50,28.22c1.86-5.39,3.78-10.78,5.52-16.23a39.89,39.89,0,0,0,2-13c3.48,3.3,5.58,17.2,3.84,25.47-2.46,11.5-8.87,20.13-18.94,26.07l-.17-.18C66.27,71.13,68.91,63.75,71.48,56.32ZM33.74,81.91l11.86-34L57.82,81.31h0A38.51,38.51,0,0,1,33.74,81.91Z"/></g></g></svg>