<svg id="Layer_1" data-name="Layer 1" xmlns="http://www.w3.org/2000/svg" viewBox="0 0 140.63 28.96"><defs><style>.cls-1{fill:#d4aea6;fill-rule:evenodd;}</style></defs><title>foot-frontity</title><path class="cls-1" d="M44.47,2.65V6.33H36.62v4.19h6.06V14H36.62v7.74H32V2.65Zm7.11,6.87a6.58,6.58,0,0,1,2.23-2.19,5.65,5.65,0,0,1,3-.81v5H55.45a4.56,4.56,0,0,0-2.85.78,3.14,3.14,0,0,0-1,2.65v6.87H47V6.68h4.62Zm14.31-3a8.51,8.51,0,0,1,4,.93,6.86,6.86,0,0,1,2.78,2.69,8.06,8.06,0,0,1,1,4.11,8,8,0,0,1-1,4.11A6.73,6.73,0,0,1,69.91,21a8.4,8.4,0,0,1-4,.94,8.5,8.5,0,0,1-4-.94,6.84,6.84,0,0,1-2.8-2.69,8.13,8.13,0,0,1-1-4.11,8.16,8.16,0,0,1,1-4.11,6.91,6.91,0,0,1,2.8-2.69,8.61,8.61,0,0,1,4-.93Zm0,4a2.94,2.94,0,0,0-2.23,1,3.91,3.91,0,0,0-.9,2.77,3.85,3.85,0,0,0,.9,2.76,3,3,0,0,0,2.23.95A2.93,2.93,0,0,0,68.11,17,3.85,3.85,0,0,0,69,14.22a3.91,3.91,0,0,0-.89-2.77,2.91,2.91,0,0,0-2.22-1Zm19.91-4a5.18,5.18,0,0,1,4.12,1.73A6.93,6.93,0,0,1,91.45,13v8.76H86.83V13.55a3.35,3.35,0,0,0-.8-2.37,2.76,2.76,0,0,0-2.12-.85,2.9,2.9,0,0,0-2.23.89,3.61,3.61,0,0,0-.83,2.54v8H76.23V6.68h4.62V9.44A5,5,0,0,1,82.79,7.3a5.67,5.67,0,0,1,3-.78Zm17.37,11.27v4h-2.09A6,6,0,0,1,97,20.46c-1-.88-1.47-2.32-1.47-4.34V10.57h-2V6.68h2V3h4.62V6.68h3v3.89h-3V16.2a1.7,1.7,0,0,0,.36,1.24,1.75,1.75,0,0,0,1.24.35Zm2.27-15.36A2.24,2.24,0,0,1,106.2.69a3.24,3.24,0,0,1,4,0A2.24,2.24,0,0,1,111,2.43a2.21,2.21,0,0,1-.76,1.72,3.24,3.24,0,0,1-4,0A2.25,2.25,0,0,1,105.44,2.43Zm5.06,4.25V21.77h-4.63V6.68Zm11.85,11.11v4h-2.09a6,6,0,0,1-4.12-1.31c-1-.88-1.47-2.32-1.47-4.34V10.57h-2V6.68h2V3h4.62V6.68h3v3.89h-3V16.2a1.66,1.66,0,0,0,.37,1.24,1.71,1.71,0,0,0,1.23.35Zm6.19-11.11,3.63,9.25,3.38-9.25h5.11L131.25,29h-5.09l3.55-7.76L123.38,6.68ZM3.76,5l9.29,9.28L9.82,17.49.54,8.21Z" transform="translate(-0.03 0)"/><path class="cls-1" d="M12.54,14.8,3.26,24.08,0,20.85l9.28-9.28Z" transform="translate(-0.03 0)"/><path class="cls-1" d="M14.37,5l9.28,9.28-3.22,3.23L11.14,8.21Z" transform="translate(-0.03 0)"/><path class="cls-1" d="M23.15,14.8l-9.29,9.28-3.22-3.23,9.28-9.28Z" transform="translate(-0.03 0)"/></svg>