<svg xmlns="http://www.w3.org/2000/svg" viewBox="0 0 171.94 150.18"><defs><style>.cls-1{fill:#d4aea6;}.cls-2{fill:#87635c;}</style></defs><title>Asset 6</title><g id="Layer_2" data-name="Layer 2"><g id="Layer_1-2" data-name="Layer 1"><path class="cls-1" d="M122.52,43.49a16.36,16.36,0,0,1,1.39-1.13c1.39-.92,2.88-1.7,4.21-2.7,3.84-2.87,7.57-5.87,11.44-8.69a6.44,6.44,0,0,1,3.3-1.13c5.1-.24,10.22-.32,15.33-.47a7.21,7.21,0,0,0,1.19-.25c-5-1.59-10.11-.69-15.3-1,.53-1.3,1.48-1.1,2.3-1.11,4.79,0,9.58,0,14.37-.07.91,0,1.82-.15,2.74-.24v-.55C158.2,24.56,152.67,25.8,147,25c.47-.47.69-.88,1-.95a12.53,12.53,0,0,1,3-.44c4.23.12,8.46.35,12.69.51a2.68,2.68,0,0,0,2.76-1.21c-2.79-.29-5.29-.46-7.77-.84s-5,.37-7.53-.77c1.65-1.81,1.75-1.82,3.62-1.52,1.18.18,2.37.32,3.57.4,2.86.21,5.73.4,8.6.53.72,0,1.61.4,2.41-.83-4.44-1.81-9.2-.81-13.57-2,1.06-2.71,2.18-2.38,4.2-2.24,3.19.21,6.37.52,9.56.75.79.06,1.6,0,2.4,0v-.6c-1.92-.72-4-.63-6-.82s-4.18-.21-6.44-.31c.42-.83,1-1.53.86-1.75-1.14-1.67,0-3,.49-4.46.78-2.18,1.61-4.34,2.36-6.54A7,7,0,0,0,163.34.2l-.61-.2a20.52,20.52,0,0,0-1.32,2.38c-1.28,3.18-2.59,6.36-3.72,9.6a7.77,7.77,0,0,1-4.89,4.83c1.43-5.21,4.41-9.55,5.06-14.72a7.55,7.55,0,0,0-2.28,3.21c-1.26,3.54-2.51,7.07-3.82,10.6a12.39,12.39,0,0,1-1.29,2.54c-.23.36-.79.49-1.6,1,1.09-5.48,4.24-9.86,4.4-15.48a7.15,7.15,0,0,0-.53.93c-1.7,4.48-3.45,8.94-5.06,13.46-.53,1.5-1.62,2.48-2.73,4.21A7.24,7.24,0,0,1,145,21c1.54-4.52,3.12-9,4.67-13.56.24-.7.72-1.47-.3-2.4-2.78,6.71-4.6,13.63-8,19.89a3.39,3.39,0,0,1,.11-1.8c.92-2.55,1.89-5.07,2.83-7.62a10.44,10.44,0,0,0-.09-5.47,4.42,4.42,0,0,0-.56.78,65.87,65.87,0,0,0-2.75,6.64c-.73,2.34-2,4.51-2.08,7.09a4.08,4.08,0,0,1-2.67,3.92,7.29,7.29,0,0,0-1.43.87q-7.6,4.95-15.21,9.92c-.12.08-.3.06-.66.11a11.36,11.36,0,0,1-2-1.84A23.39,23.39,0,0,0,109.65,31c-2.08-1.3-4.12-2.65-6.24-3.87a24.72,24.72,0,0,0-3.7-1.69c-1.94-.7-3.93-1.81-5.89-1.8-4.36,0-8.85.05-12.83,2.29a81.68,81.68,0,0,0-9.54,5.92c-1.91,1.47-3.23,3.71-4.76,5.64-1.32,1.67-2.57,3.39-3.84,5.08l-7.47-3.8c-3-1.56-6.07-3.17-9.15-4.67a19.48,19.48,0,0,0-7.48-2.28,59.6,59.6,0,0,0-11.41.07c-3.19.41-6.26.94-9,2.53-2.39,1.39-4.54,3.19-6.8,4.81a30.45,30.45,0,0,1-3.14,2.19c-1.27.69-1,1.93-1.39,2.94-1.32,3.23-2.82,6.4-4.24,9.6a20.15,20.15,0,0,0-.8,2,13.64,13.64,0,0,0-.75,2.69Q.66,63.47.27,68.36C.14,70-.22,71.75.2,73.26c1,3.35,1.54,6.78,2.61,10.11a24.66,24.66,0,0,0,3.39,7c2.31,3.16,4.74,6.23,7.15,9.32A42.47,42.47,0,0,0,24.61,110c1.82,1.12,3.5,2.45,5.46,3.83l-14.4,14.76c-1-3-.13-5.65,0-8.65-.73.37-1.34.48-1.59.85a23.78,23.78,0,0,0-2.57,4.29c-1.65,4.16-3.09,8.39-4.64,12.59a56.67,56.67,0,0,0-1.51,6.18,21.56,21.56,0,0,0,2.64-.9c1.64-.82,3.25-1.71,4.85-2.59,4.12-2.28,8.23-4.55,12.32-6.87a8.47,8.47,0,0,0,1.41-1.38c-3-.81-5.88,1.23-8.59-1a23.78,23.78,0,0,1,1.91-2.2c1.84-1.64,3.72-3.25,5.63-4.81,2.54-2.07,5.19-4,7.67-6.14a2.75,2.75,0,0,1,3.49-.29c2.33,1.23,4.71,2.37,7,3.61,2.68,1.42,5.38,2.8,7.95,4.38,2,1.25,3.78,3,5.86,4.16a39.73,39.73,0,0,1,10.61,8.42c2.75,3.12,4.86,6.51,5.2,10.79a4.36,4.36,0,0,0,.53,1.19c1.49-1,1.45-2.44,1.78-3.72a18.31,18.31,0,0,1,.26-1.87c1.31-3.65,3-7.07,6.25-9.43,1.55-1.13,3-2.35,4.66-3.37,6.15-3.85,12.35-7.65,18.19-12a50.9,50.9,0,0,0,11.28-10.89c1.2-1.68,2.76-3.14,3.79-4.91a65,65,0,0,0,6.32-13.38c1-3.28,2.33-6.47,2.59-9.94.12-1.59.11-3.2.32-4.78a40,40,0,0,0-.18-12.11c-.73-4.26-1.4-8.41-3.53-12.28C124.29,49.17,123.64,46.49,122.52,43.49Z"/><path class="cls-1" d="M122.52,43.49c29.41,75.68-44.71,77.59-48.67,106.69C67,130.44,34.68,104.38,18,131.07c2.71,2.24,5.62.2,8.59,1A100.78,100.78,0,0,1,5.34,143.82c2.57-7.09,2.89-17.42,10.31-23.91-.11,3-1,5.67,0,8.65l14.4-14.76C-8.21,95.47-14.23,25.91,41.4,32.18c39.07,20,9.68,2.11,47.17-8.43,21.43-5.15,33.67,41,55.59-13.7,1.7,5-2,8.1-2.85,14.89,3.42-6.26,5.24-13.18,8-19.89,1.51,4.81-4.14,10.62-4.38,17.47,3.67-4.43,5-11.86,8.32-18.6-.16,5.62-3.31,10-4.4,15.48,5-2.8,3.78-12,9-17.31-.65,5.17-3.63,9.51-5.06,14.72C159.61,14.6,158,4.79,163.34.2c-1,4.44-2.47,8.18-3.85,14.42,1.79.83,4-1.43,12.45,1.73-3.66,1.43-12.25-3.78-16.16,1.54,4.37,1.2,9.13.2,13.57,2-4.12,3.38-12.81-3-18.2,1.42,4.14,1.15,8.73.65,15.3,1.61C161.9,26.81,153.55,20.74,147,25c30,2.05,11.35.47-2.9,3.09,5.19.32,10.3-.58,15.3,1C138,29,139.51,31.37,122.52,43.49ZM63,50.09C16.19,7-28.53,84.15,47.36,117.44c7.81,7.33,19.81,13.52,26.47,25,9-21,55.36-21.29,49.68-76.58l1.26.47c-7.21-27.62-9.14-17.52-28.51-3.3-13.5,3,8-12.82,17.45-20.14C99.15,26.56,73.47,28.64,63,50.09ZM18.32,36.72c-.65-.42-.15-.44-1.69.6C17.24,37.66,16.69,37.54,18.32,36.72ZM13.9,39.47l.24.31c-.1-.25,1-.12.77-1.16Z"/><path class="cls-2" d="M63,50.09a35.11,35.11,0,0,1,7.36-9.74,32.22,32.22,0,0,1,21.26-9,15.28,15.28,0,0,1,10.08,3.22,3,3,0,0,0,2.58.93c.48-.1,1.2.39,1.66.79,1.53,1.37,3,2.84,4.48,4.23a11.92,11.92,0,0,0,1.35.93l2,1.42c-.82.73-1.39,1.34-2.06,1.83-2.2,1.59-4.53,3-6.62,4.74-3.21,2.63-6.3,5.41-9.39,8.19-1.52,1.36-2.94,2.85-4.35,4.23,1.41,2.4,2.89,2.72,5,1.15,2.35-1.78,4.61-3.69,6.94-5.5,3.78-2.94,7.56-5.89,11.4-8.76a10.7,10.7,0,0,1,2.63-1,31,31,0,0,1,2.06,3.5q2.65,6.13,5.12,12.35a11.83,11.83,0,0,1,.36,2.68l-1.26-.47a23.76,23.76,0,0,1,.41,2.63c.09,2,.1,4,.14,5.94a26.72,26.72,0,0,1,0,3.1A61.47,61.47,0,0,1,123,85.79a76.1,76.1,0,0,1-3.76,12.1,49.52,49.52,0,0,1-10.73,15.45c-.62.62-1.26,1.23-1.84,1.89a26.72,26.72,0,0,1-7.14,5.57c-2,1.08-3.74,2.43-5.63,3.63-2.15,1.36-4.28,2.78-6.52,4a30.9,30.9,0,0,0-8.06,6.3c-1.46,1.57-2.87,3.19-4.18,4.88a14.51,14.51,0,0,0-1.31,2.82l-3.55-5.21a7.63,7.63,0,0,0-1.11-1.55c-3.63-3.23-7.46-6.27-10.88-9.71-2-2-4.5-3.2-6.74-4.82-1.2-.87-2.63-1.51-3.24-3a1.51,1.51,0,0,0-1-.64,18.13,18.13,0,0,1-7.46-3.76,6.86,6.86,0,0,0-1.58-1,45.36,45.36,0,0,1-12.86-9c-3.55-3.67-7.3-7.14-10.69-11a48.29,48.29,0,0,1-4.57-7c-2.09-3.39-3-7.18-3.65-11.06C5.72,69.76,5.39,65,7.67,60.37a21.9,21.9,0,0,0,1.39-4.56,7.46,7.46,0,0,1,2.14-4.18,3.92,3.92,0,0,0,.88-1.41,15.17,15.17,0,0,1,5.55-6.43C18.88,42.93,20,41.93,21.2,41a8.84,8.84,0,0,1,4.74-2.15c4.2-.46,8.33-1.6,12.61-1.26a21.57,21.57,0,0,1,3.79.44c5.58,1.55,10.93,3.57,15.28,7.62C59.3,47.17,61.12,48.57,63,50.09Zm44-12.09-.16.23.67.52.12-.14Z"/><path class="cls-1" d="M18.32,36.72l-1.51.86-.18-.26,1.38-1Z"/><path class="cls-1" d="M13.9,39.47l1-.85.24.3-1,.86Z"/><path class="cls-1" d="M106.92,38l.63.61-.12.14-.67-.52Z"/></g></g></svg>