<?xml version="1.0" standalone="no"?>
<!DOCTYPE svg PUBLIC "-//W3C//DTD SVG 1.1//EN" "http://www.w3.org/Graphics/SVG/1.1/DTD/svg11.dtd">
<svg xmlns="http://www.w3.org/2000/svg">
<defs >
<font id="Comfortaa" horiz-adv-x="638" ><font-face
    font-family="Comfortaa Medium"
    units-per-em="1000"
    panose-1="0 0 0 0 0 0 0 0 0 0"
    ascent="881"
    descent="-234"
    alphabetic="0" />
<glyph unicode=" " horiz-adv-x="293" />
<glyph unicode="!" horiz-adv-x="273" d="M112 180Q94 180 82 192T69 223V738Q69 756 81 769T112 782Q130 782 142 769T155 738V223Q155 205 142 193T112 180ZM112 0Q86 0 68 18T50 62Q50 88 68 106T112 124Q137 124 155 106T173 62Q173 36 155 18T112 0Z" />
<glyph unicode="&quot;" horiz-adv-x="273" d="M200 561Q187 561 178 570T168 593L157 738Q157 756 170 769T200 782Q219 782 231 769T243 738L234 593Q233 580 224 571T200 561ZM80 561Q66 561 57 570T46 593L37 738Q37 756 50 768T80 781Q98 781 110 769T122
738L113 593Q113 580 104 571T80 561Z" />
<glyph unicode="#" horiz-adv-x="722" d="M639 548Q657 548 667 539T676 513Q675 496 662 487T627 477H552L524 315H599Q618 315 627 306T636 282Q636 268 623 256T586 244H507L472 43Q468 23 456 12T424 0Q406 0 397 12T392 44L426 244H245L210 43Q207 25 194
13T163 0Q145 0 136 11T130 44L164 244H85Q68 244 58 253T49 276Q50 295 63 305T97 315H181L208 477H128Q109 477 99 485T88 509Q88 528 101 538T138 548H224L259 742Q262 761 274 773T306 785Q324 785 333 773T339 741L305 548H486L521 742Q524 760 537 772T568
785Q589 785 596 773T601 741L567 548H639ZM442 315L470 477H289L262 315H442Z" />
<glyph unicode="$" horiz-adv-x="611" d="M311 -10Q250 -10 198 7T106 56T48 134Q41 152 48 166T75 186Q89 190 103 183T123 159Q142 118 193 93T311 68Q359 68 397 84T457 130T480 206Q481 264 440 307T309 362Q237 371 184 400T102 474T73 578Q73 640 105 684T194
751T320 775Q376 775 419 759T494 714T546 649Q556 631 554 615T536 591Q523 581 507 586T481 607Q460 645 422 671T319 698Q246 699 201 669T156 577Q156 545 170 516T221 464T327 432Q441 417 503 360T565 208Q565 155 545 115T489 46T408 4T311 -10ZM317 -100Q306
-100 298 -92T290 -71V822Q290 836 298 843T317 851Q329 851 336 844T344 822V-71Q344 -84 337 -92T317 -100Z" />
<glyph unicode="%" horiz-adv-x="859" d="M162 0Q144 0 132 12T119 43Q119 60 129 72L671 764Q678 772 686 777T705 782Q724 782 736 769T748 738Q748 724 740 712L194 14Q181 0 162 0ZM230 388Q176 388 131 415T60 486T33 584Q33 638 59 682T131 754T230 782Q284
782 328 755T400 683T427 584Q427 531 400 487T329 415T230 388ZM230 473Q261 473 286 488T326 528T342 584Q342 615 327 640T286 681T230 697Q200 697 174 682T133 641T118 584Q118 554 133 529T173 488T230 473ZM636 0Q582 0 538 26T466 97T439 196Q439 250 466
294T537 366T636 393Q690 393 734 367T806 296T833 196Q833 142 806 98T735 27T636 0ZM636 85Q667 85 692 100T733 140T748 196Q748 227 733 252T692 292T636 308Q606 308 580 293T539 253T524 196Q524 166 539 141T580 100T636 85Z" />
<glyph unicode="&amp;" horiz-adv-x="724" d="M256 -9Q192 -9 145 14T71 80T45 180Q45 245 87 299T208 416L292 482Q338 519 357 553T377 624Q377 664 350 694T273 724Q228 724 200 696T171 631Q171 602 183 576T221 524L672 74Q685 60 687 48T676 22Q648 -6 621
22L165 478Q132 511 114 549T95 630Q95 677 118 713T182 771T273 793Q325 793 365 771T429 710T452 623Q452 585 438 553T396 490T328 428L247 365Q207 333 180 303T140 243T126 181Q126 126 160 95T258 64Q312 64 355 90T443 165L593 324Q606 337 618 340T644
330Q657 318 658 304T645 275L495 117Q443 59 386 25T256 -9Z" />
<glyph unicode="&apos;" horiz-adv-x="156" d="M80 561Q67 561 57 570T47 594L37 738Q37 756 50 768T80 781Q98 781 110 769T123 738L113 594Q113 580 104 571T80 561Z" />
<glyph unicode="(" horiz-adv-x="262" d="M203 -234Q190 -234 180 -228T163 -205Q105 -85 76 34T47 275Q47 395 75 514T163 752Q176 781 203 781Q221 781 233 769T246 738Q245 725 239 715Q131 495 131 274Q131 164 159 52T240 -169Q246 -181 246 -191Q246 -209
234 -221T203 -234Z" />
<glyph unicode=")" horiz-adv-x="262" d="M58 -234Q40 -234 28 -222T16 -191Q16 -181 21 -169Q75 -60 103 52T131 274Q131 495 22 715Q17 725 16 738Q16 756 28 768T58 781Q87 781 100 752Q158 634 186 515T215 275Q215 154 186 35T100 -205Q91 -221 82 -227T58 -234Z" />
<glyph unicode="*" horiz-adv-x="381" d="M122 489Q103 489 92 502T80 532Q80 542 84 550T97 565L156 613L85 618Q67 620 55 632T43 661Q43 681 56 692T86 704Q92 704 99 702T113 694L170 658L154 724Q153 728 152 731T151 738Q151 756 163 769T194 782Q212 782
224 769T237 738Q237 734 237 731T235 724L218 657L280 696Q290 704 303 704Q318 704 332 692T346 661Q346 643 335 631T304 618L233 613L289 568Q309 553 309 532Q309 515 297 502T261 489Q248 491 239 498T225 518L195 587L164 519Q159 504 148 497T122 489Z"
/>
<glyph unicode="+" horiz-adv-x="547" d="M273 153Q255 153 243 165T230 196V346H81Q63 346 51 358T39 389Q39 407 51 419T81 432H230V581Q230 599 242 611T273 624Q292 624 304 612T316 581V432H465Q483 432 495 420T508 389Q508 370 496 358T465 346H316V196Q316
178 304 166T273 153Z" />
<glyph unicode="," horiz-adv-x="232" d="M81 -166Q70 -166 65 -160T59 -144Q59 -127 68 -114T88 -86T99 -49Q99 -32 92 -20T75 1T58 22T50 51Q50 77 67 93T111 109Q144 109 163 85T182 18Q182 -12 174 -44T150 -104T116 -149T81 -166Z" />
<glyph unicode="-" horiz-adv-x="391" d="M80 231Q62 231 50 243T37 273Q37 292 49 304T80 316H311Q329 316 341 304T353 273Q353 255 341 243T311 231H80Z" />
<glyph unicode="." horiz-adv-x="223" d="M112 -16Q86 -16 68 2T50 46Q50 72 68 90T112 108Q137 108 155 90T173 46Q173 21 156 3T112 -16Z" />
<glyph unicode="/" horiz-adv-x="469" d="M81 -77Q57 -77 45 -59T42 -16L352 757Q356 769 367 775T391 782Q415 782 426 764T430 722L120 -52Q115 -65 104 -71T81 -77Z" />
<glyph unicode="0" horiz-adv-x="573" d="M286 0Q212 0 159 47T78 181T50 392Q50 513 77 601T158 736T286 783Q362 783 415 736T495 600T523 392Q523 270 496 183T415 48T286 0ZM286 87Q338 87 371 126T420 235T437 392Q437 479 421 547T371 656T286 696Q236 696
203 657T153 548T136 392Q136 303 153 234T203 126T286 87Z" />
<glyph unicode="1" horiz-adv-x="383" d="M240 0Q222 0 210 12T197 43V680L106 646Q93 640 82 640Q63 640 51 652T39 682Q39 696 45 707T67 723L221 777Q226 779 231 780T241 782Q260 782 271 770T283 738V43Q283 25 271 13T240 0Z" />
<glyph unicode="2" horiz-adv-x="583" d="M112 0Q94 0 82 12T69 43Q69 60 81 73L378 422Q404 452 419 484T435 546Q435 592 418 626T369 680T296 700Q255 700 222 680T170 624T151 546Q151 529 139 517T108 504Q90 504 78 516T65 546Q65 613 95 666T178 751T296
782Q362 782 412 752T490 669T519 546Q519 513 508 482T477 423T437 371L190 86H492Q510 86 522 73T535 43Q535 25 523 13T492 0H112Z" />
<glyph unicode="3" horiz-adv-x="590" d="M304 -3Q232 -3 176 27T88 111T55 233Q55 252 66 264T95 277Q113 277 124 265T135 233Q135 188 156 153T216 96T300 74Q374 74 417 115T460 225Q460 271 440 306T386 362T308 383Q290 383 278 395T266 426Q266 444 278
456T308 469Q341 469 369 485T415 529T433 590Q433 640 398 674T307 708Q266 708 234 692T183 649T164 589Q164 570 153 557T124 544Q106 544 95 556T84 587Q84 643 113 688T192 759T306 785Q364 785 411 760T485 690T513 590Q513 555 496 524T452 468T394 430Q446
414 479 383T529 311T545 224Q545 159 513 108T426 27T304 -3Z" />
<glyph unicode="4" horiz-adv-x="649" d="M449 0Q433 0 421 12T409 43V184H59Q41 184 30 195T17 222T25 251L416 764Q422 772 430 777T452 782Q469 782 480 769T492 738V261H565Q582 261 594 253T607 222Q607 207 595 196T565 184H492V43Q492 25 480 13T449 0ZM107
232L89 261H409V684L432 657L107 232Z" />
<glyph unicode="5" horiz-adv-x="628" d="M318 0Q246 0 189 33T99 124T65 254Q65 273 77 285T107 297Q126 297 138 285T151 254Q151 207 173 169T233 108T318 86Q366 86 404 108T465 168T487 254Q487 302 465 340T405 401T318 423H146Q127 423 115 435T103 466V738Q103
756 115 769T146 782H491Q509 782 521 769T534 738Q534 721 522 709T491 696H188V509H318Q391 509 448 476T539 385T573 254Q573 182 540 125T449 34T318 0Z" />
<glyph unicode="6" horiz-adv-x="580" d="M300 0Q232 0 179 30T96 114T65 236Q65 304 95 357T179 441T300 472Q368 472 421 442T504 358T535 236Q535 167 505 114T421 31T300 0ZM299 78Q344 78 378 98T433 154T453 236Q453 282 433 317T379 373T299 394Q255 394
221 374T166 318T146 236Q146 190 166 154T220 98T299 78ZM95 358L337 757Q352 781 376 781Q393 781 405 771T420 746T414 715L256 457L95 358Z" />
<glyph unicode="7" horiz-adv-x="561" d="M156 0Q139 0 127 12T114 43Q114 49 116 55T122 70L416 696H86Q67 696 55 708T42 739Q42 757 54 769T86 782H484Q502 782 514 769T526 739Q526 733 524 727T520 716L195 24Q183 0 156 0Z" />
<glyph unicode="8" horiz-adv-x="589" d="M295 -2Q228 -2 176 29T93 115T62 237Q62 303 92 355T175 437T295 467Q362 467 414 437T497 355T527 237Q526 169 496 115T413 30T295 -2ZM295 75Q337 75 370 96T422 154T442 237Q442 281 423 316T371 371T295 391Q253
391 220 371T167 316T147 237Q147 191 166 155T218 97T295 75ZM295 402Q239 402 195 427T126 494T100 592Q100 646 125 689T195 758T295 784Q351 785 395 760T464 691T489 592Q489 537 463 495T394 427T295 402ZM295 474Q326 474 351 490T391 533T406 594Q407 626
393 651T353 691T295 706Q247 706 216 674T183 594Q182 543 214 509T295 474Z" />
<glyph unicode="9" horiz-adv-x="580" d="M280 782Q348 782 401 752T484 668T515 546Q515 478 485 425T401 341T280 310Q212 310 159 340T76 424T45 546Q45 615 75 668T159 751T280 782ZM281 704Q236 704 202 684T147 628T127 546Q127 500 147 465T201 409T281
388Q325 388 359 408T414 464T434 546Q434 592 414 628T360 684T281 704ZM485 424L243 25Q228 1 204 1Q187 1 175 11T160 36T166 67L324 325L485 424Z" />
<glyph unicode=":" horiz-adv-x="195" d="M347 419Q321 419 303 436T284 481Q284 507 302 525T347 543Q372 543 390 525T408 480Q408 455 390 437T347 419ZM352 -16Q326 -16 308 2T290 46Q290 72 308 90T352 108Q377 108 395 90T413 46Q413 21 396 3T352 -16Z" />
<glyph unicode=";" horiz-adv-x="198" d="M81 -166Q70 -166 65 -160T59 -144Q59 -127 68 -114T88 -86T99 -49Q99 -32 92 -20T75 1T58 22T50 51Q50 77 67 93T111 109Q144 109 163 85T182 18Q182 -12 174 -44T150 -104T116 -149T81 -166ZM350 419Q324 419 306 436T287
481Q287 507 305 525T350 543Q375 543 393 525T411 480Q411 455 393 437T350 419Z" />
<glyph unicode="&lt;" horiz-adv-x="547" d="M444 82L62 312Q39 326 39 351Q39 372 62 389L444 619Q466 630 487 620T508 584Q508 559 487 546L126 331V374L487 157Q508 143 508 120Q508 102 498 91T472 77T444 82Z" />
<glyph unicode="=" horiz-adv-x="508" d="M81 423Q63 423 51 435T39 466Q39 484 51 496T81 509H427Q445 509 457 496T470 466Q470 448 458 436T427 423H81ZM81 192Q63 192 51 204T39 235Q39 254 51 266T81 278H427Q445 278 457 265T470 235Q470 217 458 205T427 192H81Z" />
<glyph unicode="&gt;" horiz-adv-x="547" d="M103 82Q90 74 75 77T50 91T39 120Q39 143 60 157L422 374V331L60 546Q39 559 39 584Q39 609 60 619T103 619L485 389Q508 372 508 351Q508 326 485 312L103 82Z" />
<glyph unicode="?" horiz-adv-x="547" d="M273 180Q255 180 243 192T230 223Q230 263 250 309T307 389Q337 417 363 442T406 500T423 581Q423 617 406 648T356 697T279 716Q230 716 195 697T142 643T124 562Q124 543 113 532T82 520Q63 520 51 531T39 562Q39 631
69 684T153 767T279 797Q345 797 396 769T478 692T508 578Q508 522 489 483T437 411T366 343Q336 317 326 283T316 223Q316 204 304 192T273 180ZM273 0Q247 0 230 18T212 62Q212 88 230 106T273 124Q299 124 317 106T336 62Q336 36 318 18T273 0Z" />
<glyph unicode="@" horiz-adv-x="1094" d="M548 -233Q436 -233 344 -196T183 -91T78 69T41 274Q41 385 78 478T183 639T343 744T548 781Q659 781 752 744T913 639T1018 478T1055 274Q1055 181 1030 111T960 0T857 -41Q805 -41 772 -11T738 69V110Q719 77 687 52T618
12T542 -2Q463 -2 402 33T307 130T273 274Q273 354 308 416T405 514T548 550Q628 550 690 514T787 416T823 274V106Q823 76 833 61T864 46Q893 46 917 75T954 155T968 274Q968 366 937 443T850 576T717 663T548 694Q455 694 378 663T245 576T158 443T127 274Q127
181 157 104T244 -29T378 -116T548 -147Q590 -147 638 -137T720 -111Q749 -98 767 -108T785 -147Q785 -170 755 -189T671 -221T548 -233ZM548 85Q603 85 645 109T712 175T736 274Q736 329 712 371T646 438T548 462Q492 462 450 438T383 372T359 274Q359 218 383
176T449 109T548 85Z" />
<glyph unicode="A" horiz-adv-x="703" d="M61 0Q36 0 25 20T22 62L312 751Q324 781 354 781Q383 781 395 751L685 61Q695 39 683 20T646 0Q633 0 623 7T606 27L340 677H370L101 27Q95 13 85 7T61 0ZM123 181L156 255H557L591 181H123Z" />
<glyph unicode="B" horiz-adv-x="704" d="M147 0Q127 0 114 12T100 43V738Q100 757 112 769T143 781H385Q448 781 497 755T575 684T604 580Q604 528 576 487T501 423Q568 406 608 358T649 233Q649 164 618 112T531 30T403 0H147ZM187 82H403Q451 82 487 100T544
151T565 233Q565 277 544 308T487 357T403 375H187V82ZM187 457H385Q444 457 482 489T520 580Q520 639 482 669T385 699H187V457Z" />
<glyph unicode="C" horiz-adv-x="773" d="M451 -10Q370 -10 300 21T176 107T93 234T63 391Q63 474 92 546T175 673T298 759T451 791Q524 791 582 771T695 704Q704 697 706 689T707 672T699 659Q698 647 688 640T665 633T639 644Q601 677 557 693T451 710Q388 710
333 685T236 616T171 514T147 391Q147 324 170 267T236 165T333 96T451 71Q504 71 552 89T643 140Q657 151 672 149T697 136T708 107Q708 99 705 92T696 76Q644 31 582 11T451 -10Z" />
<glyph unicode="D" horiz-adv-x="774" d="M143 0Q125 0 113 12T100 43V738Q100 757 112 769T143 781H324Q410 781 481 753T604 672T684 548T713 391Q713 305 685 234T604 110T481 29T324 0H143ZM187 77H324Q413 77 481 117T589 229T628 391Q628 482 589 553T482
664T324 704H187V77Z" />
<glyph unicode="E" horiz-adv-x="695" d="M143 0Q125 0 113 12T100 43V738Q100 757 112 769T143 781H607Q625 781 637 770T650 739Q650 722 638 711T607 699H187V434H491Q510 434 522 422T534 393Q534 375 522 363T491 351H187V82H607Q625 82 637 71T650 42Q650
23 638 12T607 0H143Z" />
<glyph unicode="F" horiz-adv-x="625" d="M81 0Q63 0 51 12T38 43V738Q38 757 50 769T81 781H544Q563 781 575 770T587 739Q587 722 575 711T544 699H124V434H429Q448 434 460 422T472 393Q472 375 460 363T429 351H124V43Q124 25 112 13T81 0Z" />
<glyph unicode="G" horiz-adv-x="773" d="M451 -10Q370 -10 300 21T176 107T93 234T63 391Q63 474 92 546T175 673T298 759T451 791Q524 791 582 771T695 704Q704 697 706 689T707 672T699 659Q698 647 688 640T665 633T639 644Q601 677 557 693T451 710Q388 710
333 685T236 616T171 514T147 391Q147 324 170 267T236 165T333 96T451 71Q504 71 552 89T643 140Q657 151 672 149T697 136T708 107Q708 99 706 92T696 76Q644 30 582 10T451 -10ZM708 107L624 125V318H474Q456 318 444 329T431 357Q431 374 443 384T474 395H665Q684
395 696 383T708 352V107Z" />
<glyph unicode="H" horiz-adv-x="853" d="M143 0Q125 0 113 12T100 43V738Q100 757 112 769T143 781Q162 781 174 769T187 738V434H667V738Q667 757 679 769T710 781Q729 781 741 769T753 738V43Q753 25 741 13T710 0Q691 0 679 12T667 43V357H187V43Q187 25 175
13T143 0Z" />
<glyph unicode="I" horiz-adv-x="287" d="M143 0Q125 0 113 12T100 43V738Q100 757 112 769T143 781Q162 781 174 769T187 738V43Q187 25 175 13T143 0Z" />
<glyph unicode="J" horiz-adv-x="618" d="M282 -10Q214 -10 161 21T76 105T45 226Q45 245 57 257T88 269Q107 269 119 257T132 226Q132 182 151 147T205 91T282 71Q324 71 358 91T411 147T431 226V738Q431 757 443 769T474 781Q493 781 505 769T518 738V226Q518
159 487 106T403 21T282 -10Z" />
<glyph unicode="K" horiz-adv-x="659" d="M143 0Q126 0 113 12T100 43V738Q100 756 113 768T143 781Q161 781 174 769T187 738V411L540 765Q550 774 558 777T575 781Q596 781 605 769T614 739T599 707L331 439L603 69Q613 55 611 39T599 11T572 0Q548 0 536 19L270
378L187 294V43Q187 25 174 13T143 0Z" />
<glyph unicode="L" horiz-adv-x="636" d="M143 0Q125 0 113 12T100 43V738Q100 756 112 768T143 781Q161 781 173 769T186 738V84H568Q586 84 598 72T611 42Q611 24 599 12T568 0H143Z" />
<glyph unicode="M" horiz-adv-x="981" d="M143 0Q125 0 113 12T100 43V738Q100 757 112 769T143 781Q169 781 182 758L511 103H478L800 758Q813 781 839 781Q857 781 869 769T881 738V43Q881 25 869 13T839 0Q820 0 808 12T795 43V622L813 623L529 43Q516 22 491
22Q463 22 451 48L167 617L187 622V43Q187 25 174 13T143 0Z" />
<glyph unicode="N" horiz-adv-x="827" d="M143 0Q124 0 112 12T100 43V738Q100 757 112 769T143 781Q163 781 176 765L640 153V738Q640 757 652 769T684 781Q702 781 714 769T727 738V43Q727 25 715 13T684 0Q675 0 666 3T651 15L186 627V43Q186 25 174 13T143 0Z" />
<glyph unicode="O" horiz-adv-x="921" d="M461 -10Q374 -10 301 20T175 103T92 230T63 391Q63 478 92 551T174 677T301 761T461 791Q548 791 620 761T747 678T830 551T859 391Q859 304 830 231T747 104T621 20T461 -10ZM461 71Q529 71 586 95T686 162T751 264T775
391Q775 459 752 517T686 618T587 686T461 710Q393 710 336 686T236 619T170 517T147 391Q147 323 170 265T235 163T335 95T461 71Z" />
<glyph unicode="P" horiz-adv-x="616" d="M143 0Q125 0 113 12T100 43V738Q100 757 112 769T143 781H343Q418 781 475 749T564 659T597 525Q597 452 565 396T475 307T343 274H187V43Q187 25 175 13T143 0ZM187 356H343Q393 356 431 378T491 438T513 525Q513 577
491 615T431 676T343 699H187V356Z" />
<glyph unicode="Q" horiz-adv-x="921" d="M748 13L534 226Q521 240 521 256T534 286Q547 299 563 299T593 286L808 72Q820 59 820 43T808 13Q794 0 778 0T748 13ZM461 -10Q374 -10 301 20T175 103T92 230T63 391Q63 478 92 551T174 677T301 761T461 791Q548 791
620 761T747 678T830 551T859 391Q859 304 830 231T747 104T621 20T461 -10ZM461 71Q529 71 586 95T686 162T751 264T775 391Q775 459 752 517T686 618T587 686T461 710Q393 710 336 686T236 619T170 517T147 391Q147 323 170 265T235 163T335 95T461 71Z" />
<glyph unicode="R" horiz-adv-x="623" d="M143 0Q125 0 113 12T100 43V738Q100 757 112 769T143 781H328Q402 781 459 750T548 665T581 538Q581 470 549 417T459 334T328 304H187V43Q187 25 175 13T143 0ZM560 0Q547 0 538 5T523 22L335 322L420 345L594 67Q610
41 600 21T560 0ZM187 386H328Q377 386 415 405T475 459T497 538Q497 586 475 622T415 678T328 699H187V386Z" />
<glyph unicode="S" horiz-adv-x="671" d="M343 -10Q279 -10 223 9T126 62T65 143Q56 161 64 176T93 196Q109 200 123 192T146 168Q160 141 188 119T256 84T343 71Q394 71 435 87T500 136T524 214Q524 272 480 315T340 370Q221 383 154 442T86 589Q86 651 120 696T213
766T347 791Q404 791 449 774T528 727T584 662Q596 644 593 628T574 602Q558 593 541 598T514 620Q498 645 476 665T422 697T346 710Q268 710 220 679T171 584Q171 552 188 524T246 475T361 445Q484 429 546 370T609 215Q609 160 588 118T531 48T446 5T343 -10Z"
/>
<glyph unicode="T" horiz-adv-x="657" d="M328 0Q310 0 298 12T285 43V781H372V43Q372 25 360 13T328 0ZM55 702Q37 702 26 713T15 741Q15 759 26 770T55 781H602Q620 781 631 770T642 741Q642 724 631 713T602 702H55Z" />
<glyph unicode="U" horiz-adv-x="828" d="M416 -16Q324 -16 252 19T140 116T100 259V738Q100 757 112 769T143 781Q162 781 174 769T187 738V259Q187 202 216 158T297 90T416 65Q482 65 533 89T612 158T641 259V738Q641 757 653 769T685 781Q704 781 716 769T728
738V259Q728 179 688 117T578 19T416 -16Z" />
<glyph unicode="V" horiz-adv-x="723" d="M362 0Q335 0 322 28L27 714Q15 744 25 762T61 781Q89 781 101 754L371 108H352L623 753Q630 769 639 775T665 781Q690 781 699 762T698 720L401 28Q395 13 385 7T362 0Z" />
<glyph unicode="W" horiz-adv-x="938" d="M267 0Q251 0 240 9T223 35L20 720Q12 747 22 764T55 781Q68 781 80 774T97 748L279 115H256L427 735Q430 747 441 755T468 763Q481 763 493 756T509 734L681 115H659L841 752Q849 781 884 781Q907 781 915 763T916 720L713
36Q708 19 697 10T669 0Q654 0 643 10T626 35L456 666H480L311 36Q305 20 294 10T267 0Z" />
<glyph unicode="X" horiz-adv-x="710" d="M88 0Q69 0 59 11T48 39T58 70L316 419L355 452L588 767Q600 781 620 781Q638 781 648 770T659 742T651 713L406 382L369 351L119 13Q107 0 88 0ZM623 0Q614 0 606 4T590 16L346 353L313 379L73 713Q63 726 64 742T76
769T104 781Q126 781 137 767L367 447L399 424L654 70Q664 57 664 40T653 12T623 0Z" />
<glyph unicode="Y" horiz-adv-x="655" d="M327 0Q310 0 297 12T284 43V288L14 713Q3 730 5 745T19 771T48 781Q61 781 69 775T85 759L350 334H308L574 759Q581 770 590 775T613 781Q628 781 638 771T650 745T642 713L371 288V43Q371 25 358 13T327 0Z" />
<glyph unicode="Z" horiz-adv-x="730" d="M94 0Q75 0 64 12T51 41T60 70L567 704H100Q80 704 69 714T58 741Q58 758 70 769T101 781H635Q654 781 665 769T678 741T670 713L160 77H635Q653 77 665 67T678 39Q678 22 666 11T635 0H94Z" />
<glyph unicode="[" horiz-adv-x="308" d="M108 -234Q90 -234 78 -222T65 -191V738Q65 757 77 769T108 782H264Q283 782 295 770T308 738Q308 720 296 708T264 695H152V-147H264Q283 -147 295 -159T308 -191Q308 -209 296 -221T264 -234H108Z" />
<glyph unicode="\" horiz-adv-x="469" d="M391 -80Q379 -80 368 -74T351 -54L39 720Q36 728 36 738Q36 757 48 769T80 782Q93 782 103 776T119 756L430 -19Q434 -27 434 -36Q434 -55 422 -67T391 -80Z" />
<glyph unicode="]" horiz-adv-x="308" d="M44 -234Q25 -234 13 -222T0 -191Q0 -172 12 -160T44 -147H157V695H44Q25 695 13 707T0 738Q0 757 12 769T44 782H200Q218 782 230 770T243 738V-191Q243 -209 231 -221T200 -234H44Z" />
<glyph unicode="^" horiz-adv-x="469" d="M84 465Q65 465 53 477T40 508Q40 514 42 520T47 530L202 764Q215 782 237 782Q248 782 257 777T272 764L427 530Q434 520 434 508Q434 490 422 478T391 465Q369 465 356 481L237 660L118 481Q105 465 84 465Z" />
<glyph unicode="_" horiz-adv-x="469" d="M3 -86Q-15 -86 -27 -74T-40 -43Q-40 -25 -28 -13T3 0H479Q496 0 508 -12T521 -43Q521 -61 509 -73T479 -86H3Z" />
<glyph unicode="`" horiz-adv-x="273" d="M188 589Q171 589 159 601L51 708Q40 719 40 738Q40 756 52 769T82 782Q100 782 113 769L220 661Q231 650 231 633Q231 614 219 602T188 589Z" />
<glyph unicode="a" horiz-adv-x="676" d="M327 -5Q251 -5 191 31T96 131T61 273Q61 353 97 416T197 515T339 552Q417 552 479 516T578 416T616 273L582 257Q582 183 549 124T458 30T327 -5ZM339 72Q394 72 438 98T507 170T532 273Q532 331 507 376T438 448T339
475Q284 475 240 449T170 377T144 273Q144 216 170 170T240 98T339 72ZM573 0Q554 0 542 11T530 42V207L549 295L616 273V42Q616 23 604 12T573 0Z" />
<glyph unicode="b" horiz-adv-x="706" d="M366 -5Q288 -5 226 31T128 130T90 271V738Q90 758 102 769T133 781Q152 781 163 770T175 738V452Q209 497 262 524T379 552Q455 552 515 516T609 416T644 274Q644 194 608 131T509 32T366 -5ZM366 72Q422 72 466 98T535
170T561 274Q561 331 536 377T466 449T366 475Q312 475 268 449T198 377T173 274Q173 216 198 171T267 99T366 72Z" />
<glyph unicode="c" horiz-adv-x="598" d="M335 -5Q256 -5 194 31T97 131T61 273Q61 353 95 416T189 515T327 552Q387 552 438 529T528 458Q540 444 537 430T518 404Q506 395 491 398T465 414Q410 475 327 475Q273 475 232 449T167 378T144 273Q144 215 168 170T235
98T335 72Q373 72 403 82T458 112Q471 123 485 124T512 116Q525 104 527 89T517 62Q444 -5 335 -5Z" />
<glyph unicode="d" horiz-adv-x="706" d="M339 -5Q260 -5 197 31T98 131T61 274Q61 353 96 416T191 515T327 552Q391 552 443 525T530 452V738Q530 758 542 769T573 781Q592 781 604 770T616 738V271Q614 193 578 131T479 32T339 -5ZM339 72Q394 72 438 98T507
170T532 274Q532 331 507 377T438 449T339 475Q284 475 240 449T170 377T144 274Q144 216 170 171T240 99T339 72Z" />
<glyph unicode="e" horiz-adv-x="616" d="M341 -5Q259 -5 196 30T97 129T61 273Q61 355 95 417T188 516T326 552Q403 552 459 518T545 422T576 283Q576 266 565 256T537 245H119V314H541L499 284Q499 339 478 383T419 452T326 477Q269 477 227 451T162 378T139
273Q139 214 165 169T236 97T341 70Q375 70 410 82T467 112Q479 122 494 122T521 114Q535 101 535 86T523 59Q489 31 439 13T341 -5Z" />
<glyph unicode="f" horiz-adv-x="366" d="M155 0Q139 0 127 11T114 43V545Q114 616 139 669T213 751T329 781Q348 781 360 770T372 742Q372 726 360 715T329 704Q287 704 258 685T214 631T199 551V43Q199 23 188 12T155 0ZM57 454Q39 454 29 464T18 490Q18 506
28 516T57 527H313Q331 527 341 517T352 490Q352 474 342 464T313 454H57Z" />
<glyph unicode="g" horiz-adv-x="676" d="M327 -5Q249 -5 189 30T95 129T61 273Q61 355 97 418T195 516T339 552Q419 552 481 517T579 418T616 273L566 257Q566 181 535 122T450 29T327 -5ZM339 -220Q263 -220 203 -191T101 -110Q90 -96 92 -81T108 -56Q123 -46
140 -49T167 -66Q195 -101 239 -122T341 -143Q394 -143 437 -118T506 -44T532 69V218L563 286L616 273V65Q616 -15 580 -79T482 -182T339 -220ZM339 72Q395 72 439 97T507 168T532 273Q532 332 508 378T439 449T339 475Q282 475 238 450T169 378T144 273Q144 214
169 169T238 98T339 72Z" />
<glyph unicode="h" horiz-adv-x="679" d="M557 0Q538 0 526 12T514 42V297Q514 358 491 396T430 454T341 473Q295 473 257 455T197 406T175 333H118Q119 396 150 445T235 524T353 553Q424 553 479 524T567 437T599 297V42Q599 24 587 12T557 0ZM133 0Q114 0 102
11T90 42V504Q90 524 102 535T133 547Q152 547 163 536T175 504V42Q175 23 164 12T133 0ZM133 215Q114 215 102 227T90 258V738Q90 758 102 769T133 781Q152 781 163 770T175 738V258Q175 239 164 227T133 215Z" />
<glyph unicode="i" horiz-adv-x="293" d="M147 0Q128 0 116 12T104 43V504Q104 524 116 535T147 547Q166 547 177 536T189 504V43Q189 24 178 12T147 0ZM402 646Q378 646 361 663T344 705Q344 730 361 746T403 763Q426 763 443 747T461 705Q461 680 444 663T402 646Z" />
<glyph unicode="j" horiz-adv-x="286" d="M-53 -234Q-72 -234 -84 -222T-96 -191Q-96 -172 -84 -160T-53 -148Q-9 -148 24 -129T76 -77T96 1V504Q96 524 108 535T139 547Q158 547 170 536T182 504V1Q182 -68 152 -121T68 -204T-53 -234ZM394 646Q370 646 353 663T336
705Q336 730 353 746T395 763Q418 763 435 747T453 705Q453 680 436 663T394 646Z" />
<glyph unicode="k" horiz-adv-x="571" d="M164 189L112 245L442 543Q455 555 470 554T497 540Q509 527 508 512T494 486L164 189ZM132 0Q113 0 102 11T90 42V739Q90 758 101 769T132 781Q150 781 161 770T173 739V42Q173 23 162 12T132 0ZM497 5Q483 -7 468 -6T441
10L224 277L284 331L503 61Q514 47 513 32T497 5Z" />
<glyph unicode="l" horiz-adv-x="288" d="M212 0Q171 0 139 22T88 85T70 177V739Q70 758 81 769T112 781Q131 781 142 770T154 739V177Q154 136 170 110T212 84H237Q254 84 264 73T274 42Q274 23 260 12T221 0H212Z" />
<glyph unicode="m" horiz-adv-x="944" d="M822 0Q803 0 791 11T779 42V329Q779 398 744 435T654 473Q595 473 558 434T521 329H447Q448 396 476 446T553 525T666 553Q724 553 769 526T839 449T864 329V42Q864 23 853 12T822 0ZM133 0Q114 0 102 11T90 42V504Q90
523 102 535T133 547Q152 547 163 535T175 504V42Q175 23 164 12T133 0ZM478 0Q460 0 448 11T435 42V329Q435 398 400 435T310 473Q251 473 213 434T175 333H118Q119 398 145 447T218 525T322 553Q380 553 425 526T495 449T521 329V42Q521 23 509 12T478 0Z" />
<glyph unicode="n" horiz-adv-x="679" d="M557 0Q538 0 526 12T514 42V297Q514 358 491 396T430 454T341 473Q295 473 257 455T197 406T175 333H118Q119 396 150 445T235 524T353 553Q424 553 479 524T567 437T599 297V42Q599 24 587 12T557 0ZM133 0Q114 0 102
11T90 42V504Q90 524 102 535T133 547Q152 547 163 536T175 504V42Q175 23 164 12T133 0Z" />
<glyph unicode="o" horiz-adv-x="676" d="M339 -5Q258 -5 196 31T97 130T61 273Q61 354 97 417T195 516T339 552Q419 552 481 516T579 417T616 273Q616 193 580 130T482 31T339 -5ZM339 72Q395 72 439 98T507 169T532 273Q532 331 508 377T439 449T339 475Q283
475 239 449T170 377T144 273Q144 215 169 170T239 98T339 72Z" />
<glyph unicode="p" horiz-adv-x="706" d="M133 -234Q114 -234 102 -222T90 -191V276Q91 354 127 416T226 515T366 552Q446 552 508 516T607 416T644 273Q644 194 610 131T515 32T379 -5Q315 -5 262 22T175 95V-191Q175 -210 164 -222T133 -234ZM366 72Q422 72
466 98T535 170T561 273Q561 331 536 376T466 448T366 475Q312 475 268 449T198 377T173 273Q173 216 198 170T267 98T366 72Z" />
<glyph unicode="q" horiz-adv-x="706" d="M573 -234Q554 -234 542 -222T530 -191V95Q496 50 444 23T327 -5Q251 -5 191 31T96 131T61 273Q61 353 97 416T197 515T339 552Q417 552 479 516T577 417T616 276V-191Q616 -210 604 -222T573 -234ZM339 72Q394 72 438
98T507 170T532 273Q532 331 507 376T438 448T339 475Q284 475 240 449T170 377T144 273Q144 216 170 170T240 98T339 72Z" />
<glyph unicode="r" horiz-adv-x="467" d="M128 339Q130 400 159 448T237 525T344 553Q395 553 421 538T441 497Q438 482 429 477T407 471T378 472Q320 480 274 466T201 418T174 339H128ZM132 0Q112 0 101 11T90 42V505Q90 525 101 536T132 547Q152 547 163 536T174
505V42Q174 22 163 11T132 0Z" />
<glyph unicode="s" horiz-adv-x="540" d="M284 -5Q221 -5 163 15T69 74Q57 87 59 104T75 133Q91 145 107 143T136 128Q157 103 196 88T282 72Q351 72 383 95T416 153Q417 187 385 210T274 246Q173 263 127 303T80 399Q80 450 108 484T181 535T280 552Q347 552
396 530T475 469Q487 455 485 440T469 414Q455 406 438 409T408 425Q383 452 351 464T278 476Q227 476 195 456T162 404Q162 382 173 366T215 338T299 315Q374 302 417 279T480 225T499 155Q499 109 473 73T398 16T284 -5Z" />
<glyph unicode="t" horiz-adv-x="402" d="M299 0Q247 0 206 25T142 94T118 193V678Q118 697 129 709T160 721Q178 721 190 709T202 678V193Q202 146 229 116T299 85H328Q345 85 356 73T367 42Q367 23 354 12T319 0H299ZM59 454Q42 454 31 464T20 490Q20 506 31
516T59 527H306Q323 527 334 517T345 490Q345 474 334 464T306 454H59Z" />
<glyph unicode="u" horiz-adv-x="679" d="M325 -6Q255 -6 200 23T112 110T80 250V505Q80 523 92 535T122 547Q141 547 153 535T165 505V250Q165 190 187 151T249 93T337 74Q384 74 421 92T481 142T503 214H561Q559 151 528 102T444 23T325 -6ZM546 0Q527 0 515
12T503 43V505Q503 524 515 535T546 547Q565 547 577 536T589 505V43Q589 24 577 12T546 0Z" />
<glyph unicode="v" horiz-adv-x="551" d="M276 0Q250 0 236 29L18 492Q11 506 16 520T38 542Q53 550 67 545T90 525L298 75H255L460 525Q467 540 483 545T514 543Q530 535 535 521T534 492L317 29Q304 0 276 0Z" />
<glyph unicode="w" horiz-adv-x="736" d="M215 0Q201 0 190 8T174 28L21 488Q14 515 21 531T53 547Q68 547 78 539T95 512L230 98H204L329 514Q334 529 344 538T371 547Q388 547 398 538T413 514L527 112H511L641 512Q652 547 683 547Q707 547 715 530T715 488L562
28Q558 16 548 8T522 0Q508 0 497 8T482 28L363 433H375L255 28Q251 15 240 8T215 0Z" />
<glyph unicode="x" horiz-adv-x="551" d="M473 0Q461 0 453 3T437 17L264 234L232 263L58 479Q46 493 46 508T55 535T84 547Q103 547 116 533L285 322L312 299L498 66Q512 49 511 34T498 10T473 0ZM81 0Q64 0 54 11T44 37T55 67L234 291L281 228L111 13Q100 0
81 0ZM320 259L264 312L433 529Q440 539 449 543T467 547Q486 547 495 536T505 508T493 477L320 259Z" />
<glyph unicode="y" horiz-adv-x="545" d="M185 -239Q177 -239 165 -234Q128 -217 145 -181L462 523Q478 559 515 543Q552 528 536 491L218 -213Q207 -239 185 -239ZM299 19Q282 11 268 16T245 38L20 491Q12 507 18 521T40 544Q57 551 71 546T93 524L312 71Q321
55 318 41T299 19Z" />
<glyph unicode="z" horiz-adv-x="546" d="M137 24L73 66L434 531L491 482L137 24ZM104 0Q65 0 65 39Q65 78 104 78H465Q504 78 504 39Q504 0 465 0H104ZM98 469Q59 469 59 508Q59 547 98 547H459Q498 547 498 508Q498 469 459 469H98Z" />
<glyph unicode="{" horiz-adv-x="382" d="M321 -234Q163 -234 163 -76V158Q163 231 90 231Q72 231 60 243T47 273Q47 292 59 304T90 316Q163 316 163 389V623Q163 782 321 782Q339 782 351 769T363 738Q363 720 351 708T321 696Q248 696 248 623V389Q248 352 239
324T212 273Q248 231 248 158V-76Q248 -148 321 -148Q339 -148 351 -160T363 -191Q363 -210 351 -222T321 -234Z" />
<glyph unicode="|" horiz-adv-x="391" d="M196 -234Q178 -234 166 -222T153 -191V739Q153 757 165 769T196 782Q215 782 227 770T239 739V-191Q239 -210 227 -222T196 -234Z" />
<glyph unicode="}" horiz-adv-x="382" d="M61 -234Q43 -234 31 -222T19 -191Q19 -173 31 -161T61 -148Q134 -148 134 -76V158Q134 231 171 273Q153 295 144 323T134 389V623Q134 696 61 696Q43 696 31 708T19 738Q19 756 31 769T61 782Q219 782 219 623V389Q219
316 292 316Q310 316 322 304T335 273Q335 255 323 243T292 231Q219 231 219 158V-76Q219 -234 61 -234Z" />
<glyph unicode="~" horiz-adv-x="469" d="M329 305Q297 305 273 316T231 338Q209 350 195 355T169 361Q152 361 138 354T109 328Q99 314 84 309T54 312Q40 319 38 335T45 365Q69 397 102 414T172 432Q204 432 227 421T267 401Q287 388 300 383T328 377Q343 377
354 382T374 396Q386 408 398 413T425 409Q439 401 441 385T433 354Q394 305 329 305Z" />
<glyph unicode="&#xa0;" horiz-adv-x="293" />
<glyph unicode="&#xa1;" horiz-adv-x="273" d="M162 368Q144 368 132 356T119 325V-190Q119 -208 131 -221T162 -234Q180 -234 192 -221T205 -190V325Q205 343 192 355T162 368ZM162 548Q136 548 118 530T100 486Q100 460 118 442T162 424Q187 424 205 442T223
486Q223 512 205 530T162 548Z" />
<glyph unicode="&#xa2;" horiz-adv-x="598" d="M183 -97Q168 -97 159 -85T157 -54L414 629Q422 650 443 650Q460 650 467 638T470 611L213 -74Q204 -97 183 -97ZM335 -5Q256 -5 194 31T97 131T61 273Q61 353 95 416T189 515T327 552Q387 552 438 529T528 458Q540
444 537 430T518 404Q506 395 491 398T465 414Q410 475 327 475Q273 475 232 449T167 378T144 273Q144 215 168 170T235 98T335 72Q373 72 403 82T458 112Q471 123 485 124T512 116Q525 104 527 89T517 62Q444 -5 335 -5Z" />
<glyph unicode="&#xa3;" horiz-adv-x="508" d="M121 0Q101 0 90 12T78 43Q78 53 80 60Q108 124 121 186T135 308H82Q63 308 51 321T39 352Q39 370 51 382T82 395H127Q111 438 100 469T84 527T78 583Q78 638 104 683T176 754T276 781Q327 781 369 762T443 705Q450
697 456 687T462 666Q462 648 450 636T419 623Q400 623 391 635Q366 663 341 680T278 698Q244 698 219 682T179 640T164 580Q164 553 170 526T188 467T215 395H354Q372 395 384 383T396 352Q396 334 384 321T354 308H221Q221 255 212 200T183 87H415Q423 101 430
115T444 142Q450 152 459 158T481 164Q500 164 512 151T524 120Q524 109 520 100L482 26Q476 13 466 7T443 0H121Z" />
<glyph unicode="&#xa4;" horiz-adv-x="511" d="M95 153Q73 153 59 167T45 204Q45 224 60 239L97 273Q73 316 73 363T96 453L60 490Q45 505 45 526Q45 547 59 561T95 576Q114 576 129 563L165 524Q209 550 257 549T344 526L381 562Q390 568 397 572T416 576Q438
576 452 562T466 526Q466 504 452 489L416 456Q439 415 439 367T417 277L452 239Q466 224 466 204Q466 182 452 168T417 153Q407 153 399 156T382 166L347 205Q304 181 258 181T168 203L130 167Q115 153 95 153ZM256 269Q282 269 303 282T337 317T350 364Q350 391
337 412T303 447T256 460Q230 460 209 447T174 412T161 364Q161 340 173 318T207 283T256 269Z" />
<glyph unicode="&#xa5;" horiz-adv-x="655" d="M168 288Q149 288 138 298T126 326Q126 344 137 354T168 364H488Q506 364 518 354T530 326Q530 308 518 298T488 288H168ZM168 156Q149 156 138 166T126 194Q126 212 137 222T168 232H488Q506 232 518 222T530 194Q530
176 518 166T488 156H168ZM327 0Q310 0 297 12T284 43V288L14 713Q3 730 5 745T19 771T48 781Q61 781 69 775T85 759L350 334H308L574 759Q581 770 590 775T613 781Q628 781 638 771T650 745T642 713L371 288V43Q371 25 358 13T327 0Z" />
<glyph unicode="&#xa6;" horiz-adv-x="234" d="M119 423Q100 423 88 435T76 466V811Q76 830 88 842T119 854Q137 854 149 842T162 811V466Q162 448 150 436T119 423ZM119 -234Q100 -234 88 -222T76 -191V152Q76 170 88 182T119 194Q137 194 149 182T162 152V-191Q162
-210 150 -222T119 -234Z" />
<glyph unicode="&#xa7;" horiz-adv-x="469" d="M238 -234Q183 -234 138 -207T65 -135T38 -35Q38 -17 51 -5T83 8Q101 8 113 -4T125 -35Q125 -66 140 -91T182 -132T238 -147Q267 -147 293 -132T334 -92T350 -35Q350 -6 335 19T294 60T238 75Q183 75 138 102T66
174T38 273Q38 318 57 357T113 429Q74 462 56 500T38 583Q38 638 65 682T137 754T238 781Q292 781 337 754T410 683T437 583Q437 565 425 553T394 540Q375 540 363 552T350 583Q350 614 335 639T293 680T238 695Q208 695 182 680T141 640T125 583Q125 553 140 528T181
487T238 472Q292 472 337 445T410 373T437 273Q437 229 418 189T362 119Q399 88 418 49T437 -35Q437 -90 410 -135T338 -207T238 -234ZM238 163Q268 163 293 177T334 217T350 273Q350 305 335 330T294 370T238 385Q207 385 182 370T141 330T125 273Q125 243 140
218T181 178T238 163Z" />
<glyph unicode="&#xa8;" horiz-adv-x="469" d="M135 619Q111 619 95 635T78 676Q78 699 94 716T135 733Q158 733 175 716T192 676Q192 652 175 636T135 619ZM348 619Q325 619 309 635T292 676Q292 699 308 716T348 733Q372 733 388 716T405 676Q405 652 389 636T348 619Z" />
<glyph unicode="&#xa9;" horiz-adv-x="859" d="M441 144Q373 144 319 176T233 265T202 393Q202 465 231 521T313 609T434 642Q541 642 610 558Q621 544 619 529T600 504Q588 496 574 498T549 513Q503 565 434 565Q389 565 355 543T301 483T282 393Q282 342 302
304T358 243T441 221Q504 221 543 255Q556 266 570 267T595 259Q609 246 610 231T600 204Q536 144 441 144ZM436 0Q354 0 283 30T159 113T75 238T45 392Q45 472 75 542T159 667T284 751T436 782Q516 782 587 752T711 668T796 543T827 392Q827 309 797 238T712 114T588
30T436 0ZM435 72Q502 72 560 97T661 166T730 268T755 392Q755 458 730 515T661 617T559 687T435 712Q369 712 311 687T209 618T140 516T115 392Q115 326 140 268T208 166T310 97T435 72Z" />
<glyph unicode="&#xaa;" horiz-adv-x="477" d="M237 395Q181 395 136 421T66 491T40 593Q40 649 65 693T136 763T237 789Q293 789 338 764T408 694T434 592L392 504Q372 457 333 426T237 395ZM237 478Q286 478 319 510T352 592Q352 642 319 674T237 707Q188 707
155 675T122 592Q122 543 155 511T237 478ZM394 392Q375 392 365 404T355 435L367 592H434V435Q434 416 423 404T394 392Z" />
<glyph unicode="&#xab;" horiz-adv-x="469" d="M391 0Q379 0 369 6T352 26L239 250Q233 261 233 273Q233 283 238 294L352 520Q363 546 391 546Q410 546 422 534T434 504Q434 494 430 485L324 273L430 61Q434 53 434 43Q434 25 422 13T391 0ZM196 0Q184 0 174
6T157 26L45 250Q42 257 40 262T38 273Q38 283 44 294L157 520Q170 546 196 546Q215 546 227 534T239 504Q239 493 236 485L130 273L236 61Q239 54 239 43Q239 25 227 13T196 0Z" />
<glyph unicode="&#xac;" horiz-adv-x="547" d="M465 307Q448 307 436 319T423 351V461H82Q63 461 51 473T39 504Q39 522 51 534T82 547H465Q484 547 496 535T508 504V351Q508 332 496 320T465 307Z" />
<glyph unicode="&#xad;" horiz-adv-x="391" d="M80 231Q62 231 50 243T37 273Q37 292 49 304T80 316H311Q329 316 341 304T353 273Q353 255 341 243T311 231H80Z" />
<glyph unicode="&#xae;" horiz-adv-x="859" d="M324 159Q308 159 298 169T288 194V607Q288 623 299 632T326 642H434Q482 642 519 623T578 570T600 492Q600 448 578 414T518 360T434 341H359V194Q359 179 350 169T324 159ZM575 159Q554 159 543 176L428 364L496
385L601 212Q614 192 607 176T575 159ZM359 405H438Q478 405 503 427T529 492Q529 533 504 555T438 578H359V405ZM436 0Q354 0 283 30T159 113T75 238T45 392Q45 472 75 542T159 667T284 751T436 782Q516 782 587 752T711 668T796 543T827 392Q827 309 797 238T712
114T588 30T436 0ZM435 72Q502 72 560 97T661 166T730 268T755 392Q755 458 730 515T661 617T559 687T435 712Q369 712 311 687T209 618T140 516T115 392Q115 326 140 268T208 166T310 97T435 72Z" />
<glyph unicode="&#xaf;" horiz-adv-x="547" d="M146 641Q127 641 115 651T103 680Q103 699 115 709T146 719H402Q420 719 432 709T445 680Q445 662 433 652T402 641H146Z" />
<glyph unicode="&#xb0;" horiz-adv-x="469" d="M235 384Q180 384 136 411T65 482T38 581Q38 635 65 679T136 751T235 778Q289 778 333 751T405 680T432 581Q432 527 405 483T334 411T235 384ZM235 470Q265 470 290 485T331 525T346 581Q346 611 331 636T290 677T235
692Q205 692 180 677T139 637T124 581Q124 550 139 525T179 485T235 470Z" />
<glyph unicode="&#xb1;" horiz-adv-x="547" d="M273 153Q255 153 243 165T230 196V346H82Q63 346 51 358T39 389Q39 407 51 419T82 432H230V581Q230 599 243 611T273 624Q292 624 304 612T316 581V432H465Q483 432 495 420T508 389Q508 370 496 358T465 346H316V196Q316
178 304 166T273 153ZM82 0Q63 0 51 12T39 43Q39 61 51 73T82 86H466Q484 86 496 74T508 43Q508 24 496 12T466 0H82Z" />
<glyph unicode="&#xb2;" horiz-adv-x="369" d="M89 386Q71 386 60 397T49 425Q49 433 51 440T59 453L216 619Q229 633 234 645T240 671Q240 694 223 710T179 727Q146 727 127 708T107 663Q107 646 100 635T74 624Q59 624 51 635T42 663Q42 719 80 756T180 793Q239
793 274 758T310 670Q310 637 292 613T255 570L113 422L106 457H284Q301 457 312 449T324 422Q324 404 313 395T284 386H89Z" />
<glyph unicode="&#xb3;" horiz-adv-x="372" d="M187 377Q125 377 85 412T45 501Q45 518 55 529T83 540Q99 540 107 529T116 501Q116 477 135 461T185 444Q211 444 230 459T250 499Q250 526 235 543T196 560Q176 560 165 569T153 593Q153 628 191 628Q215 628 228
640T241 675Q241 697 225 710T183 724Q154 724 137 711T116 679Q114 666 106 657T86 647Q70 647 60 656T49 682Q49 713 67 738T115 778T183 793Q237 793 273 761T309 680Q309 653 293 630T250 594Q285 584 304 558T323 497Q323 462 305 435T257 393T187 377Z" />
<glyph unicode="&#xb4;" horiz-adv-x="273" d="M91 589Q72 589 60 601T48 632Q48 649 58 661L166 769Q178 781 196 781Q215 781 227 769T239 737Q239 719 227 708L120 600Q108 589 91 589Z" />
<glyph unicode="&#xb5;" horiz-adv-x="679" d="M337 -6Q271 -6 222 28T146 120T119 250H80V505Q80 524 91 535T122 547Q141 547 153 536T165 505V250Q165 198 187 159T248 97T337 74Q386 74 423 91T482 141T503 214L551 212Q550 149 521 100T444 22T337 -6ZM122
-234Q103 -234 92 -222T80 -191V289H165V-191Q165 -210 153 -222T122 -234ZM546 0Q527 0 515 12T503 43V505Q503 524 515 535T546 547Q565 547 577 536T589 505V43Q589 24 577 12T546 0Z" />
<glyph unicode="&#xb6;" horiz-adv-x="578" d="M280 0Q261 0 249 12T237 43V388Q181 390 138 416T70 487T45 584Q45 639 71 684T141 755T241 782H490Q508 782 520 770T533 738Q533 723 522 711T495 697V43Q495 24 483 12T452 0Q433 0 421 12T409 43V696H323V43Q323
24 311 12T280 0Z" />
<glyph unicode="&#xb7;" horiz-adv-x="195" d="M97 308Q71 308 53 325T34 370Q34 396 52 414T97 432Q122 432 140 414T158 369Q158 344 140 326T97 308Z" />
<glyph unicode="&#xb8;" horiz-adv-x="313" d="M155 -233Q99 -233 64 -210T28 -156Q28 -139 40 -127T68 -115Q80 -115 88 -120T103 -138Q110 -151 123 -158T156 -165Q177 -165 192 -156T207 -128Q207 -110 196 -99T157 -82Q131 -76 120 -64T119 -22L133 14Q145
48 182 48Q203 48 213 34T215 0L200 -36Q252 -48 273 -71T295 -129Q295 -157 277 -180T228 -218T155 -233Z" />
<glyph unicode="&#xb9;" horiz-adv-x="283" d="M181 386Q162 386 153 398T144 429V694L93 677Q70 670 52 671T27 690Q20 707 29 720T55 738L164 776Q191 785 204 775T218 737V429Q218 410 209 398T181 386Z" />
<glyph unicode="&#xba;" horiz-adv-x="474" d="M237 395Q181 395 136 421T66 491T40 593Q40 649 65 693T136 763T237 789Q293 789 338 764T408 694T434 592Q434 536 409 492T338 421T237 395ZM237 478Q286 478 319 510T352 592Q352 642 319 674T237 707Q188 707
155 675T122 592Q122 543 155 511T237 478Z" />
<glyph unicode="&#xbb;" horiz-adv-x="469" d="M276 0Q258 0 246 12T233 43Q233 53 237 61L343 273L237 485Q236 490 235 494T233 504Q233 522 245 534T276 546Q304 546 316 520L429 294Q431 288 432 283T434 273Q434 268 433 263T428 250L316 26Q309 13 299 7T276
0ZM81 0Q64 0 52 12T39 43Q39 53 43 61L148 273L43 485Q42 490 40 494T38 504Q38 522 51 534T81 546Q109 546 121 520L234 294Q236 288 237 283T239 273Q239 262 233 250L121 26Q115 13 105 7T81 0Z" />
<glyph unicode="&#xbc;" horiz-adv-x="774" d="M181 386Q162 386 153 398T144 429V694L93 677Q70 670 52 671T27 690Q20 707 29 720T55 738L164 776Q191 785 204 775T218 737V429Q218 410 209 398T181 386ZM146 0Q127 0 118 16T120 50L583 763Q591 775 600 780T619
785Q639 785 648 768T643 727L179 22Q165 0 146 0ZM627 -6Q610 -6 601 3T591 27V84H430Q413 84 403 93T393 117Q393 131 405 147L589 386Q597 395 606 399T625 404Q640 404 651 395T663 370V148H697Q711 148 720 139T730 116Q730 100 721 92T697 84H663V27Q663
12 654 3T627 -6ZM481 148H593V296L481 148Z" />
<glyph unicode="&#xbd;" horiz-adv-x="836" d="M181 386Q162 386 153 398T144 429V694L93 677Q70 670 52 671T27 690Q20 707 29 720T55 738L164 776Q191 785 204 775T218 737V429Q218 410 209 398T181 386ZM182 0Q163 0 154 16T156 50L619 763Q627 775 636 780T655
785Q675 785 684 768T679 727L215 22Q201 0 182 0ZM561 0Q543 0 532 11T521 39Q521 47 523 54T531 67L688 233Q701 247 706 259T712 285Q712 308 695 324T651 341Q618 341 599 322T579 277Q579 260 572 249T546 238Q531 238 523 249T514 277Q514 333 552 370T652
407Q711 407 746 372T782 284Q782 251 764 227T727 184L585 36L578 71H756Q773 71 784 63T796 36Q796 18 785 9T756 0H561Z" />
<glyph unicode="&#xbe;" horiz-adv-x="846" d="M187 377Q125 377 85 412T45 501Q45 518 55 529T83 540Q99 540 107 529T116 501Q116 477 135 461T185 444Q211 444 230 459T250 499Q250 526 235 543T196 560Q176 560 165 569T153 593Q153 628 191 628Q215 628 228
640T241 675Q241 697 225 710T183 724Q154 724 137 711T116 679Q114 666 106 657T86 647Q70 647 60 656T49 682Q49 713 67 738T115 778T183 793Q237 793 273 761T309 680Q309 653 293 630T250 594Q285 584 304 558T323 497Q323 462 305 435T257 393T187 377ZM193
0Q174 0 165 16T167 50L630 763Q638 775 647 780T666 785Q686 785 695 768T690 727L226 22Q212 0 193 0ZM694 -6Q677 -6 668 3T658 27V84H497Q480 84 470 93T460 117Q460 131 472 147L656 386Q664 395 673 399T692 404Q707 404 718 395T730 370V148H764Q778 148
787 139T797 116Q797 100 788 92T764 84H730V27Q730 12 721 3T694 -6ZM548 148H660V296L548 148Z" />
<glyph unicode="&#xbf;" horiz-adv-x="547" d="M271 441Q289 441 301 429T314 398Q314 358 294 312T237 232Q207 204 181 179T138 121T121 40Q121 4 138 -27T188 -76T265 -95Q314 -95 349 -76T402 -22T420 59Q420 78 431 89T462 101Q481 101 493 90T505 59Q505
-10 475 -63T391 -146T265 -176Q199 -176 148 -148T66 -71T36 43Q36 99 55 138T107 210T178 278Q208 304 218 338T228 398Q228 417 240 429T271 441ZM271 621Q297 621 314 603T332 559Q332 533 314 515T271 497Q245 497 227 515T208 559Q208 585 226 603T271 621Z"
/>
<glyph unicode="&#xc0;" horiz-adv-x="703" d="M61 0Q36 0 25 20T22 62L312 751Q324 781 354 781Q383 781 395 751L685 61Q695 39 683 20T646 0Q633 0 623 7T606 27L340 677H370L101 27Q95 13 85 7T61 0ZM123 181L156 255H557L591 181H123ZM350 869Q333 869 321
881L213 988Q202 1000 202 1018Q202 1036 214 1049T244 1062Q262 1062 275 1049L382 941Q393 931 393 913Q393 894 381 882T350 869Z" />
<glyph unicode="&#xc1;" horiz-adv-x="703" d="M61 0Q36 0 25 20T22 62L312 751Q324 781 354 781Q383 781 395 751L685 61Q695 39 683 20T646 0Q633 0 623 7T606 27L340 677H370L101 27Q95 13 85 7T61 0ZM123 181L156 255H557L591 181H123ZM349 865Q331 865 319
877T306 908Q306 926 316 937L424 1045Q436 1057 454 1057Q473 1057 485 1045T497 1013Q497 1005 494 998T485 984L378 876Q366 865 349 865Z" />
<glyph unicode="&#xc2;" horiz-adv-x="703" d="M61 0Q36 0 25 20T22 62L312 751Q324 781 354 781Q383 781 395 751L685 61Q695 39 683 20T646 0Q633 0 623 7T606 27L340 677H370L101 27Q95 13 85 7T61 0ZM123 181L156 255H557L591 181H123ZM238 862Q219 862 207
872T194 899Q194 921 215 936L331 1012Q340 1018 352 1018Q359 1018 364 1017T374 1012L489 936Q510 921 510 899Q510 883 498 873T467 862Q459 862 453 864T440 871L352 932L264 871Q252 862 238 862Z" />
<glyph unicode="&#xc3;" horiz-adv-x="703" d="M61 0Q36 0 25 20T22 62L312 751Q324 781 354 781Q383 781 395 751L685 61Q695 39 683 20T646 0Q633 0 623 7T606 27L340 677H370L101 27Q95 13 85 7T61 0ZM123 181L156 255H557L591 181H123ZM418 871Q393 871 373
882T337 910Q324 923 315 929T295 936Q283 936 275 927T259 902Q251 888 238 883T209 883Q194 889 189 903T192 932Q211 971 235 988T289 1006Q320 1006 338 992T371 966Q386 953 394 949T410 944Q423 944 434 965Q442 979 456 985T484 987Q501 980 506 966T504
936Q486 901 465 886T418 871Z" />
<glyph unicode="&#xc4;" horiz-adv-x="703" d="M61 0Q36 0 25 20T22 62L312 751Q324 781 354 781Q383 781 395 751L685 61Q695 39 683 20T646 0Q633 0 623 7T606 27L340 677H370L101 27Q95 13 85 7T61 0ZM123 181L156 255H557L591 181H123ZM246 876Q221 876 205
892T189 932Q189 955 205 972T246 989Q269 989 285 972T302 932Q302 908 286 892T246 876ZM459 876Q435 876 419 892T402 932Q402 955 418 972T459 989Q482 989 499 972T516 932Q516 908 499 892T459 876Z" />
<glyph unicode="&#xc5;" horiz-adv-x="703" d="M61 0Q36 0 25 20T22 62L312 751Q324 781 354 781Q383 781 395 751L685 61Q695 39 683 20T646 0Q633 0 623 7T606 27L340 677H370L101 27Q95 13 85 7T61 0ZM123 181L156 255H557L591 181H123ZM352 825Q309 825 280
853T251 926Q251 969 280 998T352 1027Q395 1027 424 998T453 926Q453 883 425 854T352 825ZM352 873Q375 873 389 888T404 926Q404 949 390 963T352 978Q330 978 315 964T300 926Q300 904 315 889T352 873Z" />
<glyph unicode="&#xc6;" horiz-adv-x="974" d="M63 0Q46 0 35 10T20 34T24 62L444 750Q453 765 465 773T497 781H886Q905 781 917 770T929 739Q929 722 917 711T886 699H530V434H771Q789 434 801 422T813 393Q813 375 801 363T771 351H530V82H886Q905 82 917 71T929
42Q929 23 917 12T886 0H486Q468 0 456 12T443 43V181H196L103 27Q89 0 63 0ZM241 255H443V634H466L241 255Z" />
<glyph unicode="&#xc7;" horiz-adv-x="773" d="M451 -10Q370 -10 300 21T176 107T93 234T63 391Q63 474 92 546T175 673T298 759T451 791Q524 791 582 771T695 704Q704 697 706 689T707 672T699 659Q698 647 688 640T665 633T639 644Q601 677 557 693T451 710Q388
710 333 685T236 616T171 514T147 391Q147 324 170 267T236 165T333 96T451 71Q504 71 552 89T643 140Q657 151 672 149T697 136T708 107Q708 99 705 92T696 76Q644 31 582 11T451 -10ZM438 -233Q382 -233 347 -210T311 -156Q311 -139 323 -127T351 -115Q363 -115
371 -120T386 -138Q394 -151 407 -158T439 -165Q461 -165 475 -156T490 -128Q490 -110 479 -99T440 -82Q414 -77 403 -64T402 -22L416 14Q422 30 433 39T465 48Q486 48 496 34T498 0L483 -36Q535 -48 556 -71T578 -129Q578 -157 560 -180T511 -218T438 -233Z" />
<glyph unicode="&#xc8;" horiz-adv-x="695" d="M143 0Q125 0 113 12T100 43V738Q100 757 112 769T143 781H607Q625 781 637 770T650 739Q650 722 638 711T607 699H187V434H491Q510 434 522 422T534 393Q534 375 522 363T491 351H187V82H607Q625 82 637 71T650
42Q650 23 638 12T607 0H143ZM382 869Q365 869 353 881L245 988Q234 1000 234 1018Q234 1036 246 1049T276 1062Q294 1062 307 1049L414 941Q425 931 425 913Q425 894 413 882T382 869Z" />
<glyph unicode="&#xc9;" horiz-adv-x="695" d="M143 0Q125 0 113 12T100 43V738Q100 757 112 769T143 781H607Q625 781 637 770T650 739Q650 722 638 711T607 699H187V434H491Q510 434 522 422T534 393Q534 375 522 363T491 351H187V82H607Q625 82 637 71T650
42Q650 23 638 12T607 0H143ZM380 865Q362 865 350 877T337 908Q337 926 347 937L455 1045Q467 1057 485 1057Q504 1057 516 1045T528 1013Q528 1005 525 998T516 984L409 876Q397 865 380 865Z" />
<glyph unicode="&#xca;" horiz-adv-x="695" d="M143 0Q125 0 113 12T100 43V738Q100 757 112 769T143 781H607Q625 781 637 770T650 739Q650 722 638 711T607 699H187V434H491Q510 434 522 422T534 393Q534 375 522 363T491 351H187V82H607Q625 82 637 71T650
42Q650 23 638 12T607 0H143ZM270 862Q251 862 239 872T226 899Q226 921 247 936L363 1012Q372 1018 384 1018Q391 1018 396 1017T406 1012L521 936Q542 921 542 899Q542 883 530 873T499 862Q491 862 485 864T472 871L384 932L296 871Q284 862 270 862Z" />
<glyph unicode="&#xcb;" horiz-adv-x="695" d="M143 0Q125 0 113 12T100 43V738Q100 757 112 769T143 781H607Q625 781 637 770T650 739Q650 722 638 711T607 699H187V434H491Q510 434 522 422T534 393Q534 375 522 363T491 351H187V82H607Q625 82 637 71T650
42Q650 23 638 12T607 0H143ZM277 876Q252 876 236 892T220 932Q220 955 236 972T277 989Q300 989 316 972T333 932Q333 908 317 892T277 876ZM490 876Q466 876 450 892T433 932Q433 955 449 972T490 989Q513 989 530 972T547 932Q547 908 530 892T490 876Z" />
<glyph unicode="&#xcc;" horiz-adv-x="287" d="M143 0Q125 0 113 12T100 43V738Q100 757 112 769T143 781Q162 781 174 769T187 738V43Q187 25 175 13T143 0ZM141 869Q124 869 112 881L4 988Q-7 1000 -7 1018Q-7 1036 5 1049T35 1062Q53 1062 66 1049L173 941Q184
931 184 913Q184 894 172 882T141 869Z" />
<glyph unicode="&#xcd;" horiz-adv-x="287" d="M143 0Q125 0 113 12T100 43V738Q100 757 112 769T143 781Q162 781 174 769T187 738V43Q187 25 175 13T143 0ZM140 865Q122 865 110 877T97 908Q97 926 107 937L215 1045Q227 1057 245 1057Q264 1057 276 1045T288
1013Q288 1005 285 998T276 984L169 876Q157 865 140 865Z" />
<glyph unicode="&#xce;" horiz-adv-x="287" d="M143 0Q125 0 113 12T100 43V738Q100 757 112 769T143 781Q162 781 174 769T187 738V43Q187 25 175 13T143 0ZM29 862Q10 862 -2 872T-15 899Q-15 921 6 936L122 1012Q131 1018 143 1018Q150 1018 155 1017T165 1012L280
936Q301 921 301 899Q301 883 289 873T258 862Q250 862 244 864T231 871L143 932L55 871Q43 862 29 862Z" />
<glyph unicode="&#xcf;" horiz-adv-x="287" d="M143 0Q125 0 113 12T100 43V738Q100 757 112 769T143 781Q162 781 174 769T187 738V43Q187 25 175 13T143 0ZM37 876Q12 876 -4 892T-20 932Q-20 955 -4 972T37 989Q60 989 76 972T93 932Q93 908 77 892T37 876ZM250
876Q226 876 210 892T193 932Q193 955 209 972T250 989Q273 989 290 972T307 932Q307 908 290 892T250 876Z" />
<glyph unicode="&#xd0;" horiz-adv-x="774" d="M41 353Q23 353 12 363T0 391Q0 409 11 419T41 429H329Q348 429 359 419T371 391Q371 373 360 363T329 353H41ZM143 0Q125 0 113 12T100 43V738Q100 757 112 769T143 781H324Q410 781 481 753T604 672T684 548T713
391Q713 305 685 234T604 110T481 29T324 0H143ZM187 77H324Q413 77 481 117T589 229T628 391Q628 482 589 553T482 664T324 704H187V77Z" />
<glyph unicode="&#xd1;" horiz-adv-x="827" d="M143 0Q124 0 112 12T100 43V738Q100 757 112 769T143 781Q163 781 176 765L640 153V738Q640 757 652 769T684 781Q702 781 714 769T727 738V43Q727 25 715 13T684 0Q675 0 666 3T651 15L186 627V43Q186 25 174 13T143
0ZM519 859Q487 859 463 870T421 892Q399 904 385 909T359 915Q342 915 328 908T299 882Q289 868 274 863T244 866Q230 873 228 889T235 919Q259 951 292 968T362 986Q394 986 417 975T457 955Q478 942 490 937T518 931Q533 931 544 936T564 950Q576 962 588 967T615
963Q629 955 631 939T623 908Q584 859 519 859Z" />
<glyph unicode="&#xd2;" horiz-adv-x="921" d="M461 -10Q374 -10 301 20T175 103T92 230T63 391Q63 478 92 551T174 677T301 761T461 791Q548 791 620 761T747 678T830 551T859 391Q859 304 830 231T747 104T621 20T461 -10ZM461 71Q529 71 586 95T686 162T751
264T775 391Q775 459 752 517T686 618T587 686T461 710Q393 710 336 686T236 619T170 517T147 391Q147 323 170 265T235 163T335 95T461 71ZM459 869Q442 869 430 881L322 988Q311 1000 311 1018Q311 1036 323 1049T353 1062Q371 1062 384 1049L491 941Q502 931
502 913Q502 894 490 882T459 869Z" />
<glyph unicode="&#xd3;" horiz-adv-x="921" d="M461 -10Q374 -10 301 20T175 103T92 230T63 391Q63 478 92 551T174 677T301 761T461 791Q548 791 620 761T747 678T830 551T859 391Q859 304 830 231T747 104T621 20T461 -10ZM461 71Q529 71 586 95T686 162T751
264T775 391Q775 459 752 517T686 618T587 686T461 710Q393 710 336 686T236 619T170 517T147 391Q147 323 170 265T235 163T335 95T461 71ZM458 865Q440 865 428 877T415 908Q415 926 425 937L533 1045Q545 1057 563 1057Q582 1057 594 1045T606 1013Q606 1005
603 998T594 984L487 876Q475 865 458 865Z" />
<glyph unicode="&#xd4;" horiz-adv-x="921" d="M461 -10Q374 -10 301 20T175 103T92 230T63 391Q63 478 92 551T174 677T301 761T461 791Q548 791 620 761T747 678T830 551T859 391Q859 304 830 231T747 104T621 20T461 -10ZM461 71Q529 71 586 95T686 162T751
264T775 391Q775 459 752 517T686 618T587 686T461 710Q393 710 336 686T236 619T170 517T147 391Q147 323 170 265T235 163T335 95T461 71ZM347 862Q328 862 316 872T303 899Q303 921 324 936L440 1012Q449 1018 461 1018Q468 1018 473 1017T483 1012L598 936Q619
921 619 899Q619 883 607 873T576 862Q568 862 562 864T549 871L461 932L373 871Q361 862 347 862Z" />
<glyph unicode="&#xd5;" horiz-adv-x="921" d="M461 -10Q374 -10 301 20T175 103T92 230T63 391Q63 478 92 551T174 677T301 761T461 791Q548 791 620 761T747 678T830 551T859 391Q859 304 830 231T747 104T621 20T461 -10ZM461 71Q529 71 586 95T686 162T751
264T775 391Q775 459 752 517T686 618T587 686T461 710Q393 710 336 686T236 619T170 517T147 391Q147 323 170 265T235 163T335 95T461 71ZM566 859Q534 859 510 870T468 892Q446 904 432 909T406 915Q389 915 375 908T346 882Q336 868 321 863T291 866Q277 873
275 889T282 919Q306 951 339 968T409 986Q441 986 464 975T504 955Q525 942 537 937T565 931Q580 931 591 936T611 950Q623 962 635 967T662 963Q676 955 678 939T670 908Q631 859 566 859Z" />
<glyph unicode="&#xd6;" horiz-adv-x="921" d="M461 -10Q374 -10 301 20T175 103T92 230T63 391Q63 478 92 551T174 677T301 761T461 791Q548 791 620 761T747 678T830 551T859 391Q859 304 830 231T747 104T621 20T461 -10ZM461 71Q529 71 586 95T686 162T751
264T775 391Q775 459 752 517T686 618T587 686T461 710Q393 710 336 686T236 619T170 517T147 391Q147 323 170 265T235 163T335 95T461 71ZM355 876Q330 876 314 892T298 932Q298 955 314 972T355 989Q378 989 394 972T411 932Q411 908 395 892T355 876ZM568 876Q544
876 528 892T511 932Q511 955 527 972T568 989Q591 989 608 972T625 932Q625 908 608 892T568 876Z" />
<glyph unicode="&#xd7;" horiz-adv-x="469" d="M81 153Q63 153 51 165T38 196Q38 215 50 227L174 351L50 474Q38 488 38 503Q38 522 50 534T81 547Q99 547 112 535L235 411L358 535Q370 547 389 547Q407 547 419 535T432 504Q432 487 420 474L296 351L420 227Q432
214 432 196Q432 178 420 166T389 153Q371 153 359 165L235 289L111 165Q99 153 81 153Z" />
<glyph unicode="&#xd8;" horiz-adv-x="896" d="M89 0Q67 0 60 19T66 51L159 144L191 168L695 672L723 693L804 773Q812 781 825 781Q844 781 854 764T848 731L767 650L741 631L232 122L204 102L110 8Q102 0 89 0ZM461 -10Q374 -10 301 20T175 103T92 230T63 391Q63
478 92 551T174 677T301 761T461 791Q548 791 620 761T747 678T830 551T859 391Q859 304 830 231T747 104T621 20T461 -10ZM461 71Q529 71 586 95T686 162T751 264T775 391Q775 459 752 517T686 618T587 686T461 710Q393 710 336 686T236 619T170 517T147 391Q147
323 170 265T235 163T335 95T461 71Z" />
<glyph unicode="&#xd9;" horiz-adv-x="828" d="M416 -16Q324 -16 252 19T140 116T100 259V738Q100 757 112 769T143 781Q162 781 174 769T187 738V259Q187 202 216 158T297 90T416 65Q482 65 533 89T612 158T641 259V738Q641 757 653 769T685 781Q704 781 716
769T728 738V259Q728 179 688 117T578 19T416 -16ZM412 869Q395 869 383 881L275 988Q264 1000 264 1018Q264 1036 276 1049T306 1062Q324 1062 337 1049L444 941Q455 931 455 913Q455 894 443 882T412 869Z" />
<glyph unicode="&#xda;" horiz-adv-x="828" d="M416 -16Q324 -16 252 19T140 116T100 259V738Q100 757 112 769T143 781Q162 781 174 769T187 738V259Q187 202 216 158T297 90T416 65Q482 65 533 89T612 158T641 259V738Q641 757 653 769T685 781Q704 781 716
769T728 738V259Q728 179 688 117T578 19T416 -16ZM411 865Q393 865 381 877T368 908Q368 926 378 937L486 1045Q498 1057 516 1057Q535 1057 547 1045T559 1013Q559 1005 556 998T547 984L440 876Q428 865 411 865Z" />
<glyph unicode="&#xdb;" horiz-adv-x="828" d="M416 -16Q324 -16 252 19T140 116T100 259V738Q100 757 112 769T143 781Q162 781 174 769T187 738V259Q187 202 216 158T297 90T416 65Q482 65 533 89T612 158T641 259V738Q641 757 653 769T685 781Q704 781 716
769T728 738V259Q728 179 688 117T578 19T416 -16ZM300 862Q281 862 269 872T256 899Q256 921 277 936L393 1012Q402 1018 414 1018Q421 1018 426 1017T436 1012L551 936Q572 921 572 899Q572 883 560 873T529 862Q521 862 515 864T502 871L414 932L326 871Q314
862 300 862Z" />
<glyph unicode="&#xdc;" horiz-adv-x="828" d="M416 -16Q324 -16 252 19T140 116T100 259V738Q100 757 112 769T143 781Q162 781 174 769T187 738V259Q187 202 216 158T297 90T416 65Q482 65 533 89T612 158T641 259V738Q641 757 653 769T685 781Q704 781 716
769T728 738V259Q728 179 688 117T578 19T416 -16ZM308 876Q283 876 267 892T251 932Q251 955 267 972T308 989Q331 989 347 972T364 932Q364 908 348 892T308 876ZM521 876Q497 876 481 892T464 932Q464 955 480 972T521 989Q544 989 561 972T578 932Q578 908
561 892T521 876Z" />
<glyph unicode="&#xdd;" horiz-adv-x="655" d="M327 0Q310 0 297 12T284 43V288L14 713Q3 730 5 745T19 771T48 781Q61 781 69 775T85 759L350 334H308L574 759Q581 770 590 775T613 781Q628 781 638 771T650 745T642 713L371 288V43Q371 25 358 13T327 0ZM325
865Q307 865 295 877T282 908Q282 926 292 937L400 1045Q412 1057 430 1057Q449 1057 461 1045T473 1013Q473 1005 470 998T461 984L354 876Q342 865 325 865Z" />
<glyph unicode="&#xde;" horiz-adv-x="616" d="M143 0Q125 0 113 12T100 43V738Q100 757 112 769T143 781Q162 781 174 769T187 738V641H343Q418 641 475 612T564 531T597 409Q597 342 565 291T475 211T343 182H187V43Q187 25 175 13T143 0ZM187 258H343Q393 258
431 277T491 331T513 409Q513 454 491 489T431 545T343 566H187V258Z" />
<glyph unicode="&#xdf;" horiz-adv-x="547" d="M90 0Q72 0 60 12T47 42V578Q47 634 75 679T150 750T260 776Q316 776 359 753T428 690T453 598Q453 563 440 539T410 495T379 458T366 415Q366 393 381 374T418 335T462 293T499 241T514 172Q514 122 490 83T421
20T319 -3Q284 -3 250 10T192 43T169 87Q169 104 178 114T206 124Q222 124 231 117T249 100T276 83T325 76Q375 76 402 101T430 172Q430 202 416 225T380 269T338 311T302 356T287 413Q287 447 300 468T331 506T361 543T375 596Q375 645 343 671T258 698Q205 698
170 664T134 574V42Q134 24 122 12T90 0Z" />
<glyph unicode="&#xe0;" horiz-adv-x="676" d="M327 -5Q251 -5 191 31T96 131T61 273Q61 353 97 416T197 515T339 552Q417 552 479 516T578 416T616 273L582 257Q582 183 549 124T458 30T327 -5ZM339 72Q394 72 438 98T507 170T532 273Q532 331 507 376T438 448T339
475Q284 475 240 449T170 377T144 273Q144 216 170 170T240 98T339 72ZM573 0Q554 0 542 11T530 42V207L549 295L616 273V42Q616 23 604 12T573 0ZM337 635Q320 635 308 647L200 754Q189 766 189 784Q189 802 201 815T231 828Q249 828 262 815L369 707Q380 697
380 679Q380 660 368 648T337 635Z" />
<glyph unicode="&#xe1;" horiz-adv-x="676" d="M327 -5Q251 -5 191 31T96 131T61 273Q61 353 97 416T197 515T339 552Q417 552 479 516T578 416T616 273L582 257Q582 183 549 124T458 30T327 -5ZM339 72Q394 72 438 98T507 170T532 273Q532 331 507 376T438 448T339
475Q284 475 240 449T170 377T144 273Q144 216 170 170T240 98T339 72ZM573 0Q554 0 542 11T530 42V207L549 295L616 273V42Q616 23 604 12T573 0ZM336 631Q318 631 306 643T293 674Q293 692 303 703L411 811Q423 823 441 823Q460 823 472 811T484 779Q484 771
481 764T472 750L365 642Q353 631 336 631Z" />
<glyph unicode="&#xe2;" horiz-adv-x="676" d="M327 -5Q251 -5 191 31T96 131T61 273Q61 353 97 416T197 515T339 552Q417 552 479 516T578 416T616 273L582 257Q582 183 549 124T458 30T327 -5ZM339 72Q394 72 438 98T507 170T532 273Q532 331 507 376T438 448T339
475Q284 475 240 449T170 377T144 273Q144 216 170 170T240 98T339 72ZM573 0Q554 0 542 11T530 42V207L549 295L616 273V42Q616 23 604 12T573 0ZM225 628Q206 628 194 638T181 665Q181 687 202 702L318 778Q327 784 339 784Q346 784 351 783T361 778L476 702Q497
687 497 665Q497 649 485 639T454 628Q446 628 440 630T427 637L339 698L251 637Q239 628 225 628Z" />
<glyph unicode="&#xe3;" horiz-adv-x="676" d="M327 -5Q251 -5 191 31T96 131T61 273Q61 353 97 416T197 515T339 552Q417 552 479 516T578 416T616 273L582 257Q582 183 549 124T458 30T327 -5ZM339 72Q394 72 438 98T507 170T532 273Q532 331 507 376T438 448T339
475Q284 475 240 449T170 377T144 273Q144 216 170 170T240 98T339 72ZM573 0Q554 0 542 11T530 42V207L549 295L616 273V42Q616 23 604 12T573 0ZM445 625Q413 625 389 636T347 658Q325 670 311 675T285 681Q268 681 254 674T225 648Q215 634 200 629T170 632Q156
639 154 655T161 685Q185 717 218 734T288 752Q320 752 343 741T383 721Q404 708 416 703T444 697Q459 697 470 702T490 716Q502 728 514 733T541 729Q555 721 557 705T549 674Q510 625 445 625Z" />
<glyph unicode="&#xe4;" horiz-adv-x="676" d="M327 -5Q251 -5 191 31T96 131T61 273Q61 353 97 416T197 515T339 552Q417 552 479 516T578 416T616 273L582 257Q582 183 549 124T458 30T327 -5ZM339 72Q394 72 438 98T507 170T532 273Q532 331 507 376T438 448T339
475Q284 475 240 449T170 377T144 273Q144 216 170 170T240 98T339 72ZM573 0Q554 0 542 11T530 42V207L549 295L616 273V42Q616 23 604 12T573 0ZM233 642Q208 642 192 658T176 698Q176 721 192 738T233 755Q256 755 272 738T289 698Q289 674 273 658T233 642ZM446
642Q422 642 406 658T389 698Q389 721 405 738T446 755Q469 755 486 738T503 698Q503 674 486 658T446 642Z" />
<glyph unicode="&#xe5;" horiz-adv-x="676" d="M327 -5Q251 -5 191 31T96 131T61 273Q61 353 97 416T197 515T339 552Q417 552 479 516T578 416T616 273L582 257Q582 183 549 124T458 30T327 -5ZM339 72Q394 72 438 98T507 170T532 273Q532 331 507 376T438 448T339
475Q284 475 240 449T170 377T144 273Q144 216 170 170T240 98T339 72ZM573 0Q554 0 542 11T530 42V207L549 295L616 273V42Q616 23 604 12T573 0ZM339 591Q296 591 267 619T238 692Q238 735 267 764T339 793Q382 793 411 764T440 692Q440 649 412 620T339 591ZM339
639Q362 639 376 654T391 692Q391 715 377 729T339 744Q317 744 302 730T287 692Q287 670 302 655T339 639Z" />
<glyph unicode="&#xe6;" horiz-adv-x="1090" d="M815 -5Q736 -5 676 30T580 129T545 273Q545 355 578 417T668 516T800 552Q877 552 933 518T1019 422T1050 283Q1050 266 1039 256T1011 245H593V314H1015L974 284Q973 339 952 383T893 452T800 477Q743 477 701
451T636 378T613 273Q613 214 639 169T710 97T815 70Q853 70 886 82T941 112Q953 122 968 123T995 114Q1009 100 1009 85T997 59Q963 32 913 14T815 -5ZM327 -5Q251 -5 191 31T96 131T61 273Q61 353 97 416T197 515T339 552Q417 552 479 516T578 416T616 273L582
257Q582 183 549 124T458 30T327 -5ZM339 72Q394 72 438 98T507 170T532 273Q532 331 507 376T438 448T339 475Q284 475 240 449T170 377T144 273Q144 216 170 170T240 98T339 72ZM573 0Q554 0 542 11T530 42V207L549 295L616 273V42Q616 23 604 12T573 0Z" />
<glyph unicode="&#xe7;" horiz-adv-x="598" d="M335 -5Q256 -5 194 31T97 131T61 273Q61 353 95 416T189 515T327 552Q387 552 438 529T528 458Q540 444 537 430T518 404Q506 395 491 398T465 414Q410 475 327 475Q273 475 232 449T167 378T144 273Q144 215 168
170T235 98T335 72Q373 72 403 82T458 112Q471 123 485 124T512 116Q525 104 527 89T517 62Q444 -5 335 -5ZM313 -233Q257 -233 222 -210T186 -156Q186 -139 198 -127T226 -115Q238 -115 246 -120T261 -138Q269 -151 282 -158T314 -165Q336 -165 350 -156T365 -128Q365
-110 354 -99T315 -82Q289 -77 278 -64T277 -22L291 14Q297 30 308 39T340 48Q361 48 371 34T373 0L358 -36Q410 -48 431 -71T453 -129Q453 -157 435 -180T386 -218T313 -233Z" />
<glyph unicode="&#xe8;" horiz-adv-x="616" d="M341 -5Q259 -5 196 30T97 129T61 273Q61 355 95 417T188 516T326 552Q403 552 459 518T545 422T576 283Q576 266 565 256T537 245H119V314H541L499 284Q499 339 478 383T419 452T326 477Q269 477 227 451T162 378T139
273Q139 214 165 169T236 97T341 70Q375 70 410 82T467 112Q479 122 494 122T521 114Q535 101 535 86T523 59Q489 31 439 13T341 -5ZM317 635Q300 635 288 647L180 754Q169 766 169 784Q169 802 181 815T211 828Q229 828 242 815L349 707Q360 697 360 679Q360 660
348 648T317 635Z" />
<glyph unicode="&#xe9;" horiz-adv-x="616" d="M341 -5Q259 -5 196 30T97 129T61 273Q61 355 95 417T188 516T326 552Q403 552 459 518T545 422T576 283Q576 266 565 256T537 245H119V314H541L499 284Q499 339 478 383T419 452T326 477Q269 477 227 451T162 378T139
273Q139 214 165 169T236 97T341 70Q375 70 410 82T467 112Q479 122 494 122T521 114Q535 101 535 86T523 59Q489 31 439 13T341 -5ZM316 631Q298 631 286 643T273 674Q273 692 283 703L391 811Q403 823 421 823Q440 823 452 811T464 779Q464 771 461 764T452 750L345
642Q333 631 316 631Z" />
<glyph unicode="&#xea;" horiz-adv-x="616" d="M341 -5Q259 -5 196 30T97 129T61 273Q61 355 95 417T188 516T326 552Q403 552 459 518T545 422T576 283Q576 266 565 256T537 245H119V314H541L499 284Q499 339 478 383T419 452T326 477Q269 477 227 451T162 378T139
273Q139 214 165 169T236 97T341 70Q375 70 410 82T467 112Q479 122 494 122T521 114Q535 101 535 86T523 59Q489 31 439 13T341 -5ZM205 628Q186 628 174 638T161 665Q161 687 182 702L298 778Q307 784 319 784Q326 784 331 783T341 778L456 702Q477 687 477 665Q477
649 465 639T434 628Q426 628 420 630T407 637L319 698L231 637Q219 628 205 628Z" />
<glyph unicode="&#xeb;" horiz-adv-x="616" d="M341 -5Q259 -5 196 30T97 129T61 273Q61 355 95 417T188 516T326 552Q403 552 459 518T545 422T576 283Q576 266 565 256T537 245H119V314H541L499 284Q499 339 478 383T419 452T326 477Q269 477 227 451T162 378T139
273Q139 214 165 169T236 97T341 70Q375 70 410 82T467 112Q479 122 494 122T521 114Q535 101 535 86T523 59Q489 31 439 13T341 -5ZM213 642Q188 642 172 658T156 698Q156 721 172 738T213 755Q236 755 252 738T269 698Q269 674 253 658T213 642ZM426 642Q402
642 386 658T369 698Q369 721 385 738T426 755Q449 755 466 738T483 698Q483 674 466 658T426 642Z" />
<glyph unicode="&#xec;" horiz-adv-x="293" d="M147 0Q128 0 116 12T104 43V504Q104 524 116 535T147 547Q166 547 177 536T189 504V43Q189 24 178 12T147 0ZM401 635Q384 635 372 647L264 754Q253 766 253 784Q253 802 265 815T295 828Q313 828 326 815L433 707Q444
697 444 679Q444 660 432 648T401 635Z" />
<glyph unicode="&#xed;" horiz-adv-x="293" d="M147 0Q128 0 116 12T104 43V504Q104 524 116 535T147 547Q166 547 177 536T189 504V43Q189 24 178 12T147 0ZM143 631Q125 631 113 643T100 674Q100 692 110 703L218 811Q230 823 248 823Q267 823 279 811T291 779Q291
771 288 764T279 750L172 642Q160 631 143 631Z" />
<glyph unicode="&#xee;" horiz-adv-x="293" d="M147 0Q128 0 116 12T104 43V504Q104 524 116 535T147 547Q166 547 177 536T189 504V43Q189 24 178 12T147 0ZM300 628Q283 628 272 638T261 665Q261 687 279 702L384 778Q392 784 403 784Q409 784 413 783T423 778L526
702Q545 687 545 665Q545 649 534 639T506 628Q499 628 494 630T482 637L403 698L324 637Q313 628 300 628Z" />
<glyph unicode="&#xef;" horiz-adv-x="293" d="M50 667Q26 667 9 683T-8 724Q-8 747 9 763T50 780Q73 780 90 764T107 724Q107 700 90 684T50 667ZM243 667Q220 667 204 683T187 724Q187 747 203 763T243 780Q267 780 283 764T300 724Q300 700 284 684T243 667ZM147
0Q128 0 116 12T104 43V504Q104 524 116 535T147 547Q166 547 177 536T189 504V43Q189 24 178 12T147 0Z" />
<glyph unicode="&#xf0;" horiz-adv-x="669" d="M327 -5Q249 -5 189 28T95 121T61 257Q61 333 93 391T183 483T315 516Q386 516 440 484T524 397T555 269H599Q599 189 564 127T468 30T327 -5ZM327 72Q383 72 425 95T492 160T516 257Q516 310 492 351T426 416T327
439Q274 439 233 416T168 352T144 257Q144 202 167 161T232 96T327 72ZM534 267L533 349Q532 431 517 490T466 591T372 665T228 725Q207 732 198 744T194 772Q200 789 215 791T248 788Q347 753 414 714T522 624T581 509T599 359V267H534ZM254 608Q242 613 238 622T242
645L334 821Q340 834 350 836T372 832Q385 824 388 814T386 794L294 618Q288 607 277 604T254 608Z" />
<glyph unicode="&#xf1;" horiz-adv-x="679" d="M557 0Q538 0 526 12T514 42V297Q514 358 491 396T430 454T341 473Q295 473 257 455T197 406T175 333H118Q119 396 150 445T235 524T353 553Q424 553 479 524T567 437T599 297V42Q599 24 587 12T557 0ZM133 0Q114
0 102 11T90 42V504Q90 524 102 535T133 547Q152 547 163 536T175 504V42Q175 23 164 12T133 0ZM445 625Q413 625 389 636T347 658Q325 670 311 675T285 681Q268 681 254 674T225 648Q215 634 200 629T170 632Q156 639 154 655T161 685Q185 717 218 734T288 752Q320
752 343 741T383 721Q404 708 416 703T444 697Q459 697 470 702T490 716Q502 728 514 733T541 729Q555 721 557 705T549 674Q510 625 445 625Z" />
<glyph unicode="&#xf2;" horiz-adv-x="676" d="M339 -5Q258 -5 196 31T97 130T61 273Q61 354 97 417T195 516T339 552Q419 552 481 516T579 417T616 273Q616 193 580 130T482 31T339 -5ZM339 72Q395 72 439 98T507 169T532 273Q532 331 508 377T439 449T339 475Q283
475 239 449T170 377T144 273Q144 215 169 170T239 98T339 72ZM337 635Q320 635 308 647L200 754Q189 766 189 784Q189 802 201 815T231 828Q249 828 262 815L369 707Q380 697 380 679Q380 660 368 648T337 635Z" />
<glyph unicode="&#xf3;" horiz-adv-x="676" d="M339 -5Q258 -5 196 31T97 130T61 273Q61 354 97 417T195 516T339 552Q419 552 481 516T579 417T616 273Q616 193 580 130T482 31T339 -5ZM339 72Q395 72 439 98T507 169T532 273Q532 331 508 377T439 449T339 475Q283
475 239 449T170 377T144 273Q144 215 169 170T239 98T339 72ZM336 631Q318 631 306 643T293 674Q293 692 303 703L411 811Q423 823 441 823Q460 823 472 811T484 779Q484 771 481 764T472 750L365 642Q353 631 336 631Z" />
<glyph unicode="&#xf4;" horiz-adv-x="676" d="M339 -5Q258 -5 196 31T97 130T61 273Q61 354 97 417T195 516T339 552Q419 552 481 516T579 417T616 273Q616 193 580 130T482 31T339 -5ZM339 72Q395 72 439 98T507 169T532 273Q532 331 508 377T439 449T339 475Q283
475 239 449T170 377T144 273Q144 215 169 170T239 98T339 72ZM225 628Q206 628 194 638T181 665Q181 687 202 702L318 778Q327 784 339 784Q346 784 351 783T361 778L476 702Q497 687 497 665Q497 649 485 639T454 628Q446 628 440 630T427 637L339 698L251 637Q239
628 225 628Z" />
<glyph unicode="&#xf5;" horiz-adv-x="676" d="M339 -5Q258 -5 196 31T97 130T61 273Q61 354 97 417T195 516T339 552Q419 552 481 516T579 417T616 273Q616 193 580 130T482 31T339 -5ZM339 72Q395 72 439 98T507 169T532 273Q532 331 508 377T439 449T339 475Q283
475 239 449T170 377T144 273Q144 215 169 170T239 98T339 72ZM445 625Q413 625 389 636T347 658Q325 670 311 675T285 681Q268 681 254 674T225 648Q215 634 200 629T170 632Q156 639 154 655T161 685Q185 717 218 734T288 752Q320 752 343 741T383 721Q404 708
416 703T444 697Q459 697 470 702T490 716Q502 728 514 733T541 729Q555 721 557 705T549 674Q510 625 445 625Z" />
<glyph unicode="&#xf6;" horiz-adv-x="676" d="M339 -5Q258 -5 196 31T97 130T61 273Q61 354 97 417T195 516T339 552Q419 552 481 516T579 417T616 273Q616 193 580 130T482 31T339 -5ZM339 72Q395 72 439 98T507 169T532 273Q532 331 508 377T439 449T339 475Q283
475 239 449T170 377T144 273Q144 215 169 170T239 98T339 72ZM233 642Q208 642 192 658T176 698Q176 721 192 738T233 755Q256 755 272 738T289 698Q289 674 273 658T233 642ZM446 642Q422 642 406 658T389 698Q389 721 405 738T446 755Q469 755 486 738T503 698Q503
674 486 658T446 642Z" />
<glyph unicode="&#xf7;" horiz-adv-x="469" d="M81 307Q63 307 51 319T38 351Q38 369 50 381T81 393H389Q407 393 419 381T432 351Q432 332 420 320T389 307H81ZM235 153Q213 153 198 169T182 206Q182 228 197 243T234 259Q257 259 272 244T287 206Q287 185 272
169T235 153ZM235 442Q213 442 198 457T182 494Q182 517 197 532T234 547Q257 547 272 532T287 494Q287 473 272 458T235 442Z" />
<glyph unicode="&#xf8;" horiz-adv-x="703" d="M93 -20Q72 -20 64 -2T71 32L144 106L179 132L501 453L526 479L588 540Q598 550 611 550Q626 550 633 541T641 519T633 498L567 432L543 411L220 89L193 68L115 -11Q105 -20 93 -20ZM357 -8Q276 -8 214 28T115 127T79
270Q79 351 115 414T213 513T356 549Q437 549 499 513T597 414T634 270Q634 190 598 127T500 28T357 -8ZM357 69Q413 69 457 95T525 166T550 270Q550 328 526 374T457 446T357 472Q301 472 257 446T188 374T162 270Q162 212 187 167T257 95T357 69Z" />
<glyph unicode="&#xf9;" horiz-adv-x="679" d="M325 -6Q255 -6 200 23T112 110T80 250V505Q80 523 92 535T122 547Q141 547 153 535T165 505V250Q165 190 187 151T249 93T337 74Q384 74 421 92T481 142T503 214H561Q559 151 528 102T444 23T325 -6ZM546 0Q527
0 515 12T503 43V505Q503 524 515 535T546 547Q565 547 577 536T589 505V43Q589 24 577 12T546 0ZM338 635Q321 635 309 647L201 754Q190 766 190 784Q190 802 202 815T232 828Q250 828 263 815L370 707Q381 697 381 679Q381 660 369 648T338 635Z" />
<glyph unicode="&#xfa;" horiz-adv-x="679" d="M325 -6Q255 -6 200 23T112 110T80 250V505Q80 523 92 535T122 547Q141 547 153 535T165 505V250Q165 190 187 151T249 93T337 74Q384 74 421 92T481 142T503 214H561Q559 151 528 102T444 23T325 -6ZM546 0Q527
0 515 12T503 43V505Q503 524 515 535T546 547Q565 547 577 536T589 505V43Q589 24 577 12T546 0ZM337 631Q319 631 307 643T294 674Q294 692 304 703L412 811Q424 823 442 823Q461 823 473 811T485 779Q485 771 482 764T473 750L366 642Q354 631 337 631Z" />
<glyph unicode="&#xfb;" horiz-adv-x="679" d="M325 -6Q255 -6 200 23T112 110T80 250V505Q80 523 92 535T122 547Q141 547 153 535T165 505V250Q165 190 187 151T249 93T337 74Q384 74 421 92T481 142T503 214H561Q559 151 528 102T444 23T325 -6ZM546 0Q527
0 515 12T503 43V505Q503 524 515 535T546 547Q565 547 577 536T589 505V43Q589 24 577 12T546 0ZM226 628Q207 628 195 638T182 665Q182 687 203 702L319 778Q328 784 340 784Q347 784 352 783T362 778L477 702Q498 687 498 665Q498 649 486 639T455 628Q447 628
441 630T428 637L340 698L252 637Q240 628 226 628Z" />
<glyph unicode="&#xfc;" horiz-adv-x="679" d="M325 -6Q255 -6 200 23T112 110T80 250V505Q80 523 92 535T122 547Q141 547 153 535T165 505V250Q165 190 187 151T249 93T337 74Q384 74 421 92T481 142T503 214H561Q559 151 528 102T444 23T325 -6ZM546 0Q527
0 515 12T503 43V505Q503 524 515 535T546 547Q565 547 577 536T589 505V43Q589 24 577 12T546 0ZM233 642Q208 642 192 658T176 698Q176 721 192 738T233 755Q256 755 272 738T289 698Q289 674 273 658T233 642ZM446 642Q422 642 406 658T389 698Q389 721 405
738T446 755Q469 755 486 738T503 698Q503 674 486 658T446 642Z" />
<glyph unicode="&#xfd;" horiz-adv-x="545" d="M185 -239Q177 -239 165 -234Q128 -217 145 -181L462 523Q478 559 515 543Q552 528 536 491L218 -213Q207 -239 185 -239ZM299 19Q282 11 268 16T245 38L20 491Q12 507 18 521T40 544Q57 551 71 546T93 524L312 71Q321
55 318 41T299 19ZM275 631Q257 631 245 643T232 674Q232 692 242 703L350 811Q362 823 380 823Q399 823 411 811T423 779Q423 771 420 764T411 750L304 642Q292 631 275 631Z" />
<glyph unicode="&#xfe;" horiz-adv-x="706" d="M133 -234Q114 -234 102 -222T90 -191V738Q90 758 102 769T133 781Q152 781 164 770T175 738L168 301L137 290Q137 356 158 405T214 487T292 536T379 552Q455 552 515 517T609 418T644 273Q644 192 611 129T517 31T379
-5Q311 -5 259 26T175 112V-191Q176 -210 164 -222T133 -234ZM366 72Q424 72 467 97T536 168T561 273Q561 332 536 378T468 449T366 475Q310 475 266 450T198 378T173 273Q173 214 197 169T266 98T366 72Z" />
<glyph unicode="&#xff;" horiz-adv-x="545" d="M185 -239Q177 -239 165 -234Q128 -217 145 -181L462 523Q478 559 515 543Q552 528 536 491L218 -213Q207 -239 185 -239ZM299 19Q282 11 268 16T245 38L20 491Q12 507 18 521T40 544Q57 551 71 546T93 524L312 71Q321
55 318 41T299 19ZM172 642Q147 642 131 658T115 698Q115 721 131 738T172 755Q195 755 211 738T228 698Q228 674 212 658T172 642ZM385 642Q361 642 345 658T328 698Q328 721 344 738T385 755Q408 755 425 738T442 698Q442 674 425 658T385 642Z" />
<glyph unicode="&#x2013;" horiz-adv-x="391" d="M-3 231Q-22 231 -34 243T-46 273Q-46 292 -34 304T-3 316H393Q411 316 423 304T436 273Q436 255 424 243T393 231H-3Z" />
<glyph unicode="&#x2014;" horiz-adv-x="938" d="M-6 231Q-24 231 -36 243T-48 273Q-48 292 -36 304T-6 316H945Q964 316 976 304T988 273Q988 255 976 243T945 231H-6Z" />
<glyph unicode="&#x2018;" horiz-adv-x="206" d="M155 823Q169 823 177 811T179 784Q163 747 160 722T159 679T166 645T170 608Q170 583 154 568T115 552Q88 552 73 575T57 636Q57 660 67 691T92 753T124 803T155 823Z" />
<glyph unicode="&#x2019;" horiz-adv-x="174" d="M27 521Q13 521 5 533T3 560Q19 597 22 622T23 665T16 699T12 736Q12 761 28 776T67 792Q94 792 109 769T125 708Q125 684 115 653T90 591T58 541T27 521Z" />
<glyph unicode="&#x201a;" horiz-adv-x="234" d="M78 -173Q64 -173 56 -161T54 -134Q70 -97 73 -72T74 -29T67 5T63 42Q63 67 79 82T118 98Q145 98 160 75T176 14Q176 -10 166 -41T141 -103T109 -153T78 -173Z" />
<glyph unicode="&#x201c;" horiz-adv-x="285" d="M109 823Q123 823 131 811T133 784Q117 747 114 722T113 679T120 645T124 608Q124 583 108 568T69 552Q42 552 27 575T11 636Q11 660 21 691T46 753T78 803T109 823ZM258 823Q272 823 280 811T282 784Q266 747
263 722T262 679T269 645T273 608Q273 583 257 568T218 552Q191 552 176 575T160 636Q160 660 170 691T195 753T227 803T258 823Z" />
<glyph unicode="&#x201d;" horiz-adv-x="282" d="M212 552Q189 552 173 567T157 608Q157 628 161 644T168 679T168 722T148 784Q142 798 150 810T172 823Q187 823 204 803T236 753T260 692T270 636Q270 598 255 575T212 552ZM66 552Q43 552 27 567T11 608Q11 628
15 644T22 679T22 722T2 784Q-4 798 4 810T26 823Q41 823 57 803T89 753T114 692T124 636Q124 598 109 575T66 552Z" />
<glyph unicode="&#x201e;" horiz-adv-x="294" d="M314 -173Q300 -173 292 -161T290 -134Q306 -97 309 -72T310 -29T303 5T299 42Q299 67 315 82T354 98Q381 98 396 75T412 14Q412 -10 402 -41T377 -103T345 -153T314 -173ZM196 -173Q182 -173 174 -161T172 -134Q188
-97 191 -72T192 -29T185 5T181 42Q181 67 197 82T236 98Q263 98 278 75T294 14Q294 -10 284 -41T259 -103T227 -153T196 -173Z" />
<glyph unicode="&#x2022;" horiz-adv-x="391" d="M196 269Q163 269 136 285T92 329T76 389Q76 422 92 449T136 492T196 509Q228 509 255 492T299 448T316 389Q316 357 300 330T257 286T196 269Z" />
<glyph unicode="&#x2039;" horiz-adv-x="273" d="M196 0Q184 0 174 6T157 26L45 250Q42 257 40 262T38 273Q38 283 44 294L157 520Q170 546 196 546Q215 546 227 534T239 504Q239 493 236 485L130 273L236 61Q239 54 239 43Q239 25 227 13T196 0Z" />
<glyph unicode="&#x203a;" horiz-adv-x="273" d="M81 0Q64 0 52 12T39 43Q39 53 43 61L148 273L43 485Q42 490 40 494T38 504Q38 522 51 534T81 546Q109 546 121 520L234 294Q236 288 237 283T239 273Q239 262 233 250L121 26Q115 13 105 7T81 0Z" />
</font>
</defs>
</svg>
