<svg xmlns="http://www.w3.org/2000/svg" xmlns:xlink="http://www.w3.org/1999/xlink" viewBox="0 0 1166.43 391.78"><defs><style>.cls-1{fill:none;}.cls-2{isolation:isolate;}.cls-3{opacity:0.78;mix-blend-mode:overlay;}.cls-4{clip-path:url(#clip-path);}.cls-5,.cls-6{fill:#fff;}.cls-6{font-size:71.96px;font-family:Lato-Regular, Lato;}.cls-7{letter-spacing:0.29em;}.cls-8{letter-spacing:0.29em;}.cls-9{letter-spacing:0.28em;}.cls-10{letter-spacing:0.22em;}.cls-11{letter-spacing:0.3em;}.cls-12{mix-blend-mode:screen;}.cls-13{fill:#f16260;}</style><clipPath id="clip-path" transform="translate(-104.27 -209.68)"><rect class="cls-1" width="1199.41" height="799.61"/></clipPath></defs><title>Asset 5</title><g class="cls-2"><g id="Layer_2" data-name="Layer 2"><g id="NIGHT"><g id="LOGO"><g class="cls-3"><g class="cls-4"><g class="cls-4"><path class="cls-5" d="M126.38,327.71c.37-2,.65-3.75,1.14-5.43,2.26-7.84,4.84-15.62,9-22.62s8.93-13.57,13.68-20.15a62.63,62.63,0,0,1,7.93-9.05c8.47-7.95,17.6-15,28.1-20.19,1.63-.8,2.84-1.39,1.94-3.57-.18-.43.78-1.86,1.39-2,4.92-1.07,9.87-2,14.82-2.86,2.33-.42,3.5-1.67,2.75-3.65-2.23-5.88-5-11.46-9.65-15.89q-2.52-2.4-4.88-5c-.36-.39-.37-1.11-.54-1.68a4.7,4.7,0,0,1,1.58-.2q4.94,1.31,9.82,2.73c7.9,2.31,15.49,5.24,22.15,10.26.7.53,2,.33,3,.46a11.5,11.5,0,0,0-.53-2.37c-1.87-4.09-3.78-8.16-5.76-12.21-.5-1-1.39-1.85-1.92-2.86a2.14,2.14,0,0,1,.09-1.66c.08-.18,1-.17,1.44,0,9.27,4.6,18.47,9.32,25.88,16.78,3.32,3.33,6.47,6.83,9.71,10.24,2.22,2.33,5.37,2.37,8.18,3.29,7.66,2.5,15.54,4.53,22.88,7.76a101.28,101.28,0,0,1,27.12,17.26c7.92,7.09,15.32,14.57,21.08,23.5,5.41,8.42,10.5,17,13.05,26.87.26,1,1.4,1.76,2.14,2.62a21.89,21.89,0,0,0,1.71-1.9c1-1.41,2.07-1.89,3.48-.54a2.37,2.37,0,0,0,1.09.73c2.28.28,1.72,1.51,1.07,2.88-1.75,3.67-3.57,7.31-5.11,11.07-.29.72.54,1.9.85,2.87.85-.51,2.1-.83,2.5-1.59,1.84-3.43,3.43-7,5.12-10.49.53-1.09.72-2.29,2.66-1.43,2.16,1,1.13,2.17.62,3.21-3,6.14-6.22,12.21-9.26,18.35a7.43,7.43,0,0,0-.69,3.33c0,.72.7,1.43,1.09,2.14.61-.52,1.45-.93,1.79-1.59,1.89-3.7,3.66-7.46,5.47-11.2,1.7-3.51,3.28-7.09,5.19-10.46.32-.55,2.28-.61,3.21-.24,1.3.52,3.61.93,2.56,3.21-1.82,3.93-4,7.72-5.9,11.6-3.33,6.66-6.69,13.31-9.89,20a3.49,3.49,0,0,0,1.39,4.58c7.76,5.48,10.72,13.26,9.49,22.32a22.1,22.1,0,0,1-11.36,16.82,18.63,18.63,0,0,1-8.69,2.78c-3.47.14-4.26,1.87-3.4,5.9,1.43,6.64,2.29,13.3,1.16,20.13s-1.52,13.71-3,20.42c-1.17,5.38-3.37,10.55-5.21,15.78-.71,2-1.65,4-2.56,6-.14.31-.62.45-.95.68a3.91,3.91,0,0,1-.2-1.19c.43-2.71,1.05-5.41,1.29-8.13.07-.86-.86-1.8-1.33-2.71-.53.58-1.31,1.07-1.54,1.75-.71,2.05-1.13,4.21-1.85,6.26-.2.56-1,.9-1.59,1.35a4.51,4.51,0,0,1-.5-1.59c.08-1.24,0-2.73.61-3.64,1.08-1.54.2-2.36-.78-2.86-.34-.18-1.7.88-2.06,1.63-1.2,2.48-1.95,5.2-3.25,7.63-3,5.67-5.91,11.51-9.6,16.76A93.09,93.09,0,0,1,272.38,522,8.64,8.64,0,0,0,267,527.3c-2.05,5-5,9.7-7.59,14.53-1,1.92-1.94,3.89-3,5.78a11.21,11.21,0,0,1-1.79,2.33c-.29.29-.88.29-1.33.43a5.13,5.13,0,0,1-.28-1.55c.59-4.33,1.29-8.64,1.83-13,.08-.66-.55-1.41-.84-2.12-.64.48-1.53.82-1.88,1.46-3.43,6.24-6.77,12.53-10.15,18.81a5.51,5.51,0,0,1-1.06,1.76,2,2,0,0,1-1.66.14,1.4,1.4,0,0,1-.43-1.28c1.93-5.28,1.48-10.78,1.45-16.22a21.9,21.9,0,0,0-.6-5.37c-.38-1.45-1.41-2.46-3.16-1.41-1.34.8-3,1.34-4,2.45a7.87,7.87,0,0,0-2.22,4.33c-.18,3.18.32,6.39.41,9.59a8.8,8.8,0,0,1-.71,2.5,13.46,13.46,0,0,1-2-2.36c-1.59-3.08-3.1-6.19-4.51-9.36s-2.55-6.43-4-9.56c-.41-.89-1.47-1.48-2.23-2.21a10.13,10.13,0,0,0-1,2.78c-.29,4.18-1.14,8.38.47,12.51a1.5,1.5,0,0,1-.64,1.3,1.77,1.77,0,0,1-1.5-.6,61.47,61.47,0,0,1-2.84-5.83c-1.77-4.23-3.24-8.6-5.24-12.7a8.82,8.82,0,0,0-4-3.53c-7.25-3.49-14.56-6.79-20.9-11.89-5.8-4.66-11.39-9.42-16.07-15.38A124,124,0,0,1,153,474.09c-1.35-2.6-2.22-5.46-3.63-8-.65-1.2-2-2-3.11-3-.06,1.31-.21,2.63-.16,3.94,0,1.06.42,2.09.51,3.15a7.28,7.28,0,0,1-.3,1.8c-.51-.54-1.24-1-1.5-1.61-.79-1.91-1.42-3.9-2.1-5.86a5.67,5.67,0,0,0-.6-1.71,5.33,5.33,0,0,0-1.52-.93c-.23.48-.7,1-.65,1.43.4,3.09.93,6.16,1.35,9.25a4.53,4.53,0,0,1-.43,1.55,7.21,7.21,0,0,1-.95-1.05c-4.23-7.31-6.61-15.33-8.32-23.48a135.89,135.89,0,0,1-2.28-18.69c-.36-5.37-.17-10.79,0-16.18a40.1,40.1,0,0,1,1-6.32c.4-2.1-.88-2.8-2.53-3.2a93.3,93.3,0,0,1-9.43-2.31c-7.08-2.56-11.4-8-13.1-15-2.88-11.84,1-23.86,15.38-28.61a3.82,3.82,0,0,0,3-4.06c.19-5.25.15-10.53.64-15.75.36-3.84,1.42-7.62,2.17-11.7M174.94,440c3.4.37,6.79.81,10.2,1.1,4.89.44,9.79.83,14.68,1.13,9.78.6,19.55,1.4,29.33,1.62,8.42.19,16.87-.21,25.29-.52,5.38-.2,10.73-.71,16.1-1.09,7.81-.55,15.62-1.09,23.43-1.69,3.87-.31,7.74-.64,11.59-1.14,5-.65,10-1.65,15.08-2.17,4-.4,5.48-1.14,5.51-4.92.07-9.18.77-18.42-2.12-27.42-1.09-3.39-1.06-6.7,1.7-9.78,1.93-2.15,3.09-5,4.4-7.67,4-8.05,5.31-16.82,6.69-25.55a3.62,3.62,0,0,0-1.24-2.49c-.24-.25-1.54.15-2,.61a24.53,24.53,0,0,0-2.85,3.57c-3.13,4.59-2.79,10-3.32,15.16a32.2,32.2,0,0,1-8.17,18.51c-5.42,6.15-12.27,9.29-20.45,10.28-8.59,1-17,.67-25.14-2-12.1-4-20-12.4-23.84-24.64a101.24,101.24,0,0,0-5.6-13.66c-2.25-4.63-5.71-5-8.07-.64a102.85,102.85,0,0,0-5.87,13.83c-2.11,5.72-4.5,11.33-8.77,15.7-7.73,7.92-17.65,11.15-28.44,11.8a93.45,93.45,0,0,1-12.39-.51,29.2,29.2,0,0,1-18.4-8.29c-7.53-7.29-10.58-16.65-10.59-27a14.77,14.77,0,0,0-5-11.41,7.77,7.77,0,0,0-2.09-1c-.28.72-.85,1.48-.79,2.18.26,3.12.66,6.24,1.08,9.36A56.14,56.14,0,0,0,153,393.42c1.36,2.2,2.6,4.43,1.49,7.38-2.42,6.38-3.13,13.14-3.37,19.91-.15,4.12.3,8.26.51,12.38a4.3,4.3,0,0,0,4.13,4.1c6.3.78,12.59,1.67,19.16,2.79M285.52,296.83c-2.74-.37-5.48-.93-8.24-1.09-8.18-.47-16.26.08-24.09,2.77a28.94,28.94,0,0,0-13.53,9.29c-.59.74-1.83.94-2.77,1.38a16.54,16.54,0,0,1-.47-2.49c-.08-2.71-.85-3.27-3.31-2-2.62,1.39-5.1,3-7.69,4.47a9.81,9.81,0,0,1-2.14.62,5.79,5.79,0,0,1,.54-2.28c1.27-1.67,2.8-3.13,4.09-4.79a6.71,6.71,0,0,0,.63-2.25,7.1,7.1,0,0,0-2.14.31c-1,.5-1.87,1.34-2.88,1.86a14.71,14.71,0,0,1-2.67.79c.35-.83.7-1.67,1.07-2.5.07-.16.26-.27.38-.4,1.8-1.85,1.48-3.22-1-3.68a63.13,63.13,0,0,0-9.07-1.12,69.26,69.26,0,0,0-21.91,2.56,66,66,0,0,0-25.53,14.32,64.18,64.18,0,0,0-14.16,18.27,71.85,71.85,0,0,0-4.48,11.32c-.47,1.41-.66,3.37,2.23,2.94s5.83-.37,8.74-.62c8.39-.72,16.76-1.71,25.17-2.18a100.29,100.29,0,0,1,32.84,3.31c5.95,1.67,11.84,3.54,17.84,5,3.22.77,6.75,1.62,9.88,1,6.38-1.21,12.59-3.36,18.86-5.17a98.45,98.45,0,0,1,24.65-4.14c5.52-.14,11.07.25,16.6.52q9,.44,18.05,1.13c3.32.25,6.61.75,9.92,1.08a28.23,28.23,0,0,0,2.91,0,15.89,15.89,0,0,0-.26-3c-2.12-7.68-5.35-14.84-10.72-20.79-4.13-4.57-8.26-9.26-13-13.13-7-5.67-15.35-8.76-24.29-11.33m-61.19,210c3.92.93,7.79,2.19,11.76,2.69,2.35.29,2.23.87,1.47,2.54a26.15,26.15,0,0,0-1.1,3.52c1.34-.44,2.71-.82,4-1.36.48-.2.78-.79,1.21-1.15s.92-.66,1.39-1a11.61,11.61,0,0,1-.07,1.87c-.2,1-.52,1.92-.79,2.88a18.24,18.24,0,0,0,2.84-1.07,5.85,5.85,0,0,0,1.45-1.59c2.66-3.46,4.79-7.53,9.72-8.37a38.83,38.83,0,0,0,4.91-1,69.39,69.39,0,0,0,24.74-13.43c7.72-6.54,14.36-13.86,19.07-22.92a84.22,84.22,0,0,0,7.8-22c.4-2-.9-2.69-2.48-2.43-4.88.79-9.72,1.8-14.58,2.71-3.21.6-6.42,1.31-9.66,1.7-4.32.52-8.67.77-13,1.17-8,.73-16,1.8-24,2.15-8.71.37-17.45.13-26.18.06-2.82,0-5.65-.24-8.46-.55-6.06-.68-12.1-1.5-18.15-2.22-3.49-.42-7-.54-10.46-1.18-6.13-1.14-12.2-2.59-18.31-3.87a2.55,2.55,0,0,0-2.73,2.64c.36,1.72.74,3.43,1.19,5.12A78.77,78.77,0,0,0,178,477.24a76.75,76.75,0,0,0,46.34,29.54m94-123.22a39.93,39.93,0,0,0,2.18-17,17.11,17.11,0,0,0-5.06-11,22.1,22.1,0,0,0-14.35-5.71c-12.14-.46-24.45-1.36-36,4.19a15.73,15.73,0,0,0-8.36,8.62c-1.63,4.28-.64,8.68.9,13.07,2.15,6.16,4.5,12.23,8.87,17a25.81,25.81,0,0,0,19.14,8.46,114.08,114.08,0,0,0,12.66-.55c4.77-.43,8.82-2.68,12.53-5.61s5.36-7,7.52-11.47m-104.13-30c-5.26-1.31-10.47-3.48-15.78-3.73-8-.38-16.19-1.09-24.22.89-6.8,1.68-12.12,5.65-14,12.15-2.37,8.39-1,17.12,3,24.8,4.66,9,12.74,13.52,23,13.57,3.76,0,7.52-.28,11.27-.54,5.3-.36,9.75-2.65,13.79-6,4.83-4,7.44-9.52,9.8-15A48,48,0,0,0,224,368.5c.88-5.3-3.18-12.22-9.76-15m-62-66c-2,2.73-4.4,5.25-5.83,8.24A115,115,0,0,0,141.59,309c-.17.51.45,1.27.7,1.91.87-.41,2.09-.58,2.56-1.27,3.28-4.87,6.42-9.85,9.6-14.79,3.61-5.61,8.63-9.89,13.56-14.23,2.58-2.28,5.32-4.36,7.87-6.66.53-.47.56-1.49.82-2.26a7.07,7.07,0,0,0-2.66-.23,32.69,32.69,0,0,0-5,2.13c-6.54,3.32-11.83,8.23-16.85,14m-33.4,82.8c-1.22,3.05-3.14,6-3.51,9.16-1.06,8.86,3.74,16,12.31,19.21,1.1.41,2.49.06,3.74.07-.16-1-.23-2.09-.49-3.09a33.9,33.9,0,0,0-1.71-5.74c-1.63-3.57-1.44-8.33-6.25-10a2,2,0,0,1-1-1.51c-.1-2.46,0-4.92-.07-7.38a9.83,9.83,0,0,0-.63-2.25,27,27,0,0,0-2.43,1.5m234.37,25c.53-.53,1-1.08,1.58-1.58,4.27-3.91,5.79-8.81,5.09-14.44-.07-.56-1-1-1.5-1.5-1.91,2.09-4.36,3.92-5.6,6.36-1.66,3.27-2.4,7-3.49,10.56a16.85,16.85,0,0,0-.38,2.48,30.58,30.58,0,0,0,3-.65c.39-.12.67-.62,1.28-1.23M155.85,357.46c-.28.63-.8,1.26-.79,1.89a18.3,18.3,0,0,0,.59,3.16,11.4,11.4,0,0,0,2.36-2.22c2.19-3.82,4.59-7.38,8.27-10a8.34,8.34,0,0,0,2.38-3.33c-1.82-1.71-3.36.06-4.82.89-3.73,2.1-5.86,5.62-8,9.61m-48.56,17.68.72,1.4a8.85,8.85,0,0,0,2.61-1.55c2.49-3,4.85-6.14,7.19-9.29a12.65,12.65,0,0,0,1.14-2.47c-1,.15-2.21,0-3,.52-4,2.65-6.63,6.54-8.67,11.39m36.49-58.38c-.61-1.7-1.65-2.67-3.42-1.54-.46.29-.88,1.52-.65,1.85,1.17,1.67,2.53,1.5,4.07-.31m228.61-20.35a37.9,37.9,0,0,1,6.62,3.11,3.78,3.78,0,0,1,1.05,2.84q-.09,6.06-.55,12.1a10.27,10.27,0,0,1-1.12,3.72c-1.15,2.23-3.47,2.29-4.57.09a3.76,3.76,0,0,0-4.33-2.37c-1.82.27-3.3-.24-4-2.15-.56-1.59-1.75-1.9-3.27-1.78s-3.32.34-4-1.55.61-2.94,1.85-4c4-3.32,8.09-6.61,12.28-10m6.74-6.74c.8.4,2,.95,2,1.47a5,5,0,0,1-1.29,2.74c-.14.18-1.52-.3-2-.8-1.61-1.71.52-2.25,1.3-3.41M235.42,409c.41.78,1,1.51.87,2-.34,1.2-.74,2.86-1.64,3.35-2.57,1.39-4.74-.38-6.38-2a4.93,4.93,0,0,1-1.47-5.1c.68-2.21,2.38-2.55,3.82-1.94,1.74.75,3.13,2.32,4.8,3.68m13.89-3.79c3.45.21,4.41,1.7,3.37,4.78s-3.47,5.11-6,4.68a4.36,4.36,0,0,1-2.87-2,3.7,3.7,0,0,1,.59-3.23,28.26,28.26,0,0,1,4.89-4.19m-48.13-74.24c5.06,2.25,10,4.34,14.88,6.52.55.26.85,1.11,1.26,1.69a5.81,5.81,0,0,1-2,.32c-3.24-.73-6.42-1.72-9.66-2.37-4.18-.82-8.4-1.42-12.6-2.08-8.22-1.28-16.08.91-24,2.48-.56.12-1.28-.52-1.93-.8.27-.46.44-1.16.84-1.35,2.73-1.3,5.41-3,8.3-3.6a106.3,106.3,0,0,1,15.88-2.23c2.94-.19,6,.82,9.08,1.42m80.69,4.64c-4.19.93-8.11,1.86-12,2.81-1.36.33-2.67.84-4,1.07a5.3,5.3,0,0,1-1.9-.45c.39-.69.59-1.67,1.18-2a57.2,57.2,0,0,1,6.72-3.4,42.61,42.61,0,0,1,17-3.57,44.11,44.11,0,0,1,16.7,3.65,38.19,38.19,0,0,1,4,1.92c.45.26.65.93,1,1.41-.55.27-1.1.77-1.63.75-1.24,0-2.46-.37-3.69-.53-5.77-.76-11.54-1.59-17.33-2.17-1.85-.19-3.77.32-5.94.51m-.7,146.37c-1.72.21-3.39.34-3.77-1.77-.26-1.49.18-2.88,1.85-3.07a3.54,3.54,0,0,1,2.68.94c1.15,1.3.71,2.68-.76,3.9m6.18-10.39a14.65,14.65,0,0,1,.11,2.42,5.46,5.46,0,0,1-2.2-.14c-.34-.17-.53-1.57-.3-1.72a4.85,4.85,0,0,1,2.39-.56m-4.21-104.41a33.72,33.72,0,0,1,2.16-3.78c1.26-1.58,3.18-2.06,4.65-.7.64.6.56,2.68,0,3.67-1.36,2.58-1.05,4.5,1.42,6a3.82,3.82,0,0,1,1.58,4.87,13.79,13.79,0,0,1-3.95,5.93c-1.44,1.08-3.36-.22-4.39-2.12a18.74,18.74,0,0,1-1.51-13.86m-98.94,2.11c.25-4.14,2.42-7.24,4.9-7.3,2.83-.07,4.21,1.87,2.92,4.37-1.14,2.22-.92,4.17.91,5.69,2.3,1.93,2,4,.95,6.36a12.73,12.73,0,0,1-1.43,3,5.68,5.68,0,0,1-2.79,1.82c-1.51.35-3,.19-3.82-1.69-1.76-3.87-2.86-7.75-1.64-12.27" transform="translate(-104.27 -209.68)"/></g><text class="cls-6" transform="translate(346.47 287.9)"><tspan class="cls-7">DI</tspan><tspan class="cls-8" x="117.88" y="0">G</tspan><tspan class="cls-9" x="191.78" y="0">I</tspan><tspan class="cls-10" x="234.24" y="0">T</tspan><tspan class="cls-11" x="292.32" y="0">A</tspan><tspan x="362.7" y="0">L</tspan></text><g class="cls-4"><path class="cls-5" d="M456.38,288.93a16.4,16.4,0,0,0-.53-5,8.87,8.87,0,0,1-.53-2.84,3.44,3.44,0,0,1,1.89-2.95A8.28,8.28,0,0,1,461.7,277a14.62,14.62,0,0,1,9.75,3.13,9.59,9.59,0,0,1,3.72,7.62v79a42.64,42.64,0,0,0,9.39-2.36,60.43,60.43,0,0,0,10.81-5.26,64.69,64.69,0,0,0,10.81-8.33,58,58,0,0,0,9.39-11.58,62,62,0,0,0,6.68-14.95,62.94,62.94,0,0,0,2.54-18.48,49.84,49.84,0,0,0-2.18-14.19,39.78,39.78,0,0,0-6.92-13.34,36.77,36.77,0,0,0-12.23-9.93q-7.5-3.9-18.13-3.9-14.54,0-24.93,4.49A46.25,46.25,0,0,0,443.45,281a48.08,48.08,0,0,0-9.63,17.55,71.2,71.2,0,0,0-3.07,21.09,57.19,57.19,0,0,0,1.36,13.53,47.77,47.77,0,0,0,3,9,24.34,24.34,0,0,0,3.07,5.14c.94,1.1,1.49,1.72,1.65,1.88,1.34-.39,2.29-.23,2.84.48a4.49,4.49,0,0,1,.83,2.83,17.34,17.34,0,0,1-1.13,5,27.14,27.14,0,0,1-3,6.2A13.58,13.58,0,0,1,435,368a4.21,4.21,0,0,1-5.08-.53,61.88,61.88,0,0,1-4.37-4.73,45.17,45.17,0,0,1-5.85-9.16,75.53,75.53,0,0,1-5.14-13.82,70.15,70.15,0,0,1-2.25-18.72,84.92,84.92,0,0,1,5.32-30.78,68.36,68.36,0,0,1,14.95-23.57,65.9,65.9,0,0,1,23-15.12,79,79,0,0,1,29.53-5.32,63.73,63.73,0,0,1,24.05,4.37,53,53,0,0,1,18.43,12.23,54.33,54.33,0,0,1,11.75,18.72,66.24,66.24,0,0,1,4.14,23.75,74.29,74.29,0,0,1-5.67,29.24,83.15,83.15,0,0,1-15.13,23.81A86.14,86.14,0,0,1,475.17,385v31.9q0,3.08-2,4.31a8.79,8.79,0,0,1-4.73,1.25,16,16,0,0,1-4.25-.59,18,18,0,0,1-3.84-1.54,10.81,10.81,0,0,1-2.83-2.19,3.89,3.89,0,0,1-1.13-2.66ZM607.49,422.44a31,31,0,0,1-8.68-1.3,21,21,0,0,1-8-4.49,23.77,23.77,0,0,1-5.91-8.45,33.22,33.22,0,0,1-2.3-13.29,106.2,106.2,0,0,1,3.13-24.76,241.22,241.22,0,0,1,9-28.76H573.59c-.08,2.36-.22,5.36-.42,9s-.53,7.48-1,11.57-1.09,8.23-1.83,12.41a97,97,0,0,1-2.78,11.58c-.79,2.52-2,4-3.72,4.37a6.54,6.54,0,0,1-5-.89,10.83,10.83,0,0,1-4-4.31,7.78,7.78,0,0,1-.71-5.91,77.23,77.23,0,0,0,1.66-8.92q.71-5.25,1.12-11.1t.65-11.7c.15-3.9.27-7.38.35-10.46a23.58,23.58,0,0,1-7.44-6.32,14.54,14.54,0,0,1-2.95-9.15,10.25,10.25,0,0,1,1-4.55A11.07,11.07,0,0,1,555,311.2a14.16,14.16,0,0,1,4.61-.77,17.94,17.94,0,0,1,4.42.59,12.71,12.71,0,0,1,4.38,2.13,16.2,16.2,0,0,1,3.72,4,22.47,22.47,0,0,1,2.72,6.15c2,.24,3.64.42,5,.53l3.48.3c1,.08,1.73.12,2.37.12h14.53a6.81,6.81,0,0,1,3.13,1.3,22.14,22.14,0,0,1,4.07,3.36,22.67,22.67,0,0,1,3.37,4.43,6.73,6.73,0,0,1,1,4.49,17.22,17.22,0,0,1-.83,3.43c-.55,1.81-1.22,4.1-2,6.85s-1.65,5.93-2.6,9.51-1.81,7.35-2.6,11.28-1.46,8-2,12.23a95.43,95.43,0,0,0-.82,12.35,19.56,19.56,0,0,0,.59,4.84,13.7,13.7,0,0,0,1.77,4.2,8.75,8.75,0,0,0,3,2.89,8.42,8.42,0,0,0,4.31,1.06,10.37,10.37,0,0,0,7.09-2.59,22,22,0,0,0,5-6.5,42.8,42.8,0,0,0,3.24-8.45q1.24-4.54,2.07-8.57a10.64,10.64,0,0,1,2.37-5.49,4.78,4.78,0,0,1,3.42-1.71,6,6,0,0,1,3,.88,10.79,10.79,0,0,1,2.77,2.31,12,12,0,0,1,2,3.19,8.87,8.87,0,0,1,.77,3.54,3.05,3.05,0,0,1-.12,1,2.16,2.16,0,0,0-.12.71,116.93,116.93,0,0,1-4.31,12.64A54.09,54.09,0,0,1,631,409.56a36.89,36.89,0,0,1-9.93,9.21,24.87,24.87,0,0,1-13.59,3.67m34.39-123.11a13.85,13.85,0,0,1-5.62-1.18,14.81,14.81,0,0,1-4.6-3.19,15.82,15.82,0,0,1-3.13-4.67,13.93,13.93,0,0,1-1.19-5.73,14.61,14.61,0,0,1,1.19-5.91,14.85,14.85,0,0,1,3.13-4.67,14.46,14.46,0,0,1,10.22-4.19,15.27,15.27,0,0,1,5.9,1.12,13.8,13.8,0,0,1,7.74,7.74,15.29,15.29,0,0,1,1.13,5.91,14.57,14.57,0,0,1-1.13,5.73,15.09,15.09,0,0,1-3.07,4.67,14.62,14.62,0,0,1-10.57,4.37m5.55,96.05c0,.55,0,1.44.12,2.66a15.6,15.6,0,0,0,.7,3.72,8.86,8.86,0,0,0,1.89,3.31,4.76,4.76,0,0,0,3.67,1.41,8.59,8.59,0,0,0,6.2-2.59,24.16,24.16,0,0,0,4.61-6.5,49.25,49.25,0,0,0,3.25-8.45c.87-3,1.57-5.89,2.12-8.57a11.28,11.28,0,0,1,2.19-5.31,5,5,0,0,1,3.19-1.84,5.41,5.41,0,0,1,3.43.89,12.17,12.17,0,0,1,3.07,2.78,11.75,11.75,0,0,1,2,3.84,7.5,7.5,0,0,1,.18,4,117.08,117.08,0,0,1-4.32,12.64A53.71,53.71,0,0,1,673,409.56a37,37,0,0,1-9.92,9.21,25,25,0,0,1-13.59,3.67,19.71,19.71,0,0,1-8.63-1.83,19.3,19.3,0,0,1-6.38-4.91,21.51,21.51,0,0,1-4-7.2,28.07,28.07,0,0,1-1.36-8.75V335.12a16.85,16.85,0,0,0-.52-5,8.51,8.51,0,0,1-.53-2.83,3.31,3.31,0,0,1,1.88-2.9,8.72,8.72,0,0,1,4.49-1.12q6,0,9.51,3.13a9.77,9.77,0,0,1,3.49,7.5Zm167.89-10.63A117.08,117.08,0,0,1,811,397.39a53.71,53.71,0,0,1-6.79,12.17,36.85,36.85,0,0,1-9.92,9.21,24.9,24.9,0,0,1-13.59,3.67,19.35,19.35,0,0,1-8.57-1.83,20.15,20.15,0,0,1-6.38-4.91,21,21,0,0,1-4-7.2,28.07,28.07,0,0,1-1.36-8.75V350.6c0-1.89,0-3.66-.11-5.31a23.11,23.11,0,0,0-.59-4.38,8,8,0,0,0-1.36-3,2.91,2.91,0,0,0-2.42-1.12q-2.49,0-6,3.54a45,45,0,0,0-6.86,9.22,78.17,78.17,0,0,0-5.91,12.82A52.08,52.08,0,0,0,734,376.71V412q0,1.77-.06,3.6a8.77,8.77,0,0,1-.71,3.31,6.08,6.08,0,0,1-2,2.48,6.56,6.56,0,0,1-4,1,19.39,19.39,0,0,1-3.84-.42,10.64,10.64,0,0,1-3.78-1.53,8.68,8.68,0,0,1-2.84-3.19,11.55,11.55,0,0,1-1.12-5.5V350.6q0-2.84-.18-5.31a25.43,25.43,0,0,0-.65-4.38,8,8,0,0,0-1.36-3,2.91,2.91,0,0,0-2.42-1.12c-1.65,0-3.65,1.18-6,3.54a48.53,48.53,0,0,0-6.86,9.22,73.49,73.49,0,0,0-5.91,12.82,57,57,0,0,0-3.13,14.35V412q0,1.77-.06,3.6a9.17,9.17,0,0,1-.7,3.31,6.19,6.19,0,0,1-2,2.48,6.56,6.56,0,0,1-4,1,19.39,19.39,0,0,1-3.84-.42,10.64,10.64,0,0,1-3.78-1.53,8.57,8.57,0,0,1-2.83-3.19,11.42,11.42,0,0,1-1.13-5.5V335.12a16.78,16.78,0,0,0-.53-5,8.51,8.51,0,0,1-.53-2.83,3.32,3.32,0,0,1,1.89-2.9,8.7,8.7,0,0,1,4.49-1.12q6,0,9.51,3.13a9.76,9.76,0,0,1,3.48,7.5V344.1a79.83,79.83,0,0,1,5.14-9.21,43.74,43.74,0,0,1,6-7.39,26.47,26.47,0,0,1,6.79-4.9,17.31,17.31,0,0,1,7.74-1.77,18.35,18.35,0,0,1,9,2,16.36,16.36,0,0,1,5.79,5.31,22.47,22.47,0,0,1,3.13,7.39,48.44,48.44,0,0,1,1.18,8.09,70.43,70.43,0,0,1,5-9,41.55,41.55,0,0,1,5.91-7.2,27,27,0,0,1,6.79-4.85,17.34,17.34,0,0,1,7.74-1.77,18.83,18.83,0,0,1,9.69,2.24,16.74,16.74,0,0,1,5.91,5.79,23.82,23.82,0,0,1,3,7.92,45.82,45.82,0,0,1,.83,8.51v50.09c0,.55,0,1.44.12,2.66a15.63,15.63,0,0,0,.71,3.72,9,9,0,0,0,1.83,3.31,4.55,4.55,0,0,0,3.6,1.41,8.73,8.73,0,0,0,6.32-2.59,23.94,23.94,0,0,0,4.61-6.5,49.25,49.25,0,0,0,3.25-8.45q1.29-4.54,2.12-8.57a11,11,0,0,1,2.31-5.49,4.71,4.71,0,0,1,3.49-1.71,5.62,5.62,0,0,1,2.89.88,11.49,11.49,0,0,1,2.72,2.31,12.18,12.18,0,0,1,2,3.19,8.7,8.7,0,0,1,.77,3.54v.59a3.66,3.66,0,0,1-.23,1.07m-.24-85.42a13.77,13.77,0,0,1-5.61-1.18,14.86,14.86,0,0,1-4.61-3.19,15.82,15.82,0,0,1-3.13-4.67,13.93,13.93,0,0,1-1.18-5.73,14.61,14.61,0,0,1,1.18-5.91,14.85,14.85,0,0,1,3.13-4.67,14.51,14.51,0,0,1,10.22-4.19,15.32,15.32,0,0,1,5.91,1.12,13.83,13.83,0,0,1,7.73,7.74,15.29,15.29,0,0,1,1.12,5.91,14.57,14.57,0,0,1-1.12,5.73,14.92,14.92,0,0,1-3.07,4.67,14.62,14.62,0,0,1-4.66,3.19,14.81,14.81,0,0,1-5.91,1.18m5.56,96.05c0,.55,0,1.44.11,2.66a15.63,15.63,0,0,0,.71,3.72,8.59,8.59,0,0,0,1.89,3.31,4.72,4.72,0,0,0,3.66,1.41,8.58,8.58,0,0,0,6.2-2.59,23.94,23.94,0,0,0,4.61-6.5,49.25,49.25,0,0,0,3.25-8.45q1.3-4.54,2.13-8.57a11.18,11.18,0,0,1,2.18-5.31,5.06,5.06,0,0,1,3.2-1.84,5.4,5.4,0,0,1,3.42.89,12.17,12.17,0,0,1,3.07,2.78,11.38,11.38,0,0,1,2,3.84,7.5,7.5,0,0,1,.18,4,117.08,117.08,0,0,1-4.32,12.64,53.71,53.71,0,0,1-6.79,12.17,36.85,36.85,0,0,1-9.92,9.21,24.9,24.9,0,0,1-13.59,3.67,19.64,19.64,0,0,1-8.62-1.83,19.3,19.3,0,0,1-6.38-4.91,21.16,21.16,0,0,1-4-7.2,27.78,27.78,0,0,1-1.36-8.75V335.12a16.44,16.44,0,0,0-.53-5,8.53,8.53,0,0,1-.54-2.83,3.34,3.34,0,0,1,1.9-2.9,8.67,8.67,0,0,1,4.49-1.12q6,0,9.51,3.13a9.77,9.77,0,0,1,3.49,7.5Zm1.65-93.46q2.72.24,6,.36c1.89.16,4.18.26,6.85.3s5.67.1,9,.17v-41a16.3,16.3,0,0,0-.42-4.14,15.57,15.57,0,0,0-.82-2.42,8.34,8.34,0,0,0-.83-1.42,1.8,1.8,0,0,1-.42-1.12,1.38,1.38,0,0,1,.71-1.18,7.09,7.09,0,0,1,1.9-.83,15.69,15.69,0,0,1,2.53-.53,20.38,20.38,0,0,1,2.66-.18q6,0,9.51,3.13a9.74,9.74,0,0,1,3.49,7.51V303q11.1,0,23.45-.24t24.75-.83c1.1-1.18,2-1.61,2.66-1.3a2.79,2.79,0,0,1,1.3,2.25,18.23,18.23,0,0,1,.06,4.37,26.52,26.52,0,0,1-.94,5,14.55,14.55,0,0,1-2,4.2,3.47,3.47,0,0,1-2.78,1.77q-14.53.36-25.7.41t-20.85.06v76.68c0,3.94.74,6.77,2.24,8.51a7.56,7.56,0,0,0,6,2.59,8.73,8.73,0,0,0,6.32-2.59,23.92,23.92,0,0,0,4.6-6.5,45.36,45.36,0,0,0,3.2-8.45q1.23-4.54,2.06-8.57a10.64,10.64,0,0,1,2.37-5.49,4.79,4.79,0,0,1,3.43-1.71,6,6,0,0,1,2.95.88,10.79,10.79,0,0,1,2.77,2.31,12,12,0,0,1,2,3.19,8.7,8.7,0,0,1,.77,3.54v.59a3.76,3.76,0,0,1-.24,1.07,100.32,100.32,0,0,1-4.19,12.64,53.15,53.15,0,0,1-6.85,12.17,37.72,37.72,0,0,1-10,9.21,24.87,24.87,0,0,1-13.59,3.67,26.07,26.07,0,0,1-8.91-1.48,17.42,17.42,0,0,1-7-4.73,22.46,22.46,0,0,1-4.61-8.33,39.73,39.73,0,0,1-1.65-12.29V318.7c-2.68,0-5.07,0-7.15-.06s-3.84-.1-5.26-.17c-1.65-.08-3.11-.16-4.37-.24a6.54,6.54,0,0,1-5-2.54,14.85,14.85,0,0,1-3.06-5.61,10.53,10.53,0,0,1-.24-5.61,3.06,3.06,0,0,1,3.25-2.55m78.45-2.59a13.77,13.77,0,0,1-5.61-1.18,14.63,14.63,0,0,1-4.61-3.19,15.82,15.82,0,0,1-3.13-4.67,13.93,13.93,0,0,1-1.19-5.73,14.61,14.61,0,0,1,1.19-5.91,14.85,14.85,0,0,1,3.13-4.67,14.51,14.51,0,0,1,10.22-4.19,15.27,15.27,0,0,1,5.9,1.12,13.8,13.8,0,0,1,7.74,7.74,15.29,15.29,0,0,1,1.12,5.91,14.57,14.57,0,0,1-1.12,5.73,15.09,15.09,0,0,1-3.07,4.67,14.56,14.56,0,0,1-4.67,3.19,14.77,14.77,0,0,1-5.9,1.18m5.55,96.05c0,.55,0,1.44.12,2.66a15.15,15.15,0,0,0,.71,3.72,8.59,8.59,0,0,0,1.89,3.31,4.72,4.72,0,0,0,3.66,1.41,8.59,8.59,0,0,0,6.2-2.59,24.16,24.16,0,0,0,4.61-6.5,49.25,49.25,0,0,0,3.25-8.45c.87-3,1.57-5.89,2.13-8.57a11.08,11.08,0,0,1,2.18-5.31,5,5,0,0,1,3.19-1.84,5.41,5.41,0,0,1,3.43.89,12.17,12.17,0,0,1,3.07,2.78,11.75,11.75,0,0,1,2,3.84,7.5,7.5,0,0,1,.18,4,117.08,117.08,0,0,1-4.32,12.64,53.71,53.71,0,0,1-6.79,12.17,36.85,36.85,0,0,1-9.92,9.21,24.92,24.92,0,0,1-13.59,3.67,19.71,19.71,0,0,1-8.63-1.83,19.16,19.16,0,0,1-6.37-4.91,21.16,21.16,0,0,1-4-7.2,27.78,27.78,0,0,1-1.36-8.75V335.12a16.78,16.78,0,0,0-.53-5,8.53,8.53,0,0,1-.54-2.83,3.32,3.32,0,0,1,1.89-2.9,8.73,8.73,0,0,1,4.5-1.12q6,0,9.5,3.13a9.77,9.77,0,0,1,3.49,7.5Zm23.51-60.26a16.78,16.78,0,0,0-.53-5,8.77,8.77,0,0,1-.53-2.83,3.32,3.32,0,0,1,1.89-2.9,8.72,8.72,0,0,1,4.49-1.12q6,0,9.51,3.13a9.76,9.76,0,0,1,3.48,7.5V399a11.68,11.68,0,0,0,1.07,5.44c.71,1.34,2.12,2,4.25,2a16.26,16.26,0,0,0,9-3,28.31,28.31,0,0,0,8.15-8.74,52.85,52.85,0,0,0,5.91-14,69.94,69.94,0,0,0,2.31-18.79,54.93,54.93,0,0,0-1.13-12.16,34.77,34.77,0,0,0-2.66-7.86,15.46,15.46,0,0,0-3.25-4.55c-1.14-1-2.1-1.85-2.89-2.48a4.69,4.69,0,0,0-2.13-.89c-.79-.12-1.18-.53-1.18-1.24a9.62,9.62,0,0,1,.89-3.72,17.53,17.53,0,0,1,2.3-3.9,14.91,14.91,0,0,1,3.19-3.07,6.14,6.14,0,0,1,3.54-1.24c2.44,0,4.93,1.2,7.45,3.6a37.2,37.2,0,0,1,6.91,9.51A64.34,64.34,0,0,1,995,347.35a59,59,0,0,1,2,15.3,79.31,79.31,0,0,1-3.31,23.16,61.27,61.27,0,0,1-9.39,19,45.46,45.46,0,0,1-14.71,12.88,39.42,39.42,0,0,1-19.26,4.73,22.54,22.54,0,0,1-9.75-1.89,16.59,16.59,0,0,1-6.32-5.09,20.49,20.49,0,0,1-3.42-7.5,37.58,37.58,0,0,1-1.07-9.16Zm134.34,10.17a44.44,44.44,0,0,1-2.31,13.82,48.91,48.91,0,0,1-6.85,13.41,53.3,53.3,0,0,1-11.22,11.34,48.2,48.2,0,0,1-15.43,7.62,27.11,27.11,0,0,0,3.14,5.85,20.54,20.54,0,0,0,4.66,4.78,22.27,22.27,0,0,0,6.33,3.2,26.91,26.91,0,0,0,8.32,1.17,26,26,0,0,0,12.17-2.65,26.67,26.67,0,0,0,8.57-7,37.76,37.76,0,0,0,5.61-9.81,61.88,61.88,0,0,0,3.19-11q.83-4,3.37-5.37a6.87,6.87,0,0,1,5.19-.65,8.9,8.9,0,0,1,4.61,3,7,7,0,0,1,1.6,5.49,83.17,83.17,0,0,1-1.6,8.39,50.9,50.9,0,0,1-3.36,9.57,53.88,53.88,0,0,1-5.73,9.51,39,39,0,0,1-8.57,8.33,43.45,43.45,0,0,1-11.93,5.91,50.37,50.37,0,0,1-15.72,2.25,41,41,0,0,1-16-3.25,41.62,41.62,0,0,1-13.71-9.34,45.23,45.23,0,0,1-9.57-15,53.79,53.79,0,0,1-3.6-20.27,68.87,68.87,0,0,1,3.19-21.32,60.68,60.68,0,0,1,8.39-17.07,41.55,41.55,0,0,1,11.81-11.29,25.65,25.65,0,0,1,13.59-4.07,22.7,22.7,0,0,1,9.15,1.77,19.26,19.26,0,0,1,6.92,5,22.44,22.44,0,0,1,4.31,7.74,31.75,31.75,0,0,1,1.48,9.93m-39,28.59a18.94,18.94,0,0,0,.11,2.12,20.11,20.11,0,0,1,.12,2.25,33.49,33.49,0,0,0,8.16-5.44,34.35,34.35,0,0,0,6.26-7.56,36.67,36.67,0,0,0,4-9.27,38.17,38.17,0,0,0,1.42-10.46,12.17,12.17,0,0,0-1.36-6.26,4.2,4.2,0,0,0-3.72-2.25,7.79,7.79,0,0,0-5.25,2,18.16,18.16,0,0,0-4,5.26,36.23,36.23,0,0,0-2.84,7.32,83.88,83.88,0,0,0-1.83,8.22,75.69,75.69,0,0,0-1,7.85,54.12,54.12,0,0,0-.11,6.21" transform="translate(-104.27 -209.68)"/></g></g></g><g class="cls-12"><path class="cls-13" d="M468.89,551.88c14.9,0,22.27,10.29,22.27,24.39,0,5.18-.8,10.44-3.36,15-4,7.23-10.08,9.35-18,9.35H457.57V551.88Zm1.82,37c6.14-.22,7-7.45,7-12.2,0-4.52-.94-12.56-7-12.56Z" transform="translate(-104.27 -209.68)"/><path class="cls-13" d="M498.32,600.59V551.88h13.15v48.71Z" transform="translate(-104.27 -209.68)"/><path class="cls-13" d="M555.29,574.44c0,6.06-.37,13.15-3.21,18.62s-8.4,8.4-14.54,8.4c-14.09,0-18.76-12.92-18.76-25S523.38,551,537.54,551c8.18,0,13.59,4.82,16.73,12l-12.78,4.67c-.22-2.11-1.32-5-3.87-5-5.41,0-5.41,11.17-5.41,14.9,0,3.43-.07,12.05,5,12.05,3.65,0,4.6-4.09,4.6-7H537V572.47h18.33Z" transform="translate(-104.27 -209.68)"/><path class="cls-13" d="M562.71,600.59V551.88h13.14v48.71Z" transform="translate(-104.27 -209.68)"/><path class="cls-13" d="M601.36,563.56v37H588.22v-37H581V551.88h27.6v11.68Z" transform="translate(-104.27 -209.68)"/><path class="cls-13" d="M633,600.59l-1-6.21h-8.83l-1.1,6.21H608.44l11.76-48.71h16.06l10.3,48.71ZM630.42,584c-1-6.79-1.9-13.58-2.48-20.45-.29,2.26-.51,4.6-.81,6.87-.65,4.52-1.38,9.05-2.26,13.58Z" transform="translate(-104.27 -209.68)"/><path class="cls-13" d="M652,600.59V551.88h13.14v37H675v11.69Z" transform="translate(-104.27 -209.68)"/><path class="cls-13" d="M700.75,600.59V551.88h24.39v11.46H713.9v7.09H724v11H713.9v7.45h11.24v11.69Z" transform="translate(-104.27 -209.68)"/><path class="cls-13" d="M753,600.59c-1.09-3-2-6.06-3.07-9.06a37.52,37.52,0,0,1-1.24-4c-.44,1.47-.87,2.85-1.31,4.31-1,3-2.12,5.85-3.22,8.77H729.8l11.83-25.27-11.17-23.44h14.6c1.25,3.87,2.56,7.66,3.73,11.54.8-3.88,2-7.75,3.14-11.54h14.75l-11.1,23.44,12,25.27Z" transform="translate(-104.27 -209.68)"/><path class="cls-13" d="M785.52,551.88a27.2,27.2,0,0,1,10.81,1.82c5.91,2.63,8.76,8.47,8.76,14.75,0,11.83-8,17.17-19.13,16.14v16H772.81V551.88Zm1.09,21.83c3.22,0,5.19-2.33,5.19-5.47s-1.75-5.7-5-5.7H786v11.17Z" transform="translate(-104.27 -209.68)"/><path class="cls-13" d="M810.87,600.59V551.88h24.39v11.46H824v7.09h10.08v11H824v7.45h11.25v11.69Z" transform="translate(-104.27 -209.68)"/><path class="cls-13" d="M863.76,600.59c-2.48-6.72-5-13.44-7.45-20.23.15,2.12.22,4.31.22,6.42v13.81H843.39V551.88h13.43A26.62,26.62,0,0,1,867,553.56c5.85,2.48,8.77,8.47,8.77,14.6,0,5.7-2.27,9.79-7.52,12.2L878,600.59Zm-6.35-26.15c3.36,0,5.26-3.06,5.26-6.13,0-3.95-2.41-5.48-6.14-5.48v11.61Z" transform="translate(-104.27 -209.68)"/><path class="cls-13" d="M883.64,600.59V551.88h13.15v48.71Z" transform="translate(-104.27 -209.68)"/><path class="cls-13" d="M905.57,600.59V551.88H930v11.46H918.72v7.09h10.07v11H918.72v7.45H930v11.69Z" transform="translate(-104.27 -209.68)"/><path class="cls-13" d="M959.78,600.59c-3.43-9.28-7.23-18.48-9.93-28.05.36,5.19.8,10.45.8,15.63v12.42H938.09V551.88h12.56L957.22,569c1.54,4,2.78,8.17,4,12.26a147.57,147.57,0,0,1-1.46-18V551.88h12.56v48.71Z" transform="translate(-104.27 -209.68)"/><path class="cls-13" d="M1007.37,599.71a17,17,0,0,1-7.82,1.75c-14,0-20-12.63-20-25.05,0-13.36,6.87-25.41,21.55-25.41a14.15,14.15,0,0,1,6.49,1.24v13.88c-1.75-1.83-3.43-2.92-6.06-2.92-6.93,0-8.54,7.44-8.54,13,0,5.4,1.61,12.56,8.32,12.56,2.85,0,4.82-1.32,6.87-3.14Z" transform="translate(-104.27 -209.68)"/><path class="cls-13" d="M1015.48,600.59V551.88h24.39v11.46h-11.25v7.09h10.08v11h-10.08v7.45h11.25v11.69Z" transform="translate(-104.27 -209.68)"/><path class="cls-13" d="M1078.64,551.88c14.9,0,22.27,10.29,22.27,24.39,0,5.18-.8,10.44-3.35,15-4,7.23-10.08,9.35-18,9.35h-12.27V551.88Zm1.83,37c6.13-.22,7-7.45,7-12.2,0-4.52-1-12.56-7-12.56Z" transform="translate(-104.27 -209.68)"/><path class="cls-13" d="M1108.12,600.59V551.88h24.39v11.46h-11.25v7.09h10.08v11h-10.08v7.45h11.25v11.69Z" transform="translate(-104.27 -209.68)"/><path class="cls-13" d="M1163.49,568.38c-1.68-2.56-4.45-5.33-7.74-5.33-1.68,0-3.43,1.1-3.43,2.92,0,5,12.56,6.28,12.56,19,0,9-6.13,16.5-15.48,16.5a25.68,25.68,0,0,1-9.93-2.12V584.08c2,2.7,4.82,5.33,8.32,5.33,1.9,0,3.87-1.09,3.87-3.21,0-5.19-12.41-6.86-12.41-19.21,0-8.47,6.06-16,14.82-16a20.39,20.39,0,0,1,9.42,2.48Z" transform="translate(-104.27 -209.68)"/><path class="cls-13" d="M1172.14,600.59V551.88h13.15v48.71Z" transform="translate(-104.27 -209.68)"/><path class="cls-13" d="M1229.11,574.44c0,6.06-.36,13.15-3.21,18.62s-8.4,8.4-14.54,8.4c-14.09,0-18.76-12.92-18.76-25s4.6-25.49,18.76-25.49c8.18,0,13.59,4.82,16.73,12l-12.78,4.67c-.22-2.11-1.32-5-3.87-5-5.41,0-5.41,11.17-5.41,14.9,0,3.43-.07,12.05,5,12.05,3.65,0,4.6-4.09,4.6-7h-4.82V572.47h18.33Z" transform="translate(-104.27 -209.68)"/><path class="cls-13" d="M1258.14,600.59c-3.44-9.28-7.23-18.48-9.94-28.05.37,5.19.81,10.45.81,15.63v12.42h-12.56V551.88H1249l6.57,17.09c1.53,4,2.78,8.17,4,12.26a147.57,147.57,0,0,1-1.46-18V551.88h12.56v48.71Z" transform="translate(-104.27 -209.68)"/></g></g></g></g></g></svg>