<?xml version="1.0" standalone="no"?>
<!DOCTYPE svg PUBLIC "-//W3C//DTD SVG 1.1//EN" "http://www.w3.org/Graphics/SVG/1.1/DTD/svg11.dtd">
<svg xmlns="http://www.w3.org/2000/svg">
<defs >
<font id="HeptaSlab" horiz-adv-x="1327" ><font-face
    font-family="Hepta Slab ExtraLight Light"
    units-per-em="2000"
    panose-1="0 0 0 0 0 0 0 0 0 0"
    ascent="1976"
    descent="-526"
    alphabetic="0" />
<glyph unicode=" " horiz-adv-x="623" />
<glyph unicode="!" horiz-adv-x="514" d="M203 1504H312L292 353H221L203 1504ZM184 142H330V0H184V142Z" />
<glyph unicode="&quot;" horiz-adv-x="526" d="M112 1504H196L184 1024H123L112 1504ZM330 1504H414L402 1024H341L330 1504Z" />
<glyph unicode="#" horiz-adv-x="1293" d="M593 1504L265 0H182L510 1504H593ZM1112 1504L784 0H701L1029 1504H1112ZM1242 1058V982H148V1058H1242ZM1146 522V446H52V522H1146Z" />
<glyph unicode="$" horiz-adv-x="1415" d="M751 1681V-188H694V1681H751ZM791 -20Q562 -20 429 72T259 314H236L253 456Q282 265 420 163T781 60Q980 60 1083 143T1187 382Q1187 482 1142 550T993 661T719 731Q524 762 402 814T224 948T167 1145Q167 1326 292
1425T637 1524Q786 1524 889 1481T1051 1363T1131 1190H1154L1135 1048Q1105 1240 981 1342T649 1444Q468 1444 364 1368T259 1149Q259 1060 305 998T455 894T733 823Q930 791 1050 737T1226 597T1281 387Q1281 193 1154 87T791 -20ZM162 0V456H253V0H162ZM1135
1048V1504H1226V1048H1135Z" />
<glyph unicode="%" horiz-adv-x="1647" d="M229 -1L1312 1505H1418L335 -1H229ZM440 758Q349 758 282 806T179 941T142 1140Q142 1310 223 1416T440 1523Q530 1523 597 1475T701 1340T739 1140Q739 1027 702 941T597 807T440 758ZM440 836Q505 836 554 874T629
980T655 1140Q655 1232 629 1301T554 1407T440 1445Q375 1445 327 1408T252 1301T225 1140Q225 1049 251 981T326 874T440 836ZM1206 -18Q1115 -18 1048 31T944 166T906 365Q906 478 943 564T1048 698T1206 747Q1296 747 1363 699T1468 564T1505 365Q1505 252 1468
166T1364 31T1206 -18ZM1206 59Q1272 59 1320 97T1395 205T1422 365Q1422 457 1396 525T1321 632T1206 670Q1140 670 1092 632T1017 526T990 365Q990 273 1016 205T1091 98T1206 59Z" />
<glyph unicode="&amp;" horiz-adv-x="1588" d="M1401 84H1523V0H1364L529 773Q418 862 357 935T272 1073T247 1202Q247 1300 292 1371T417 1482T606 1521L609 1441Q486 1441 411 1374T335 1198Q335 1145 359 1089T439 968T587 829L1401 84ZM1336 1057H1424Q1382
728 1276 487T996 115T581 -17Q425 -17 314 39T143 189T84 401Q84 558 198 673T551 846L561 844Q718 900 799 985T880 1188Q880 1309 803 1375T609 1441L606 1521Q713 1521 794 1482T922 1369T968 1192Q968 1045 870 941T586 772H577Q364 718 270 622T175 400Q175
304 224 229T365 110T581 66Q797 66 951 187T1200 531T1336 1057Z" />
<glyph unicode="&apos;" horiz-adv-x="308" d="M112 1504H196L184 1024H123L112 1504Z" />
<glyph unicode="(" horiz-adv-x="660" d="M253 582Q253 347 294 159T402 -173T552 -420H442Q319 -247 240 1T161 582Q161 915 241 1163T449 1584H552Q470 1481 403 1337T294 1005T253 582Z" />
<glyph unicode=")" horiz-adv-x="660" d="M407 582Q407 817 366 1005T258 1337T108 1584H218Q341 1411 420 1163T499 582Q499 249 419 1T211 -420H108Q190 -317 257 -173T366 159T407 582Z" />
<glyph unicode="*" horiz-adv-x="812" d="M445 1580L427 1213L445 850H367L384 1214L367 1580H445ZM702 1430L742 1363L416 1195L110 997L70 1066L396 1234L702 1430ZM110 1430L416 1234L742 1066L702 997L396 1195L70 1363L110 1430Z" />
<glyph unicode="+" horiz-adv-x="1159" d="M538 313V685H163V761H538V1130H622V761H997L995 685H622V313H538Z" />
<glyph unicode="," horiz-adv-x="370" d="M113 142H258V0H113V142ZM200 126H258V-72Q258 -144 218 -181T112 -219V-165Q152 -163 176 -141T200 -72V126Z" />
<glyph unicode="-" horiz-adv-x="705" d="M625 601V525H80V601H625Z" />
<glyph unicode="." horiz-adv-x="368" d="M112 142H257V0H112V142Z" />
<glyph unicode="/" horiz-adv-x="711" d="M684 1580L140 -168H56L600 1580H684Z" />
<glyph unicode="0" horiz-adv-x="1395" d="M697 -18Q521 -18 397 74T208 340T142 756Q142 996 207 1167T397 1430T697 1522Q874 1522 998 1431T1188 1168T1254 756Q1254 513 1189 340T998 75T697 -18ZM697 70Q920 70 1040 251T1160 756Q1160 1077 1040 1255T697
1434Q475 1434 355 1256T234 756Q234 433 354 252T697 70Z" />
<glyph unicode="1" horiz-adv-x="978" d="M501 1504H556V84H891V0H132V84H466V1444L501 1504ZM149 1264H240Q314 1264 365 1291T444 1371T475 1504H511L489 1331H461Q441 1251 382 1213T224 1175H149V1264Z" />
<glyph unicode="2" horiz-adv-x="1315" d="M1177 370Q1177 182 1096 83T863 -16Q795 -16 744 0T649 37T559 74T451 90Q392 90 338 70T247 0L212 6L242 108L265 92Q296 135 349 155T468 176Q532 176 579 161T667 124T752 87T857 71Q973 71 1029 145T1086 370H1177ZM715
651Q857 754 938 851T1019 1081Q1019 1179 976 1258T850 1385T650 1432Q484 1432 382 1334T251 1064L161 1072Q182 1212 246 1313T413 1468T653 1522Q798 1522 901 1464T1059 1306T1114 1085Q1114 980 1074 895T958 736T778 587L497 388Q410 327 352 264T266 134T238
0H155V6Q155 83 186 159T280 309T443 456L715 651Z" />
<glyph unicode="3" horiz-adv-x="1197" d="M73 437L162 455Q197 279 303 176T598 73Q724 73 812 118T946 241T993 414Q993 517 940 593T787 712T551 755V818Q716 818 837 768T1024 626T1090 405Q1090 287 1033 192T865 41T596 -16Q367 -16 240 104T73 437ZM106
1084Q125 1303 249 1412T580 1522Q723 1522 827 1474T987 1340T1043 1144Q1043 1036 985 954T817 825T551 779V843Q678 843 766 880T900 982T946 1135Q946 1220 902 1287T776 1393T580 1433Q411 1433 313 1345T196 1075L106 1084ZM477 843H551V755H477V843Z" />
<glyph unicode="4" horiz-adv-x="1281" d="M924 1504V84H1180V0H561V84H834V1427L801 1504H924ZM1180 538V459H79V538H1180ZM801 1504L879 1469L151 492L79 538L801 1504Z" />
<glyph unicode="5" horiz-adv-x="1348" d="M201 258L290 296Q343 190 444 132T684 73Q819 73 920 127T1078 277T1135 501Q1135 630 1080 728T926 881T694 937Q529 937 416 851T279 627L281 779L305 776Q327 848 378 904T511 993T703 1025Q861 1025 980 958T1167
773T1234 501Q1234 347 1165 230T972 48T684 -17Q510 -17 386 57T201 258ZM398 1504L279 627L193 643L307 1504H398ZM366 1420V1504H1109V1420H366Z" />
<glyph unicode="6" d="M693 73Q817 73 912 125T1061 270T1115 489Q1115 613 1063 708T916 858T690 912Q567 912 472 862T323 718T269 497L253 478L226 574H247L251 599Q268 726 325 815T479 953T706 1001Q861 1001 974 934T1150 751T1212 489Q1212 339 1148 225T968
47T693 -17V73ZM693 -17Q512 -17 385 72T200 326Q171 408 157 515T142 755Q142 994 198 1166T375 1430T692 1522Q871 1522 995 1442T1188 1207L1098 1167Q1040 1301 938 1366T692 1431Q524 1431 424 1349T279 1116T234 755Q234 692 238 631T254 495L269 497Q269
371 322 276T470 127T693 73V-17Z" />
<glyph unicode="7" horiz-adv-x="1207" d="M1166 1504L525 0H424L1047 1445L1068 1504H1166ZM182 1339Q201 1428 258 1472T399 1517Q461 1517 508 1498T601 1454T700 1410T824 1390Q893 1390 962 1415T1068 1504L1042 1388L1022 1397Q981 1347 924 1324T797 1301Q727
1301 675 1320T580 1364T491 1407T387 1426Q298 1426 238 1371T177 1206L149 1339H182ZM177 1504V1078H87V1504H177Z" />
<glyph unicode="8" horiz-adv-x="1250" d="M625 -17Q471 -17 355 36T173 184T108 401Q108 524 173 617T354 764T625 818Q779 818 895 765T1077 618T1142 401Q1142 279 1077 185T896 37T625 -17ZM625 73Q749 73 844 116T992 236T1046 412Q1046 512 993 588T844
708T625 751Q501 751 406 708T258 589T204 412Q204 313 257 237T406 117T625 73ZM625 763Q483 763 376 811T208 945T148 1140Q148 1251 208 1337T375 1473T625 1522Q767 1522 874 1473T1042 1338T1102 1140Q1102 1030 1042 945T875 812T625 763ZM625 831Q737 831
823 869T957 975T1006 1131Q1006 1220 958 1288T823 1394T625 1433Q513 1433 427 1395T293 1288T244 1131Q244 1043 292 975T427 869T625 831Z" />
<glyph unicode="9" horiz-adv-x="1329" d="M636 1437Q512 1437 417 1385T268 1240T214 1021Q214 897 266 802T413 652T639 598Q762 598 857 648T1006 792T1060 1013L1076 1032L1103 936H1082L1078 911Q1061 784 1004 695T850 557T623 509Q468 509 355 576T179
759T117 1021Q117 1171 181 1285T361 1463T636 1527V1437ZM636 1527Q817 1527 944 1438T1129 1184Q1158 1102 1172 995T1187 755Q1187 516 1131 344T954 80T637 -12Q458 -12 334 68T141 303L231 343Q289 209 391 144T637 79Q805 79 905 161T1050 394T1095 755Q1095
818 1091 879T1075 1015L1060 1013Q1060 1139 1007 1234T859 1383T636 1437V1527Z" />
<glyph unicode=":" horiz-adv-x="368" d="M112 142H257V0H112V142ZM112 810H257V668H112V810Z" />
<glyph unicode=";" horiz-adv-x="370" d="M114 810H259V668H114V810ZM113 142H258V0H113V142ZM200 126H258V-72Q258 -144 218 -181T112 -219V-165Q152 -163 176 -141T200 -72V126Z" />
<glyph unicode="&lt;" horiz-adv-x="1158" d="M957 1057L192 723V720L957 385V292L109 675V768L957 1150V1057Z" />
<glyph unicode="=" horiz-adv-x="1200" d="M1065 984V908H135V984H1065ZM1065 535V459H135V535H1065Z" />
<glyph unicode="&gt;" horiz-adv-x="1158" d="M201 1057L966 723V720L201 385V292L1049 675V768L201 1150V1057Z" />
<glyph unicode="?" horiz-adv-x="1115" d="M121 891Q100 936 89 984T78 1080Q78 1206 140 1306T314 1463T572 1521Q723 1521 832 1460T1002 1298T1062 1078Q1062 982 1030 912T945 790T835 693T726 606T642 512T609 394V338H518V396Q518 475 550 533T634 639T742
731T850 825T933 935T965 1078Q965 1171 918 1251T782 1381T572 1431Q453 1431 364 1385T224 1259T173 1080Q173 1037 183 998T209 923L121 891ZM495 134H630V0H495V134Z" />
<glyph unicode="@" horiz-adv-x="2153" d="M966 -437Q777 -432 620 -368T349 -189T173 84T111 436Q111 676 188 874T408 1218T747 1442T1180 1521Q1373 1521 1532 1459T1807 1283T1985 1010T2048 659L1958 654Q1958 892 1859 1068T1585 1341T1180 1438Q963 1438
784 1366T474 1161T273 844T202 436Q202 203 299 27T568 -249T966 -354Q1123 -354 1258 -317T1501 -209L1548 -279Q1430 -354 1284 -396T966 -437ZM939 24Q843 24 765 73T640 216T589 448Q586 566 619 674T717 867T874 1001T1082 1050Q1193 1050 1276 1000T1408
856T1460 630Q1460 580 1452 528T1426 426L1359 309L1339 313Q1295 221 1233 157T1095 58T939 24ZM963 104Q1056 104 1135 149T1273 271T1363 441T1391 633Q1386 796 1305 883T1091 970Q962 970 868 896T724 702T677 443Q681 277 761 191T963 104ZM1572 24Q1477
24 1419 67T1345 195T1361 403L1450 563L1407 606L1513 1032H1601L1443 406Q1405 258 1437 181T1578 104Q1645 104 1712 135T1834 232T1924 402T1958 654L2048 659Q2048 497 2007 377T1897 179T1744 62T1572 24Z" />
<glyph unicode="A" horiz-adv-x="1684" d="M1252 592V510H435V592H1252ZM1491 84H1651V0H1010V84H1395L827 1435L887 1393H794L853 1435L284 84H670V0H33V84H192L790 1504H894L1491 84Z" />
<glyph unicode="B" horiz-adv-x="1473" d="M599 1420L602 1504H812Q1041 1504 1172 1410T1303 1125Q1303 938 1177 850T807 762H386V806H811Q944 806 1031 843T1162 950T1205 1114Q1205 1272 1095 1346T796 1420H599ZM605 84H821Q1026 84 1143 165T1261 407Q1261
492 1226 553T1130 652T986 707T809 725H386V781H809Q923 781 1022 763T1197 702T1316 584T1359 399Q1359 206 1225 103T857 0H605V84ZM55 1420V1504H677V1420H411V84H677V0H55V84H320V1420H55ZM878 786H974V761H878V786Z" />
<glyph unicode="C" horiz-adv-x="1655" d="M848 -18Q685 -18 548 38T311 198T155 444T99 756Q99 925 152 1065T305 1307T542 1465T849 1522Q1021 1522 1149 1465T1358 1304T1472 1061H1504L1477 914Q1429 1164 1263 1297T851 1431Q653 1431 506 1346T277 1108T196
756Q196 605 244 480T380 263T586 122T848 72Q1010 72 1142 137T1361 320T1480 597L1574 577Q1538 397 1438 263T1186 56T848 -18ZM1477 914V1504H1568V914H1477Z" />
<glyph unicode="D" horiz-adv-x="1670" d="M623 0V84H782Q992 84 1147 169T1388 406T1474 756Q1474 952 1389 1102T1148 1336T782 1420H625V1504H782Q1020 1504 1197 1409T1473 1145T1571 756Q1571 533 1473 363T1198 96T782 0H623ZM55 0V84H320V1420H55V1504H663V1420H410V84H663V0H55Z"
/>
<glyph unicode="E" horiz-adv-x="1566" d="M1053 800V718H370V800H1053ZM1361 407H1451V0H55V84H320V1420H55V1504H1433V1097H1343V1420H410V84H1361V407Z" />
<glyph unicode="F" horiz-adv-x="1408" d="M996 800V718H370V800H996ZM1361 1504V1097H1271V1420H410V84H715V0H55V84H320V1420H55V1504H1361Z" />
<glyph unicode="G" horiz-adv-x="1808" d="M843 -18Q682 -18 546 39T310 199T155 444T99 756Q99 925 153 1065T307 1307T546 1465T855 1522Q1027 1522 1153 1464T1360 1303T1472 1061H1503L1477 914Q1428 1164 1265 1297T856 1431Q657 1431 509 1346T278 1108T196
756Q196 605 244 480T380 264T586 123T848 73Q1016 73 1151 144T1375 343T1489 646L1559 627Q1531 433 1433 289T1183 63T843 -18ZM1518 0L1486 474V707H1578V0H1518ZM979 628V713H1778V628H979ZM1477 914V1504H1567V914H1477Z" />
<glyph unicode="H" horiz-adv-x="1818" d="M1440 800V718H370V800H1440ZM55 1420V1504H675V1420H410V84H675V0H55V84H320V1420H55ZM1145 1420V1504H1764V1420H1500V84H1764V0H1145V84H1410V1420H1145Z" />
<glyph unicode="I" horiz-adv-x="730" d="M55 1420V1504H675V1420H410V84H675V0H55V84H320V1420H55Z" />
<glyph unicode="J" horiz-adv-x="1201" d="M476 -17Q258 -17 153 110T47 475V572H137V475Q137 279 222 176T475 73Q645 73 733 175T821 475V1420H506V1504H1178V1420H912V475Q912 319 864 209T718 41T476 -17Z" />
<glyph unicode="K" horiz-adv-x="1785" d="M55 1420V1504H675V1420H410V84H675V0H55V84H320V1420H55ZM853 911L1564 84H1752V0H986V84H1449L798 843L853 911ZM360 508L1351 1420H929V1504H1676V1420H1470L390 431L360 508Z" />
<glyph unicode="L" horiz-adv-x="1326" d="M55 1420V1504H681V1420H410V84H1225V0H55V84H320V1420H55ZM1279 497V0H1188V497H1279Z" />
<glyph unicode="M" horiz-adv-x="2140" d="M1023 0L408 1431L474 1504L1084 83H1057L1667 1504L1727 1431L1112 0H1023ZM55 0V84H320V1420H55V1504H473L466 1420H405V84H677V0H55ZM1456 0V84H1730V1420H1664L1665 1504H2085V1420H1820V84H2085V0H1456Z" />
<glyph unicode="N" horiz-adv-x="1820" d="M1402 0L347 1504H455L1510 0H1402ZM55 1422V1504H454L452 1405H405V84H668V0H55V84H320V1422H55ZM1154 1420V1504H1787V1420H1521V0H1406L1374 124H1436V1420H1154Z" />
<glyph unicode="O" horiz-adv-x="1732" d="M866 -18Q696 -18 556 38T313 197T155 443T99 756Q99 925 155 1065T313 1308T555 1466T866 1522Q1036 1522 1176 1467T1419 1309T1577 1066T1633 756Q1633 585 1577 443T1419 198T1177 38T866 -18ZM866 71Q1065 71 1216
158T1452 399T1537 756Q1537 956 1452 1108T1216 1347T866 1433Q667 1433 516 1347T281 1109T196 756Q196 554 280 400T516 158T866 71Z" />
<glyph unicode="P" horiz-adv-x="1457" d="M55 0V84H320V1420H55V1504H410V84H675V0H55ZM397 718V800H870Q1079 800 1185 881T1292 1109Q1292 1261 1183 1340T868 1420H386V1504H872Q1128 1504 1256 1401T1384 1114Q1384 1036 1357 965T1270 838T1110 750T865 718H397Z" />
<glyph unicode="Q" horiz-adv-x="1731" d="M866 -18Q696 -17 555 39T312 199T155 443T99 756Q99 925 155 1065T313 1307T555 1465T866 1522Q1036 1522 1176 1466T1419 1307T1577 1065T1633 756Q1633 586 1577 444T1419 199T1177 39T866 -18ZM866 73Q1065 73 1216
159T1451 400T1536 756Q1536 955 1452 1107T1216 1345T866 1431Q667 1431 516 1345T281 1107T196 756Q196 555 280 401T516 160T866 73ZM1025 17Q925 -10 865 -34T779 -88T753 -162Q753 -217 794 -248T931 -280H1548V-364H927Q784 -364 723 -312T661 -173Q661 -78
742 -25T1024 65L1025 17Z" />
<glyph unicode="R" horiz-adv-x="1580" d="M930 776Q1016 772 1063 736T1135 632L1332 84H1505V0H1267L1061 580Q1034 657 994 687T879 718H810L930 776ZM596 1420V1504H872Q1128 1504 1256 1403T1384 1131Q1384 1028 1338 947T1211 814T1021 746V728L887 718H397V800H866Q1005
800 1099 841T1243 955T1292 1124Q1292 1264 1183 1342T868 1420H596ZM55 1420V1504H675V1420H410V84H675V0H55V84H320V1420H55Z" />
<glyph unicode="S" d="M746 -20Q517 -20 384 72T213 314H191L208 456Q237 265 375 163T736 60Q935 60 1038 143T1142 382Q1142 482 1097 550T948 661T674 731Q479 762 357 814T179 948T122 1145Q122 1326 247 1425T592 1524Q741 1524 844 1481T1006 1363T1086
1190H1109L1090 1048Q1060 1240 936 1342T604 1444Q423 1444 319 1368T214 1149Q214 1060 260 998T410 894T688 823Q885 791 1005 737T1181 597T1236 387Q1236 193 1109 87T746 -20ZM117 0V456H208V0H117ZM1090 1048V1504H1181V1048H1090Z" />
<glyph unicode="T" horiz-adv-x="1500" d="M1447 1504V1048H1356V1420H795V84H1059V0H438V84H704V1420H145V1048H53V1504H1447Z" />
<glyph unicode="U" horiz-adv-x="1720" d="M1081 1504H1693V1420H1432V587Q1432 402 1371 266T1184 56T859 -18Q662 -18 536 56T350 266T289 587V1420H27V1504H644V1420H380V587Q380 428 429 312T585 133T861 70Q1031 70 1138 133T1295 312T1346 587V1420H1081V1504Z" />
<glyph unicode="V" horiz-adv-x="1678" d="M1485 1420L891 0H787L193 1420H33V1504H686V1420H289L855 69L791 106H884L829 69L1395 1420H998V1504H1645V1420H1485Z" />
<glyph unicode="W" horiz-adv-x="2483" d="M1852 1504H2451V1420H2293L1813 0H1702L1207 1420L1287 1304H1199L1280 1420L779 0H669L190 1420H33V1504H631V1420H284L760 0L677 114H769L690 0L1194 1420H903V1504H1584V1420H1297L1796 0L1712 114H1804L1726 0L2205
1420H1852V1504Z" />
<glyph unicode="X" horiz-adv-x="1654" d="M1422 1420L855 721L881 794V706L859 778L1411 84H1621V0H993V84H1297L795 720L869 688H780L843 718L340 84H660V0H31V84H232L798 783L771 708V798L794 726L242 1420H31V1504H660V1420H356L858 784L784 816H872L809 786L1314
1420H993V1504H1621V1420H1422Z" />
<glyph unicode="Y" horiz-adv-x="1658" d="M1455 1420L870 679H789L203 1420H33V1504H636V1420H314L859 731L783 767H875L810 731L1353 1420H1021V1504H1625V1420H1455ZM875 747V84H1139V0H518V84H783V747H875Z" />
<glyph unicode="Z" horiz-adv-x="1324" d="M77 84L1127 1415V1445L1244 1420L194 89V58L77 84ZM1244 1504V1420H202V1097H110V1504H1244ZM1151 407H1242V0H77V84H1151V407Z" />
<glyph unicode="[" horiz-adv-x="888" d="M849 1588V1504H426V-349H867V-433H335V1588H849Z" />
<glyph unicode="\" horiz-adv-x="712" d="M27 1580H112L656 -168H571L27 1580Z" />
<glyph unicode="]" horiz-adv-x="888" d="M39 1588V1504H462V-349H21V-433H553V1588H39Z" />
<glyph unicode="^" horiz-adv-x="1161" d="M625 1580L931 966H841L582 1498H579L321 966H231L535 1580H625Z" />
<glyph unicode="_" horiz-adv-x="1000" d="M1000 -167V-243H0V-167H1000Z" />
<glyph unicode="`" horiz-adv-x="531" d="M391 1553L338 1485L660 1255L703 1311L391 1553Z" />
<glyph unicode="a" horiz-adv-x="1236" d="M969 0Q943 0 930 16T916 61V444L924 470L920 588L916 638V722Q916 821 877 880T765 967T594 994Q440 994 361 936T251 759L166 778Q190 877 242 943T381 1042T596 1075Q725 1075 816 1040T956 929T1004 727V76H1169V0H969ZM455
-14Q294 -14 210 55T125 263Q125 394 203 461T442 564L944 674V607L456 496Q337 470 277 418T217 268Q217 165 281 115T468 64Q595 64 697 118T860 289T920 588L943 350H911Q883 184 767 85T455 -14Z" />
<glyph unicode="b" horiz-adv-x="1407" d="M239 -12V1504H7V1580H327V659L323 557V452L327 317L257 -12H239ZM770 -18Q628 -18 518 40T340 204T258 450L322 529Q322 393 377 288T531 123T764 62Q898 62 997 121T1150 287T1205 530Q1205 666 1149 771T993 936T764
996Q632 996 533 937T378 772T322 529L309 727H330Q347 811 403 891T555 1023T782 1076Q894 1076 988 1036T1151 922T1258 748T1296 528Q1296 369 1230 246T1045 53T770 -18Z" />
<glyph unicode="c" horiz-adv-x="1232" d="M647 -17Q487 -17 367 52T181 244T114 526Q114 647 151 747T256 921T420 1035T631 1076Q750 1076 835 1035T971 925T1037 771H1061L1042 636Q1028 744 974 825T835 951T638 996Q509 996 411 936T259 770T205 526Q205
390 260 286T414 123T648 64Q789 64 892 129T1049 306L1129 270Q1066 138 944 61T647 -17ZM1042 636V1057H1130V636H1042Z" />
<glyph unicode="d" horiz-adv-x="1448" d="M1082 0V413L1086 471V585L1082 685V1504H773V1580H1170V76H1387V0H1082ZM636 1075Q777 1075 886 1012T1063 836T1144 570L1086 530Q1086 666 1031 770T877 935T645 995Q513 995 414 935T259 770T203 529Q203 392 259
287T415 122T645 61Q777 61 876 121T1030 287T1086 530L1099 330H1078Q1062 248 1006 168T854 35T626 -18Q514 -18 420 22T257 135T150 309T112 529Q112 688 178 811T362 1004T636 1075Z" />
<glyph unicode="e" horiz-adv-x="1251" d="M644 -17Q484 -17 365 52T181 244T115 526Q115 687 180 811T363 1005T638 1076Q794 1076 908 1007T1086 817T1149 536Q1149 525 1149 517T1148 502H1060Q1061 511 1061 521T1061 543Q1061 676 1010 778T863 938T638 996Q509
996 411 936T258 770T203 526Q203 390 258 286T411 123T643 64Q783 64 888 131T1046 315L1130 283Q1068 144 941 64T644 -17ZM170 502V573H1120L1145 502H170Z" />
<glyph unicode="f" horiz-adv-x="862" d="M99 0V76H316V981H99V1057H316V1248Q316 1417 404 1507T657 1597Q797 1597 877 1533T983 1347L903 1322Q881 1420 820 1467T656 1515Q539 1515 472 1451T404 1248V1057H778V981H404V76H674V0H99Z" />
<glyph unicode="g" horiz-adv-x="1246" d="M606 -437Q467 -437 357 -411T184 -326T120 -169Q120 -71 183 -17T349 53V67L524 53Q404 52 333 23T231 -53T200 -158Q200 -237 253 -283T399 -349T610 -369Q848 -369 956 -301T1064 -119Q1064 53 837 53H428Q313 53
251 94T188 212Q188 285 246 324T416 367V389L601 342H474Q374 342 323 315T272 234Q272 184 317 161T454 137H836Q936 137 1006 107T1112 20T1148 -117Q1148 -209 1095 -281T922 -395T606 -437ZM601 342Q478 342 382 387T230 515T174 707Q174 818 229 901T380
1030T601 1076Q732 1076 832 1025T983 883Q1006 846 1017 802T1028 707Q1028 597 973 515T822 388T601 342ZM601 414Q700 414 777 450T897 553T941 707Q941 796 898 863T777 967T601 1004Q502 1004 425 967T303 863T259 707Q259 619 304 553T426 451T601 414ZM1028
707L990 824L950 899L975 909Q972 919 971 929T969 950Q969 987 988 1021T1045 1076T1143 1097Q1157 1097 1168 1096T1193 1092V1007Q1176 1010 1162 1011T1133 1013Q1083 1013 1054 997T1013 956T1000 906Q1000 879 1007 853T1021 793T1028 707Z" />
<glyph unicode="h" horiz-adv-x="1456" d="M397 76H609V0H77V76H309V1504H77V1580H397V76ZM1102 76V684Q1102 832 1036 916T824 1000Q705 1000 609 942T455 773T397 501L375 714H402Q425 825 483 906T633 1033T847 1078Q1028 1078 1109 978T1190 697V76H1410V0H891V76H1102Z"
/>
<glyph unicode="i" horiz-adv-x="707" d="M432 76H650V0H113V76H344V981H113V1057H432V76ZM319 1465H446V1334H319V1465Z" />
<glyph unicode="j" horiz-adv-x="634" d="M73 1057H420V-151Q420 -291 350 -364T145 -437Q30 -437 -34 -383T-119 -227L-40 -204Q-21 -280 23 -317T146 -355Q232 -355 282 -306T332 -151V981H73V1057ZM308 1465H435V1334H308V1465Z" />
<glyph unicode="k" horiz-adv-x="1427" d="M397 76H609V0H77V76H309V1504H77V1580H397V76ZM779 667L1227 76H1370V0H824V76H1116L715 614L779 667ZM371 299L352 372L1076 981H724V1057H1349V981H1194L371 299Z" />
<glyph unicode="l" horiz-adv-x="692" d="M399 76H636V0H77V76H311V1504H77V1580H399V76Z" />
<glyph unicode="m" horiz-adv-x="2172" d="M1607 0V76H1818V681Q1818 832 1753 916T1548 1000Q1435 1000 1348 942T1212 775T1162 513L1138 727H1167Q1193 904 1304 991T1571 1078Q1742 1078 1824 978T1906 696V76H2125V0H1607ZM99 0V76H330V981H99V1057H418V76H630V0H99ZM863
0V76H1074V681Q1074 832 1010 916T804 1000Q691 1000 604 942T468 775T418 513L394 727H423Q449 904 560 991T827 1078Q1000 1078 1081 978T1162 696V76H1383V0H863Z" />
<glyph unicode="n" horiz-adv-x="1482" d="M422 76H635V0H99V76H334V981H99V1057H422V76ZM1127 76V683Q1127 831 1061 915T847 1000Q729 1000 633 944T479 778T422 513L399 725H428Q450 830 508 909T656 1032T868 1076Q1050 1076 1132 975T1215 693V76H1435V0H915V76H1127Z"
/>
<glyph unicode="o" horiz-adv-x="1315" d="M657 -17Q495 -17 372 52T180 244T111 526Q111 687 180 811T371 1005T657 1076Q820 1076 943 1006T1135 811T1204 526Q1204 366 1135 244T943 53T657 -17ZM657 64Q793 64 895 122T1055 284T1112 526Q1112 663 1055 768T896
934T657 994Q522 994 420 934T260 769T203 526Q203 389 260 285T419 122T657 64Z" />
<glyph unicode="p" horiz-adv-x="1478" d="M75 -420V-344H308V981H75V1057H396V649L393 568V497L396 433V-344H625V-420H75ZM844 -18Q703 -18 593 45T416 221T335 487L393 528Q393 393 448 288T602 122T835 62Q967 62 1066 122T1220 287T1276 529Q1276 665 1220
770T1064 936T835 996Q703 996 604 936T449 771T393 528L380 727H401Q418 811 474 891T626 1023T853 1076Q965 1076 1059 1036T1222 922T1329 748T1367 529Q1367 370 1301 247T1117 53T844 -18Z" />
<glyph unicode="q" horiz-adv-x="1406" d="M1169 -344H1400V-420H828V-344H1081V417L1086 475V563L1081 656V765L1151 1071H1169V-344ZM639 1075Q780 1075 890 1017T1069 853T1150 607L1086 529Q1086 665 1031 770T877 935T645 995Q511 995 412 936T258 772T203
527Q203 391 259 286T415 121T645 61Q777 61 876 121T1030 286T1086 529L1099 330H1078Q1062 248 1006 168T854 35T626 -18Q514 -18 420 22T257 135T150 309T112 529Q112 689 178 812T363 1005T639 1075Z" />
<glyph unicode="r" horiz-adv-x="897" d="M422 76H645V0H99V76H334V981H99V1057H422V76ZM856 968Q841 972 824 974T780 977Q617 977 520 851T422 501L398 728H427Q443 826 489 904T610 1027T790 1073Q809 1073 823 1072T856 1067V968Z" />
<glyph unicode="s" horiz-adv-x="1076" d="M601 -17Q486 -17 408 16T285 103T221 218H197L216 336Q238 212 331 134T584 56Q721 56 799 113T878 277Q878 372 803 427T549 510Q329 543 233 614T137 807Q137 932 229 1003T481 1074Q595 1074 669 1041T784 957T838
851H862L843 736Q823 854 736 928T493 1003Q370 1003 297 952T223 808Q223 718 304 669T562 592Q779 558 872 483T965 279Q965 140 869 62T601 -17ZM128 0V336H216V0H128ZM843 736V1057H931V736H843Z" />
<glyph unicode="t" horiz-adv-x="847" d="M341 275Q341 173 381 119T510 65Q595 65 637 119T679 275V368H761V275Q761 182 733 117T649 17T509 -17Q420 -17 364 17T281 117T253 275L255 981H52V1057H255V1327H343V1057H751V981H343L341 275Z" />
<glyph unicode="u" horiz-adv-x="1399" d="M1025 981H804V1057H1113V76H1342V0H1025V981ZM348 1057V381Q348 231 413 145T625 58Q742 58 832 116T974 283T1025 545L1050 332H1020Q990 160 876 70T600 -20Q422 -20 341 83T260 367V981H47V1057H348Z" />
<glyph unicode="v" horiz-adv-x="1264" d="M770 1057H1233V981H1105L685 0H588L159 981H31V1057H501V981H254L676 0L592 92H678L604 0L1017 981H770V1057Z" />
<glyph unicode="w" horiz-adv-x="1956" d="M1427 1057H1916V981H1768L1412 0H1308L949 987L1019 895H935L1007 987L658 0H554L188 981H39V1057H526V981H283L635 0L561 88H648L579 0L932 981H730V1057H1232V981H1034L1395 0L1319 88H1405L1340 0L1683 981H1427V1057Z" />
<glyph unicode="x" horiz-adv-x="1214" d="M1034 981L629 505L657 576V490L629 563L1036 76H1171V0H711V76H929L576 509L641 478H560L626 509L272 76H493V0H43V76H174L582 559L554 486V572L582 501L182 981H43V1057H502V981H289L635 554L570 584H653L586 554L936
981H719V1057H1171V981H1034Z" />
<glyph unicode="y" horiz-adv-x="1289" d="M762 1057H1258V981L1100 980L634 -157Q583 -284 480 -352T219 -420H121V-341H219Q343 -341 428 -290T554 -138L632 47L618 -30L200 981H31V1057H536V981H297L683 26L603 99H687L641 54L1012 981H762V1057Z" />
<glyph unicode="z" horiz-adv-x="1148" d="M123 74L917 980V1009L1034 984L242 79V47L123 74ZM1034 1057V984H240V740H152V1057H1034ZM944 319H1032V0H123V74H944V319Z" />
<glyph unicode="{" horiz-adv-x="1041" d="M757 1516Q639 1516 581 1450T522 1256V821Q522 697 452 633T243 569V624Q434 624 434 817V1249Q434 1361 472 1438T582 1557T757 1598Q797 1598 842 1591T940 1570L923 1491Q874 1506 833 1511T757 1516ZM199 624H243V542H199V624ZM764
-358Q799 -358 838 -353T923 -335L940 -406Q881 -419 831 -426T741 -434Q593 -434 514 -346T434 -93V347Q434 444 387 493T243 542V615Q382 615 452 551T522 359V-82Q522 -358 764 -358Z" />
<glyph unicode="|" horiz-adv-x="596" d="M257 1580H338L340 -168H256L257 1580Z" />
<glyph unicode="}" horiz-adv-x="1041" d="M284 -352Q402 -352 460 -286T519 -92V343Q519 467 589 531T798 595V540Q607 540 607 347V-85Q607 -197 569 -274T459 -393T284 -434Q244 -434 199 -427T101 -406L118 -327Q167 -342 208 -347T284 -352ZM842 540H798V622H842V540ZM277
1522Q242 1522 203 1517T118 1499L101 1570Q160 1583 210 1590T300 1598Q448 1598 527 1510T607 1257V817Q607 720 654 671T798 622V549Q659 549 589 613T519 805V1246Q519 1522 277 1522Z" />
<glyph unicode="~" horiz-adv-x="1120" d="M959 840L1039 832Q1016 705 947 647T775 588Q706 588 652 614T535 688Q482 731 440 751T348 772Q280 772 231 732T161 603L81 613Q105 736 173 795T346 855Q417 855 470 830T586 756Q637 714 681 693T774 671Q843 671
891 712T959 840Z" />
<glyph unicode="&#xa0;" horiz-adv-x="623" />
<glyph unicode="&#xa1;" horiz-adv-x="514" d="M203 -446H312L292 705H221L203 -446ZM184 916H330V1058H184V916Z" />
<glyph unicode="&#xa2;" horiz-adv-x="1274" d="M641 1504H698V0H641V1504ZM1160 497Q1093 364 968 287T674 209Q515 209 396 278T211 471T145 753Q145 915 209 1038T391 1232T670 1303Q813 1303 918 1247T1086 1089T1167 856L1076 855Q1057 964 1003 1047T863
1177T666 1224Q538 1224 441 1165T290 999T236 753Q236 617 291 513T445 350T676 291Q813 291 917 355T1079 530L1160 497Z" />
<glyph unicode="&#xa3;" horiz-adv-x="1602" d="M1164 803V750H268V803H1164ZM1013 1524Q1251 1524 1362 1380T1484 968H1394Q1384 1197 1291 1316T1014 1435Q918 1435 854 1402T752 1310T698 1171T681 996V379Q681 285 661 212T598 87T492 10T342 -17Q207 -17
135 43T63 217Q63 327 134 386T354 442V366Q149 366 149 216Q149 139 201 100T341 61Q470 61 530 143T590 372V998Q590 1110 611 1205T680 1372T810 1484T1013 1524ZM1528 570Q1533 540 1534 512T1536 450Q1536 220 1436 100T1120 -19Q1018 -18 948 7T825 73T731
159T641 247L607 276Q559 315 499 340T354 366V442Q440 442 504 423T619 374L659 347Q716 306 762 258T856 167T966 97T1118 69Q1283 69 1364 168T1446 455Q1446 481 1445 509T1438 564L1528 570Z" />
<glyph unicode="&#xa4;" horiz-adv-x="1303" d="M652 243Q521 243 421 297T265 447T208 668Q208 795 264 892T421 1045T652 1101Q784 1101 883 1046T1039 893T1096 668Q1096 543 1040 448T884 298T652 243ZM652 325Q756 325 834 368T958 489T1003 668Q1003 772
958 851T835 974T652 1019Q549 1019 470 975T346 851T301 668Q301 567 346 490T470 369T652 325ZM360 435L417 377L203 161L145 219L360 435ZM1102 1174L1158 1118L945 903L889 961L1102 1174ZM419 960L361 903L145 1117L203 1175L419 960ZM1158 218L1102 162L887
377L944 435L1158 218Z" />
<glyph unicode="&#xa5;" horiz-adv-x="1671" d="M1293 711V658H400V711H1293ZM1293 504V451H400V504H1293ZM1462 1420L877 679H796L209 1420H39V1504H642V1420H321L865 731L789 767H882L816 731L1359 1420H1027V1504H1631V1420H1462ZM881 747V84H1145V0H524V84H790V747H881Z"
/>
<glyph unicode="&#xa6;" horiz-adv-x="593" d="M257 515H335L337 -226H256L257 515ZM257 1504H335L337 763H256L257 1504Z" />
<glyph unicode="&#xa7;" horiz-adv-x="1151" d="M491 1280Q491 1168 532 1083T638 927T775 784T913 626T1019 424T1060 148Q1060 -15 1011 -128T879 -311T693 -413T482 -445L439 -403Q528 -403 622 -375T796 -284T925 -115T975 145Q975 294 935 402T830 593T693
747T557 894T452 1060T411 1277Q411 1363 437 1427T526 1526T691 1562L671 1599Q782 1599 863 1561T1005 1451L940 1404Q890 1461 834 1490T706 1519Q593 1519 542 1455T491 1280ZM660 -125Q660 -13 619 71T513 227T376 370T238 529T132 732T91 1007Q91 1169 140
1282T273 1465T459 1567T671 1599L714 1556Q624 1556 530 1528T355 1437T226 1269T176 1010Q176 861 216 753T322 561T459 406T596 260T701 94T742 -122Q742 -209 715 -273T626 -373T461 -408L482 -445Q373 -445 292 -409T147 -299L213 -252Q262 -309 318 -337T447
-366Q559 -366 609 -301T660 -125Z" />
<glyph unicode="&#xa8;" horiz-adv-x="592" d="M80 1457H201V1337H80V1457ZM392 1457H512V1337H392V1457Z" />
<glyph unicode="&#xa9;" horiz-adv-x="1773" d="M887 1523Q1062 1523 1206 1468T1455 1310T1616 1067T1673 756Q1673 527 1574 353T1297 80T887 -19Q712 -19 568 37T319 196T157 442T99 756Q99 926 156 1066T319 1309T568 1467T887 1523ZM887 64Q1092 64 1248
152T1493 396T1581 756Q1581 958 1493 1112T1249 1353T887 1440Q683 1440 526 1354T280 1113T191 756Q191 552 279 396T525 152T887 64ZM895 354Q778 354 690 403T552 540T503 742Q503 857 550 945T682 1084T879 1134Q972 1134 1030 1102T1119 1018T1161 904H1180L1164
798Q1146 911 1079 984T887 1057Q798 1057 731 1017T627 905T590 742Q590 650 628 581T734 472T895 432Q991 432 1061 471T1163 584L1235 548Q1195 459 1107 407T895 354ZM1164 798V1110H1247V798H1164Z" />
<glyph unicode="&#xaa;" horiz-adv-x="977" d="M767 676Q746 676 734 689T722 725V1024L727 1044L725 1137L722 1182V1242Q722 1348 659 1399T470 1450Q356 1450 293 1406T204 1271L129 1287Q149 1365 191 1416T303 1493T473 1519Q625 1519 711 1456T797 1246V746H926V676H767ZM356
666Q231 666 164 719T97 878Q97 951 123 999T205 1078T347 1126L743 1212V1154L358 1068Q269 1048 221 1009T172 885Q172 809 221 772T367 734Q468 734 549 776T677 907T725 1137L745 942H719Q692 806 598 736T356 666Z" />
<glyph unicode="&#xab;" horiz-adv-x="949" d="M163 574V571L498 123H406L91 542V602L406 1022H498L163 574ZM575 574V571L910 123H818L503 542V602L818 1022H910L575 574Z" />
<glyph unicode="&#xac;" horiz-adv-x="1035" d="M759 603V527H80V603H759ZM825 279H742V603H825V279Z" />
<glyph unicode="&#xad;" horiz-adv-x="705" d="M625 601V525H80V601H625Z" />
<glyph unicode="&#xae;" horiz-adv-x="1167" d="M584 1596Q721 1596 826 1540T990 1383T1050 1150Q1050 1017 991 915T827 756T584 698Q446 698 341 755T177 915T118 1150Q118 1282 177 1382T341 1539T584 1596ZM584 745Q706 745 800 796T946 940T999 1150Q999
1269 947 1358T800 1498T584 1549Q461 1549 367 1499T220 1359T167 1150Q167 1032 220 940T367 797T584 745ZM534 1382H610Q691 1382 735 1348T780 1254Q780 1209 753 1179T678 1138V1132L604 1122H478V1162H608Q676 1162 704 1187T733 1250Q733 1295 702 1318T610
1342H534V1382ZM759 958H816V918H725L661 1090Q653 1112 642 1117T605 1122H585L646 1144Q670 1140 682 1133T704 1104L759 958ZM496 958H574V918H371V958H450V1342H371V1382H566V1342H496V958Z" />
<glyph unicode="&#xaf;" horiz-adv-x="724" d="M644 1441V1365H80V1441H644Z" />
<glyph unicode="&#xb0;" horiz-adv-x="716" d="M358 931Q266 931 197 969T88 1073T49 1226Q49 1312 88 1378T196 1482T358 1520Q450 1520 519 1482T628 1378T667 1226Q667 1140 628 1074T520 969T358 931ZM358 999Q464 999 529 1063T594 1226Q594 1325 529 1389T358
1453Q253 1453 188 1389T122 1226Q122 1128 187 1064T358 999Z" />
<glyph unicode="&#xb1;" horiz-adv-x="1162" d="M534 444V816H159V892H534V1261H618V892H993L991 816H618V444H534ZM999 259V183H152V259H999Z" />
<glyph unicode="&#xb2;" horiz-adv-x="775" d="M433 1442Q509 1488 540 1530T571 1626Q571 1704 517 1747T379 1790Q290 1790 241 1741T177 1605L102 1610Q117 1729 188 1796T382 1863Q500 1863 575 1801T650 1633Q650 1558 607 1499T476 1387L325 1297Q230 1241
195 1180T159 1020H97Q97 1101 117 1161T178 1266T280 1350L433 1442ZM683 1248Q683 1128 632 1068T493 1007Q443 1007 410 1022T346 1053T279 1069Q253 1069 222 1057T164 1020H136L153 1087L173 1076Q198 1108 230 1120T292 1133Q331 1133 358 1120T413 1093T484
1079Q542 1079 575 1120T608 1248H683Z" />
<glyph unicode="&#xb3;" horiz-adv-x="712" d="M59 1252L136 1263Q154 1176 206 1125T357 1073Q453 1073 503 1120T553 1237Q553 1318 493 1364T332 1411V1462Q466 1462 548 1402T631 1231Q631 1134 563 1068T356 1001Q222 1001 152 1068T59 1252ZM77 1614Q95
1738 163 1798T345 1859Q467 1859 535 1797T603 1642Q603 1545 529 1487T332 1426V1478Q418 1478 471 1521T525 1633Q525 1700 477 1743T346 1787Q183 1787 156 1609L77 1614ZM280 1478H332V1411H280V1478Z" />
<glyph unicode="&#xb4;" horiz-adv-x="560" d="M410 1553L463 1485L141 1255L98 1311L410 1553Z" />
<glyph unicode="&#xb5;" horiz-adv-x="1399" d="M1025 981H804V1057H1113V76H1342V0H1025V981ZM348 591V381Q348 231 414 145T625 58Q742 58 833 116T976 283T1028 545L1053 332H1023Q1003 217 947 139T806 20T617 -20Q454 -20 380 83T305 367V591H348ZM260 -420V981H47V1057H348V-420H260Z"
/>
<glyph unicode="&#xb6;" horiz-adv-x="1469" d="M557 -420V-336H774V1504H866V-420H557ZM809 718H591Q447 718 348 750T188 837T100 964T72 1114Q72 1298 200 1401T586 1504H809V718ZM1363 -420H1056V1504H1363V1420H1147V-336H1363V-420Z" />
<glyph unicode="&#xb7;" horiz-adv-x="438" d="M147 639H292V497H147V639Z" />
<glyph unicode="&#xb8;" horiz-adv-x="614" d="M105 -355Q133 -363 169 -369T248 -376Q342 -376 396 -351T451 -278Q451 -245 422 -224T335 -202H150V-137H339Q440 -137 487 -175T534 -274Q534 -348 460 -392T249 -437Q199 -437 157 -430T80 -409L105 -355ZM244
10H306L211 -137H150L244 10Z" />
<glyph unicode="&#xb9;" horiz-adv-x="589" d="M306 1846H360V1088H543V1018H101V1088H284V1800L306 1846ZM120 1711H157Q216 1711 252 1747T290 1846H314L299 1728H280Q267 1689 234 1666T146 1643H120V1711Z" />
<glyph unicode="&#xba;" horiz-adv-x="1035" d="M517 661Q390 661 293 716T140 867T85 1088Q85 1213 140 1310T292 1463T517 1519Q646 1519 743 1464T895 1311T950 1088Q950 963 896 867T744 716T517 661ZM517 733Q623 733 703 777T827 902T872 1088Q872 1193
828 1274T703 1401T517 1447Q413 1447 334 1401T209 1274T164 1088Q164 982 209 902T333 778T517 733Z" />
<glyph unicode="&#xbb;" horiz-adv-x="949" d="M786 574V571L451 123H543L858 542V602L543 1022H451L786 574ZM374 574V571L39 123H131L446 542V602L131 1022H39L374 574Z" />
<glyph unicode="&#xbc;" horiz-adv-x="1693" d="M306 1504H360V746H543V676H101V746H284V1458L306 1504ZM120 1369H157Q216 1369 252 1405T290 1504H314L299 1386H280Q267 1347 234 1324T146 1301H120V1369ZM273 0L1391 1504H1475L356 0H273ZM1491 828V70H1627V0H1257V70H1418V786L1400
828H1491ZM1627 309V249H989V309H1627ZM1400 828L1463 802L1048 277L989 309L1400 828Z" />
<glyph unicode="&#xbd;" horiz-adv-x="1773" d="M306 1504H360V746H543V676H101V746H284V1458L306 1504ZM120 1369H157Q216 1369 252 1405T290 1504H314L299 1386H280Q267 1347 234 1324T146 1301H120V1369ZM273 0L1391 1504H1475L356 0H273ZM1431 422Q1507 468
1538 510T1569 606Q1569 684 1515 727T1377 770Q1288 770 1239 721T1175 585L1100 590Q1115 709 1186 776T1380 843Q1498 843 1573 781T1648 613Q1648 538 1605 479T1474 367L1323 277Q1228 221 1193 160T1157 0H1095Q1095 81 1115 141T1176 246T1278 330L1431
422ZM1681 228Q1681 108 1630 48T1491 -13Q1441 -13 1408 2T1344 33T1277 49Q1251 49 1220 37T1162 0H1134L1151 67L1171 56Q1196 88 1228 100T1290 113Q1329 113 1356 100T1411 73T1482 59Q1540 59 1573 100T1606 228H1681Z" />
<glyph unicode="&#xbe;" horiz-adv-x="1735" d="M59 910L136 921Q154 834 206 783T357 731Q453 731 503 778T553 895Q553 976 493 1022T332 1069V1120Q466 1120 548 1060T631 889Q631 792 563 726T356 659Q222 659 152 726T59 910ZM77 1272Q95 1396 163 1456T345
1517Q467 1517 535 1455T603 1300Q603 1203 529 1145T332 1084V1136Q418 1136 471 1179T525 1291Q525 1358 477 1401T346 1445Q183 1445 156 1267L77 1272ZM280 1136H332V1069H280V1136ZM315 0L1433 1504H1517L398 0H315ZM1533 828V70H1669V0H1299V70H1460V786L1442
828H1533ZM1669 309V249H1031V309H1669ZM1442 828L1505 802L1090 277L1031 309L1442 828Z" />
<glyph unicode="&#xbf;" horiz-adv-x="1115" d="M994 181Q1015 136 1026 88T1037 -8Q1037 -134 975 -234T801 -391T543 -449Q392 -449 283 -388T113 -226T53 -6Q53 90 85 160T170 282T280 379T389 466T473 560T506 678V734H597V676Q597 597 565 539T481 433T373
341T265 247T182 137T150 -6Q150 -99 197 -179T333 -309T543 -359Q662 -359 751 -313T891 -187T942 -8Q942 35 932 74T906 149L994 181ZM620 938H485V1072H620V938Z" />
<glyph unicode="&#xc0;" horiz-adv-x="1684" d="M1252 592V510H435V592H1252ZM1491 84H1651V0H1010V84H1395L827 1435L887 1393H794L853 1435L284 84H670V0H33V84H192L790 1504H894L1491 84ZM681 1960L628 1892L950 1662L993 1718L681 1960Z" />
<glyph unicode="&#xc1;" horiz-adv-x="1684" d="M1252 592V510H435V592H1252ZM1491 84H1651V0H1010V84H1395L827 1435L887 1393H794L853 1435L284 84H670V0H33V84H192L790 1504H894L1491 84ZM1006 1960L1059 1892L737 1662L694 1718L1006 1960Z" />
<glyph unicode="&#xc2;" horiz-adv-x="1684" d="M1252 592V510H435V592H1252ZM1491 84H1651V0H1010V84H1395L827 1435L887 1393H794L853 1435L284 84H670V0H33V84H192L790 1504H894L1491 84ZM871 1926L1153 1719L1115 1666L843 1846L572 1666L534 1719L816 1926H871Z" />
<glyph unicode="&#xc3;" horiz-adv-x="1684" d="M1252 592V510H435V592H1252ZM1491 84H1651V0H1010V84H1395L827 1435L887 1393H794L853 1435L284 84H670V0H33V84H192L790 1504H894L1491 84ZM1104 1929L1172 1921Q1158 1806 1110 1752T981 1698Q929 1698 893 1721T818
1792Q786 1834 761 1852T701 1871Q651 1871 620 1833T576 1712L507 1720Q521 1835 569 1889T697 1944Q750 1944 786 1921T862 1849Q895 1807 920 1789T979 1771Q1029 1771 1060 1809T1104 1929Z" />
<glyph unicode="&#xc4;" horiz-adv-x="1684" d="M1252 592V510H435V592H1252ZM1491 84H1651V0H1010V84H1395L827 1435L887 1393H794L853 1435L284 84H670V0H33V84H192L790 1504H894L1491 84ZM627 1864H748V1744H627V1864ZM939 1864H1059V1744H939V1864Z" />
<glyph unicode="&#xc5;" horiz-adv-x="1684" d="M1252 592V510H435V592H1252ZM1491 84H1651V0H1010V84H1395L827 1435L887 1393H794L853 1435L284 84H670V0H33V84H192L790 1504H894L1491 84ZM843 1622Q746 1622 683 1684T620 1837Q620 1931 683 1991T843 2051Q942
2051 1005 1991T1068 1837Q1068 1745 1005 1684T843 1622ZM843 1684Q912 1684 955 1728T999 1837Q999 1904 956 1946T843 1989Q776 1989 732 1947T687 1837Q687 1772 731 1728T843 1684Z" />
<glyph unicode="&#xc6;" horiz-adv-x="2512" d="M984 0V84H1249V1420H520V1504H2379V1097H2287V1420H1341V84H2305V407H2397V0H984ZM5 0V84H188L962 1479H1064L288 84H636V0H5ZM496 510V592H1306V510H496ZM1300 718V800H1998V718H1300Z" />
<glyph unicode="&#xc7;" horiz-adv-x="1655" d="M848 -18Q685 -18 548 38T311 198T155 444T99 756Q99 925 152 1065T305 1307T542 1465T849 1522Q1021 1522 1149 1465T1358 1304T1472 1061H1504L1477 914Q1429 1164 1263 1297T851 1431Q653 1431 506 1346T277
1108T196 756Q196 605 244 480T380 263T586 122T848 72Q1010 72 1142 137T1361 320T1480 597L1574 577Q1538 397 1438 263T1186 56T848 -18ZM1477 914V1504H1568V914H1477ZM683 -355Q711 -363 747 -369T826 -376Q920 -376 974 -351T1029 -278Q1029 -245 1000 -224T913
-202H728V-137H917Q1018 -137 1065 -175T1112 -274Q1112 -348 1038 -392T827 -437Q777 -437 735 -430T658 -409L683 -355ZM822 10H884L789 -137H728L822 10Z" />
<glyph unicode="&#xc8;" horiz-adv-x="1566" d="M1053 800V718H370V800H1053ZM1361 407H1451V0H55V84H320V1420H55V1504H1433V1097H1343V1420H410V84H1361V407ZM653 1960L600 1892L922 1662L965 1718L653 1960Z" />
<glyph unicode="&#xc9;" horiz-adv-x="1566" d="M1053 800V718H370V800H1053ZM1361 407H1451V0H55V84H320V1420H55V1504H1433V1097H1343V1420H410V84H1361V407ZM979 1960L1032 1892L710 1662L667 1718L979 1960Z" />
<glyph unicode="&#xca;" horiz-adv-x="1566" d="M1053 800V718H370V800H1053ZM1361 407H1451V0H55V84H320V1420H55V1504H1433V1097H1343V1420H410V84H1361V407ZM844 1926L1126 1719L1088 1666L816 1846L545 1666L507 1719L789 1926H844Z" />
<glyph unicode="&#xcb;" horiz-adv-x="1566" d="M1053 800V718H370V800H1053ZM1361 407H1451V0H55V84H320V1420H55V1504H1433V1097H1343V1420H410V84H1361V407ZM600 1864H721V1744H600V1864ZM912 1864H1032V1744H912V1864Z" />
<glyph unicode="&#xcc;" horiz-adv-x="730" d="M55 1420V1504H675V1420H410V84H675V0H55V84H320V1420H55ZM204 1960L151 1892L473 1662L516 1718L204 1960Z" />
<glyph unicode="&#xcd;" horiz-adv-x="730" d="M55 1420V1504H675V1420H410V84H675V0H55V84H320V1420H55ZM529 1960L582 1892L260 1662L217 1718L529 1960Z" />
<glyph unicode="&#xce;" horiz-adv-x="730" d="M55 1420V1504H675V1420H410V84H675V0H55V84H320V1420H55ZM394 1926L676 1719L638 1666L366 1846L95 1666L57 1719L339 1926H394Z" />
<glyph unicode="&#xcf;" horiz-adv-x="730" d="M55 1420V1504H675V1420H410V84H675V0H55V84H320V1420H55ZM150 1864H271V1744H150V1864ZM462 1864H582V1744H462V1864Z" />
<glyph unicode="&#xd0;" horiz-adv-x="1677" d="M896 800V718H123V800H896ZM631 0V84H789Q999 84 1154 169T1396 406T1482 756Q1482 952 1396 1102T1155 1336T789 1420H632V1504H789Q1028 1504 1205 1409T1480 1145T1578 756Q1578 533 1481 363T1206 96T789 0H631ZM62
0V84H327V1420H62V1504H670V1420H418V84H670V0H62Z" />
<glyph unicode="&#xd1;" horiz-adv-x="1820" d="M1402 0L347 1504H455L1510 0H1402ZM55 1422V1504H454L452 1405H405V84H668V0H55V84H320V1422H55ZM1154 1420V1504H1787V1420H1521V0H1406L1374 124H1436V1420H1154ZM1168 1929L1236 1921Q1222 1806 1174 1752T1045
1698Q993 1698 957 1721T882 1792Q850 1834 825 1852T765 1871Q715 1871 684 1833T640 1712L571 1720Q585 1835 633 1889T761 1944Q814 1944 850 1921T926 1849Q959 1807 984 1789T1043 1771Q1093 1771 1124 1809T1168 1929Z" />
<glyph unicode="&#xd2;" horiz-adv-x="1732" d="M866 -18Q696 -18 556 38T313 197T155 443T99 756Q99 925 155 1065T313 1308T555 1466T866 1522Q1036 1522 1176 1467T1419 1309T1577 1066T1633 756Q1633 585 1577 443T1419 198T1177 38T866 -18ZM866 71Q1065
71 1216 158T1452 399T1537 756Q1537 956 1452 1108T1216 1347T866 1433Q667 1433 516 1347T281 1109T196 756Q196 554 280 400T516 158T866 71ZM703 1960L650 1892L972 1662L1015 1718L703 1960Z" />
<glyph unicode="&#xd3;" horiz-adv-x="1732" d="M866 -18Q696 -18 556 38T313 197T155 443T99 756Q99 925 155 1065T313 1308T555 1466T866 1522Q1036 1522 1176 1467T1419 1309T1577 1066T1633 756Q1633 585 1577 443T1419 198T1177 38T866 -18ZM866 71Q1065
71 1216 158T1452 399T1537 756Q1537 956 1452 1108T1216 1347T866 1433Q667 1433 516 1347T281 1109T196 756Q196 554 280 400T516 158T866 71ZM1029 1960L1082 1892L760 1662L717 1718L1029 1960Z" />
<glyph unicode="&#xd4;" horiz-adv-x="1732" d="M866 -18Q696 -18 556 38T313 197T155 443T99 756Q99 925 155 1065T313 1308T555 1466T866 1522Q1036 1522 1176 1467T1419 1309T1577 1066T1633 756Q1633 585 1577 443T1419 198T1177 38T866 -18ZM866 71Q1065
71 1216 158T1452 399T1537 756Q1537 956 1452 1108T1216 1347T866 1433Q667 1433 516 1347T281 1109T196 756Q196 554 280 400T516 158T866 71ZM894 1926L1176 1719L1138 1666L866 1846L595 1666L557 1719L839 1926H894Z" />
<glyph unicode="&#xd5;" horiz-adv-x="1732" d="M866 -18Q696 -18 556 38T313 197T155 443T99 756Q99 925 155 1065T313 1308T555 1466T866 1522Q1036 1522 1176 1467T1419 1309T1577 1066T1633 756Q1633 585 1577 443T1419 198T1177 38T866 -18ZM866 71Q1065
71 1216 158T1452 399T1537 756Q1537 956 1452 1108T1216 1347T866 1433Q667 1433 516 1347T281 1109T196 756Q196 554 280 400T516 158T866 71ZM1126 1929L1194 1921Q1180 1806 1132 1752T1003 1698Q951 1698 915 1721T840 1792Q808 1834 783 1852T723 1871Q673
1871 642 1833T598 1712L529 1720Q543 1835 591 1889T719 1944Q772 1944 808 1921T884 1849Q917 1807 942 1789T1001 1771Q1051 1771 1082 1809T1126 1929Z" />
<glyph unicode="&#xd6;" horiz-adv-x="1732" d="M866 -18Q696 -18 556 38T313 197T155 443T99 756Q99 925 155 1065T313 1308T555 1466T866 1522Q1036 1522 1176 1467T1419 1309T1577 1066T1633 756Q1633 585 1577 443T1419 198T1177 38T866 -18ZM866 71Q1065
71 1216 158T1452 399T1537 756Q1537 956 1452 1108T1216 1347T866 1433Q667 1433 516 1347T281 1109T196 756Q196 554 280 400T516 158T866 71ZM650 1864H771V1744H650V1864ZM962 1864H1082V1744H962V1864Z" />
<glyph unicode="&#xd7;" horiz-adv-x="1159" d="M909 339L581 667L250 339L195 393L526 722L195 1053L250 1107L581 777L911 1107L964 1053L636 722L964 393L909 339Z" />
<glyph unicode="&#xd8;" horiz-adv-x="1732" d="M1554 1501L1613 1442L173 3L116 62L1554 1501ZM866 -18Q696 -18 556 38T313 197T155 443T99 756Q99 925 155 1065T313 1308T555 1466T866 1522Q1036 1522 1176 1467T1419 1309T1577 1066T1633 756Q1633 585 1577
443T1419 198T1177 38T866 -18ZM866 71Q1065 71 1216 158T1452 399T1537 756Q1537 956 1452 1108T1216 1347T866 1433Q667 1433 516 1347T281 1109T196 756Q196 554 280 400T516 158T866 71Z" />
<glyph unicode="&#xd9;" horiz-adv-x="1720" d="M1081 1504H1693V1420H1432V587Q1432 402 1371 266T1184 56T859 -18Q662 -18 536 56T350 266T289 587V1420H27V1504H644V1420H380V587Q380 428 429 312T585 133T861 70Q1031 70 1138 133T1295 312T1346 587V1420H1081V1504ZM689
1960L636 1892L958 1662L1001 1718L689 1960Z" />
<glyph unicode="&#xda;" horiz-adv-x="1720" d="M1081 1504H1693V1420H1432V587Q1432 402 1371 266T1184 56T859 -18Q662 -18 536 56T350 266T289 587V1420H27V1504H644V1420H380V587Q380 428 429 312T585 133T861 70Q1031 70 1138 133T1295 312T1346 587V1420H1081V1504ZM1015
1960L1068 1892L746 1662L703 1718L1015 1960Z" />
<glyph unicode="&#xdb;" horiz-adv-x="1720" d="M1081 1504H1693V1420H1432V587Q1432 402 1371 266T1184 56T859 -18Q662 -18 536 56T350 266T289 587V1420H27V1504H644V1420H380V587Q380 428 429 312T585 133T861 70Q1031 70 1138 133T1295 312T1346 587V1420H1081V1504ZM880
1926L1162 1719L1124 1666L852 1846L581 1666L543 1719L825 1926H880Z" />
<glyph unicode="&#xdc;" horiz-adv-x="1720" d="M1081 1504H1693V1420H1432V587Q1432 402 1371 266T1184 56T859 -18Q662 -18 536 56T350 266T289 587V1420H27V1504H644V1420H380V587Q380 428 429 312T585 133T861 70Q1031 70 1138 133T1295 312T1346 587V1420H1081V1504ZM636
1864H757V1744H636V1864ZM948 1864H1068V1744H948V1864Z" />
<glyph unicode="&#xdd;" horiz-adv-x="1658" d="M1455 1420L870 679H789L203 1420H33V1504H636V1420H314L859 731L783 767H875L810 731L1353 1420H1021V1504H1625V1420H1455ZM875 747V84H1139V0H518V84H783V747H875ZM991 1960L1044 1892L722 1662L679 1718L991 1960Z" />
<glyph unicode="&#xde;" horiz-adv-x="1385" d="M55 1420V1504H690V1420H410V84H690V0H55V84H320V1420H55ZM385 1055V1139H800Q1056 1139 1184 1039T1313 759Q1313 683 1286 614T1198 491T1038 407T794 376H397V460H798Q1008 460 1114 538T1220 759Q1220 903 1111
979T797 1055H385Z" />
<glyph unicode="&#xdf;" horiz-adv-x="1436" d="M731 861Q801 861 868 883T989 949T1075 1056T1108 1200Q1108 1287 1070 1359T957 1473T777 1515Q674 1515 594 1474T468 1344T422 1112V0H99V76H334V981H99V1057H334V1112Q334 1273 389 1381T544 1543T777 1597Q901
1597 995 1549T1143 1413T1197 1214Q1197 1134 1172 1075T1103 975T1006 908T896 864V810L731 861ZM652 105Q697 85 749 76T857 66Q1047 66 1147 160T1248 414Q1248 586 1134 685T810 785H731V861H820Q944 861 1040 830T1203 741T1304 600T1339 412Q1339 280 1284
185T1122 37T860 -15Q793 -15 735 -4T625 28L652 105Z" />
<glyph unicode="&#xe0;" horiz-adv-x="1236" d="M969 0Q943 0 930 16T916 61V444L924 470L920 588L916 638V722Q916 821 877 880T765 967T594 994Q440 994 361 936T251 759L166 778Q190 877 242 943T381 1042T596 1075Q725 1075 816 1040T956 929T1004 727V76H1169V0H969ZM455
-14Q294 -14 210 55T125 263Q125 394 203 461T442 564L944 674V607L456 496Q337 470 277 418T217 268Q217 165 281 115T468 64Q595 64 697 118T860 289T920 588L943 350H911Q883 184 767 85T455 -14ZM434 1553L381 1485L703 1255L746 1311L434 1553Z" />
<glyph unicode="&#xe1;" horiz-adv-x="1236" d="M969 0Q943 0 930 16T916 61V444L924 470L920 588L916 638V722Q916 821 877 880T765 967T594 994Q440 994 361 936T251 759L166 778Q190 877 242 943T381 1042T596 1075Q725 1075 816 1040T956 929T1004 727V76H1169V0H969ZM455
-14Q294 -14 210 55T125 263Q125 394 203 461T442 564L944 674V607L456 496Q337 470 277 418T217 268Q217 165 281 115T468 64Q595 64 697 118T860 289T920 588L943 350H911Q883 184 767 85T455 -14ZM759 1553L812 1485L490 1255L447 1311L759 1553Z" />
<glyph unicode="&#xe2;" horiz-adv-x="1236" d="M969 0Q943 0 930 16T916 61V444L924 470L920 588L916 638V722Q916 821 877 880T765 967T594 994Q440 994 361 936T251 759L166 778Q190 877 242 943T381 1042T596 1075Q725 1075 816 1040T956 929T1004 727V76H1169V0H969ZM455
-14Q294 -14 210 55T125 263Q125 394 203 461T442 564L944 674V607L456 496Q337 470 277 418T217 268Q217 165 281 115T468 64Q595 64 697 118T860 289T920 588L943 350H911Q883 184 767 85T455 -14ZM624 1519L906 1312L868 1259L596 1439L325 1259L287 1312L569
1519H624Z" />
<glyph unicode="&#xe3;" horiz-adv-x="1236" d="M969 0Q943 0 930 16T916 61V444L924 470L920 588L916 638V722Q916 821 877 880T765 967T594 994Q440 994 361 936T251 759L166 778Q190 877 242 943T381 1042T596 1075Q725 1075 816 1040T956 929T1004 727V76H1169V0H969ZM455
-14Q294 -14 210 55T125 263Q125 394 203 461T442 564L944 674V607L456 496Q337 470 277 418T217 268Q217 165 281 115T468 64Q595 64 697 118T860 289T920 588L943 350H911Q883 184 767 85T455 -14ZM856 1522L924 1514Q910 1399 862 1345T733 1291Q681 1291 645
1314T570 1385Q538 1427 513 1445T453 1464Q403 1464 372 1426T328 1305L259 1313Q273 1428 321 1482T449 1537Q502 1537 538 1514T614 1442Q647 1400 672 1382T731 1364Q781 1364 812 1402T856 1522Z" />
<glyph unicode="&#xe4;" horiz-adv-x="1236" d="M969 0Q943 0 930 16T916 61V444L924 470L920 588L916 638V722Q916 821 877 880T765 967T594 994Q440 994 361 936T251 759L166 778Q190 877 242 943T381 1042T596 1075Q725 1075 816 1040T956 929T1004 727V76H1169V0H969ZM455
-14Q294 -14 210 55T125 263Q125 394 203 461T442 564L944 674V607L456 496Q337 470 277 418T217 268Q217 165 281 115T468 64Q595 64 697 118T860 289T920 588L943 350H911Q883 184 767 85T455 -14ZM380 1457H501V1337H380V1457ZM692 1457H812V1337H692V1457Z"
/>
<glyph unicode="&#xe5;" horiz-adv-x="1236" d="M969 0Q943 0 930 16T916 61V444L924 470L920 588L916 638V722Q916 821 877 880T765 967T594 994Q440 994 361 936T251 759L166 778Q190 877 242 943T381 1042T596 1075Q725 1075 816 1040T956 929T1004 727V76H1169V0H969ZM455
-14Q294 -14 210 55T125 263Q125 394 203 461T442 564L944 674V607L456 496Q337 470 277 418T217 268Q217 165 281 115T468 64Q595 64 697 118T860 289T920 588L943 350H911Q883 184 767 85T455 -14ZM596 1216Q499 1216 436 1278T373 1431Q373 1525 436 1585T596
1645Q695 1645 758 1585T821 1431Q821 1339 758 1278T596 1216ZM596 1278Q665 1278 708 1322T752 1431Q752 1498 709 1540T596 1583Q529 1583 485 1541T440 1431Q440 1366 484 1322T596 1278Z" />
<glyph unicode="&#xe6;" horiz-adv-x="2047" d="M1459 -17Q1312 -17 1200 47T1022 224T949 488L1027 735H1044Q1062 825 1114 903T1252 1028T1461 1076Q1604 1076 1713 1007T1883 817T1945 536Q1945 529 1945 520T1944 502H1856Q1857 511 1857 521T1857 543Q1857
676 1807 778T1666 938T1453 996Q1329 996 1235 937T1089 772T1036 526Q1036 390 1089 285T1237 122T1459 63Q1588 63 1687 127T1839 302L1922 270Q1858 137 1738 60T1459 -17ZM467 -14Q296 -14 211 55T125 260Q125 399 206 466T442 566L975 674V610L456 500Q341
475 279 422T217 264Q217 161 284 112T477 62Q567 62 651 89T803 177T911 339T951 588L988 382H955Q924 191 798 89T467 -14ZM1036 504H955L951 588L948 656V718Q948 823 905 883T784 969T608 994Q462 994 375 939T250 754L170 774Q193 866 245 933T387 1038T614
1075Q740 1075 835 1043T983 934T1036 727V504ZM1002 502V570H1916L1941 502H1002Z" />
<glyph unicode="&#xe7;" horiz-adv-x="1232" d="M647 -17Q487 -17 367 52T181 244T114 526Q114 647 151 747T256 921T420 1035T631 1076Q750 1076 835 1035T971 925T1037 771H1061L1042 636Q1028 744 974 825T835 951T638 996Q509 996 411 936T259 770T205 526Q205
390 260 286T414 123T648 64Q789 64 892 129T1049 306L1129 270Q1066 138 944 61T647 -17ZM1042 636V1057H1130V636H1042ZM457 -355Q485 -363 521 -369T600 -376Q694 -376 748 -351T803 -278Q803 -245 774 -224T687 -202H502V-137H691Q792 -137 839 -175T886 -274Q886
-348 812 -392T601 -437Q551 -437 509 -430T432 -409L457 -355ZM596 10H658L563 -137H502L596 10Z" />
<glyph unicode="&#xe8;" horiz-adv-x="1251" d="M644 -17Q484 -17 365 52T181 244T115 526Q115 687 180 811T363 1005T638 1076Q794 1076 908 1007T1086 817T1149 536Q1149 525 1149 517T1148 502H1060Q1061 511 1061 521T1061 543Q1061 676 1010 778T863 938T638
996Q509 996 411 936T258 770T203 526Q203 390 258 286T411 123T643 64Q783 64 888 131T1046 315L1130 283Q1068 144 941 64T644 -17ZM170 502V573H1120L1145 502H170ZM477 1553L424 1485L746 1255L789 1311L477 1553Z" />
<glyph unicode="&#xe9;" horiz-adv-x="1251" d="M644 -17Q484 -17 365 52T181 244T115 526Q115 687 180 811T363 1005T638 1076Q794 1076 908 1007T1086 817T1149 536Q1149 525 1149 517T1148 502H1060Q1061 511 1061 521T1061 543Q1061 676 1010 778T863 938T638
996Q509 996 411 936T258 770T203 526Q203 390 258 286T411 123T643 64Q783 64 888 131T1046 315L1130 283Q1068 144 941 64T644 -17ZM170 502V573H1120L1145 502H170ZM803 1553L856 1485L534 1255L491 1311L803 1553Z" />
<glyph unicode="&#xea;" horiz-adv-x="1251" d="M644 -17Q484 -17 365 52T181 244T115 526Q115 687 180 811T363 1005T638 1076Q794 1076 908 1007T1086 817T1149 536Q1149 525 1149 517T1148 502H1060Q1061 511 1061 521T1061 543Q1061 676 1010 778T863 938T638
996Q509 996 411 936T258 770T203 526Q203 390 258 286T411 123T643 64Q783 64 888 131T1046 315L1130 283Q1068 144 941 64T644 -17ZM170 502V573H1120L1145 502H170ZM667 1519L949 1312L911 1259L639 1439L368 1259L330 1312L612 1519H667Z" />
<glyph unicode="&#xeb;" horiz-adv-x="1251" d="M644 -17Q484 -17 365 52T181 244T115 526Q115 687 180 811T363 1005T638 1076Q794 1076 908 1007T1086 817T1149 536Q1149 525 1149 517T1148 502H1060Q1061 511 1061 521T1061 543Q1061 676 1010 778T863 938T638
996Q509 996 411 936T258 770T203 526Q203 390 258 286T411 123T643 64Q783 64 888 131T1046 315L1130 283Q1068 144 941 64T644 -17ZM170 502V573H1120L1145 502H170ZM424 1457H545V1337H424V1457ZM736 1457H856V1337H736V1457Z" />
<glyph unicode="&#xec;" horiz-adv-x="707" d="M432 76H650V0H113V76H344V981H113V1057H432V76ZM221 1553L168 1485L490 1255L533 1311L221 1553Z" />
<glyph unicode="&#xed;" horiz-adv-x="707" d="M432 76H650V0H113V76H344V981H113V1057H432V76ZM547 1553L600 1485L278 1255L235 1311L547 1553Z" />
<glyph unicode="&#xee;" horiz-adv-x="707" d="M432 76H650V0H113V76H344V981H113V1057H432V76ZM668 1519L950 1312L912 1259L640 1439L369 1259L331 1312L613 1519H668Z" />
<glyph unicode="&#xef;" horiz-adv-x="707" d="M432 76H650V0H113V76H344V981H113V1057H432V76ZM168 1457H289V1337H168V1457ZM480 1457H600V1337H480V1457Z" />
<glyph unicode="&#xf0;" horiz-adv-x="1290" d="M619 1074Q729 1074 813 1034T956 929T1045 785L1070 792L1171 552Q1171 427 1141 333T1053 167Q984 75 878 29T642 -17Q482 -17 363 54T177 249T111 536Q111 694 177 815T358 1005T619 1074ZM641 995Q517 995 418
937T261 775T203 537Q203 398 258 292T411 126T638 65Q770 65 870 123T1026 288T1082 539Q1082 678 1022 780T860 939T641 995ZM525 1618Q726 1502 871 1333T1093 963T1171 552L1082 539Q1082 750 1005 942T791 1289T473 1546L525 1618ZM351 1200L319 1266L980
1587L1013 1520L351 1200Z" />
<glyph unicode="&#xf1;" horiz-adv-x="1482" d="M422 76H635V0H99V76H334V981H99V1057H422V76ZM1127 76V683Q1127 831 1061 915T847 1000Q729 1000 633 944T479 778T422 513L399 725H428Q450 830 508 909T656 1032T868 1076Q1050 1076 1132 975T1215 693V76H1435V0H915V76H1127ZM1032
1522L1100 1514Q1086 1399 1038 1345T909 1291Q857 1291 821 1314T746 1385Q714 1427 689 1445T629 1464Q579 1464 548 1426T504 1305L435 1313Q449 1428 497 1482T625 1537Q678 1537 714 1514T790 1442Q823 1400 848 1382T907 1364Q957 1364 988 1402T1032 1522Z"
/>
<glyph unicode="&#xf2;" horiz-adv-x="1315" d="M657 -17Q495 -17 372 52T180 244T111 526Q111 687 180 811T371 1005T657 1076Q820 1076 943 1006T1135 811T1204 526Q1204 366 1135 244T943 53T657 -17ZM657 64Q793 64 895 122T1055 284T1112 526Q1112 663 1055
768T896 934T657 994Q522 994 420 934T260 769T203 526Q203 389 260 285T419 122T657 64ZM495 1553L442 1485L764 1255L807 1311L495 1553Z" />
<glyph unicode="&#xf3;" horiz-adv-x="1315" d="M657 -17Q495 -17 372 52T180 244T111 526Q111 687 180 811T371 1005T657 1076Q820 1076 943 1006T1135 811T1204 526Q1204 366 1135 244T943 53T657 -17ZM657 64Q793 64 895 122T1055 284T1112 526Q1112 663 1055
768T896 934T657 994Q522 994 420 934T260 769T203 526Q203 389 260 285T419 122T657 64ZM820 1553L873 1485L551 1255L508 1311L820 1553Z" />
<glyph unicode="&#xf4;" horiz-adv-x="1315" d="M657 -17Q495 -17 372 52T180 244T111 526Q111 687 180 811T371 1005T657 1076Q820 1076 943 1006T1135 811T1204 526Q1204 366 1135 244T943 53T657 -17ZM657 64Q793 64 895 122T1055 284T1112 526Q1112 663 1055
768T896 934T657 994Q522 994 420 934T260 769T203 526Q203 389 260 285T419 122T657 64ZM685 1519L967 1312L929 1259L657 1439L386 1259L348 1312L630 1519H685Z" />
<glyph unicode="&#xf5;" horiz-adv-x="1315" d="M657 -17Q495 -17 372 52T180 244T111 526Q111 687 180 811T371 1005T657 1076Q820 1076 943 1006T1135 811T1204 526Q1204 366 1135 244T943 53T657 -17ZM657 64Q793 64 895 122T1055 284T1112 526Q1112 663 1055
768T896 934T657 994Q522 994 420 934T260 769T203 526Q203 389 260 285T419 122T657 64ZM918 1522L986 1514Q972 1399 924 1345T795 1291Q743 1291 707 1314T632 1385Q600 1427 575 1445T515 1464Q465 1464 434 1426T390 1305L321 1313Q335 1428 383 1482T511
1537Q564 1537 600 1514T676 1442Q709 1400 734 1382T793 1364Q843 1364 874 1402T918 1522Z" />
<glyph unicode="&#xf6;" horiz-adv-x="1315" d="M657 -17Q495 -17 372 52T180 244T111 526Q111 687 180 811T371 1005T657 1076Q820 1076 943 1006T1135 811T1204 526Q1204 366 1135 244T943 53T657 -17ZM657 64Q793 64 895 122T1055 284T1112 526Q1112 663 1055
768T896 934T657 994Q522 994 420 934T260 769T203 526Q203 389 260 285T419 122T657 64ZM441 1457H562V1337H441V1457ZM753 1457H873V1337H753V1457Z" />
<glyph unicode="&#xf7;" horiz-adv-x="1160" d="M1080 759V683H80V759H1080ZM508 507H653V365H508V507ZM508 1089H653V947H508V1089Z" />
<glyph unicode="&#xf8;" horiz-adv-x="1321" d="M1138 1079L1193 1026L183 -20L130 34L1138 1079ZM664 -17Q501 -17 378 52T186 244T117 526Q117 687 186 811T378 1005T664 1076Q827 1076 950 1006T1141 811T1210 526Q1210 366 1142 244T950 53T664 -17ZM664 64Q799
64 901 122T1061 284T1119 526Q1119 663 1062 768T902 934T664 994Q529 994 427 934T267 769T209 526Q209 389 266 285T426 122T664 64Z" />
<glyph unicode="&#xf9;" horiz-adv-x="1399" d="M1025 981H804V1057H1113V76H1342V0H1025V981ZM348 1057V381Q348 231 413 145T625 58Q742 58 832 116T974 283T1025 545L1050 332H1020Q990 160 876 70T600 -20Q422 -20 341 83T260 367V981H47V1057H348ZM478 1553L425
1485L747 1255L790 1311L478 1553Z" />
<glyph unicode="&#xfa;" horiz-adv-x="1399" d="M1025 981H804V1057H1113V76H1342V0H1025V981ZM348 1057V381Q348 231 413 145T625 58Q742 58 832 116T974 283T1025 545L1050 332H1020Q990 160 876 70T600 -20Q422 -20 341 83T260 367V981H47V1057H348ZM804 1553L857
1485L535 1255L492 1311L804 1553Z" />
<glyph unicode="&#xfb;" horiz-adv-x="1399" d="M1025 981H804V1057H1113V76H1342V0H1025V981ZM348 1057V381Q348 231 413 145T625 58Q742 58 832 116T974 283T1025 545L1050 332H1020Q990 160 876 70T600 -20Q422 -20 341 83T260 367V981H47V1057H348ZM668 1519L950
1312L912 1259L640 1439L369 1259L331 1312L613 1519H668Z" />
<glyph unicode="&#xfc;" horiz-adv-x="1399" d="M1025 981H804V1057H1113V76H1342V0H1025V981ZM348 1057V381Q348 231 413 145T625 58Q742 58 832 116T974 283T1025 545L1050 332H1020Q990 160 876 70T600 -20Q422 -20 341 83T260 367V981H47V1057H348ZM425 1457H546V1337H425V1457ZM737
1457H857V1337H737V1457Z" />
<glyph unicode="&#xfd;" horiz-adv-x="1289" d="M762 1057H1258V981L1100 980L634 -157Q583 -284 480 -352T219 -420H121V-341H219Q343 -341 428 -290T554 -138L632 47L618 -30L200 981H31V1057H536V981H297L683 26L603 99H687L641 54L1012 981H762V1057ZM808
1553L861 1485L539 1255L496 1311L808 1553Z" />
<glyph unicode="&#xfe;" horiz-adv-x="1407" d="M7 -420V-344H239V1504H7V1580H327V637L323 582V477L327 442V-344H556V-420H7ZM773 -18Q633 -18 523 45T346 221T265 487L323 528Q323 393 377 288T532 122T764 62Q896 62 995 122T1150 287T1205 529Q1205 665 1149
770T994 936T764 996Q633 996 534 936T379 771T323 528L310 727H331Q348 811 404 891T555 1023T783 1076Q895 1076 989 1036T1152 922T1258 748T1296 529Q1296 370 1231 247T1047 53T773 -18Z" />
<glyph unicode="&#xff;" horiz-adv-x="1289" d="M762 1057H1258V981L1100 980L634 -157Q583 -284 480 -352T219 -420H121V-341H219Q343 -341 428 -290T554 -138L632 47L618 -30L200 981H31V1057H536V981H297L683 26L603 99H687L641 54L1012 981H762V1057ZM429
1457H550V1337H429V1457ZM741 1457H861V1337H741V1457Z" />
<glyph unicode="&#x2013;" horiz-adv-x="1160" d="M1080 601V525H80V601H1080Z" />
<glyph unicode="&#x2014;" horiz-adv-x="2160" d="M2080 601V525H80V601H2080Z" />
<glyph unicode="&#x2018;" horiz-adv-x="328" d="M257 1155H112V1297H257V1155ZM170 1171H112V1369Q112 1441 152 1478T258 1516V1462Q218 1460 194 1438T170 1369V1171Z" />
<glyph unicode="&#x2019;" horiz-adv-x="328" d="M71 1505H216V1363H71V1505ZM158 1489H216V1291Q216 1219 176 1182T70 1144V1198Q110 1200 134 1222T158 1291V1489Z" />
<glyph unicode="&#x201a;" horiz-adv-x="358" d="M113 142H258V0H113V142ZM200 126H258V-72Q258 -144 218 -181T112 -219V-165Q152 -163 176 -141T200 -72V126Z" />
<glyph unicode="&#x201c;" horiz-adv-x="598" d="M257 1402H112V1544H257V1402ZM170 1418H112V1616Q112 1688 152 1725T258 1763V1709Q218 1707 194 1685T170 1616V1418ZM497 1146H352V1288H497V1146ZM410 1162H352V1360Q352 1432 392 1469T498 1507V1453Q458
1451 434 1429T410 1360V1162Z" />
<glyph unicode="&#x201d;" horiz-adv-x="600" d="M71 1505H216V1363H71V1505ZM158 1489H216V1291Q216 1219 176 1182T70 1144V1198Q110 1200 134 1222T158 1291V1489ZM312 1505H457V1363H312V1505ZM399 1489H457V1291Q457 1219 417 1182T311 1144V1198Q351 1200
375 1222T399 1291V1489Z" />
<glyph unicode="&#x201e;" horiz-adv-x="611" d="M113 142H258V0H113V142ZM200 126H258V-72Q258 -144 218 -181T112 -219V-165Q152 -163 176 -141T200 -72V126ZM366 142H511V0H366V142ZM453 126H511V-72Q511 -144 471 -181T365 -219V-165Q405 -163 429 -141T453 -72V126Z" />
<glyph unicode="&#x2022;" horiz-adv-x="789" d="M256 708H533V439H256V708Z" />
<glyph unicode="&#x2039;" horiz-adv-x="537" d="M163 574V571L498 123H406L91 542V602L406 1022H498L163 574Z" />
<glyph unicode="&#x203a;" horiz-adv-x="537" d="M374 574V571L39 123H131L446 542V602L131 1022H39L374 574Z" />
</font>
</defs>
</svg>
