<?xml version="1.0" standalone="no"?>
<!DOCTYPE svg PUBLIC "-//W3C//DTD SVG 1.1//EN" "http://www.w3.org/Graphics/SVG/1.1/DTD/svg11.dtd">
<svg xmlns="http://www.w3.org/2000/svg">
<defs >
<font id="HeptaSlab" horiz-adv-x="1327" ><font-face
    font-family="Hepta Slab ExtraLight Black"
    units-per-em="2000"
    panose-1="0 0 0 0 0 0 0 0 0 0"
    ascent="1976"
    descent="-526"
    alphabetic="0" />
<glyph unicode=" " horiz-adv-x="540" />
<glyph unicode="!" horiz-adv-x="688" d="M64 1544H624L568 546H120L64 1544ZM90 480H598V0H90V480Z" />
<glyph unicode="&quot;" horiz-adv-x="1032" d="M70 1544H500L468 996H102L70 1544ZM532 1544H962L930 996H564L532 1544Z" />
<glyph unicode="#" horiz-adv-x="1326" d="M748 1504L420 0H60L388 1504H748ZM1266 1504L938 0H578L906 1504H1266ZM1306 1160V826H110V1160H1306ZM1216 680V346H20V680H1216Z" />
<glyph unicode="$" horiz-adv-x="1608" d="M842 1704L844 -200H764V1704H842ZM1030 -22Q844 -22 745 52T628 284H582L612 494Q629 409 697 355T860 300Q926 300 964 326T1002 398Q1002 431 979 453T904 488T768 508Q533 527 378 599T147 796T70 1100Q70 1319 198
1444T564 1570Q684 1570 770 1535T905 1430T964 1258H1010L980 1054Q967 1144 902 1196T736 1248Q676 1248 641 1227T606 1164Q606 1134 627 1109T700 1067T840 1042Q1072 1025 1227 954T1460 759T1538 456Q1538 224 1410 101T1030 -22ZM96 -2V494H612V-2H96ZM980
1054V1542H1496V1054H980Z" />
<glyph unicode="%" horiz-adv-x="1978" d="M204 0L1334 1544H1770L640 0H204ZM440 674Q320 674 230 729T89 884T38 1122Q38 1331 149 1449T440 1568Q557 1568 647 1515T787 1361T838 1122Q838 984 788 884T648 729T440 674ZM440 972Q463 972 481 988T511 1037T522
1122Q522 1177 511 1209T482 1256T440 1270Q415 1270 396 1256T365 1210T354 1122Q354 1071 365 1038T395 989T440 972ZM1538 -20Q1420 -20 1331 34T1191 188T1140 426Q1140 564 1190 664T1330 819T1538 874Q1657 874 1747 820T1889 666T1940 426Q1940 288 1889
188T1748 34T1538 -20ZM1538 278Q1563 278 1582 293T1613 341T1624 426Q1624 480 1613 513T1583 561T1538 576Q1515 576 1497 562T1467 514T1456 426Q1456 374 1467 342T1496 294T1538 278Z" />
<glyph unicode="&amp;" horiz-adv-x="1798" d="M1598 412H1764V0H1336L510 630Q366 740 283 831T165 1005T130 1168Q130 1298 199 1387T392 1522T682 1568L680 1268Q641 1268 617 1245T592 1178Q592 1142 612 1101T672 1018T776 936L1598 412ZM1326 1160H1756Q1704
798 1561 533T1193 124T670 -20Q464 -20 319 44T98 222T22 490Q22 693 171 816T600 970L644 974Q704 1015 736 1064T768 1168Q768 1219 744 1243T680 1268L682 1568Q851 1568 977 1523T1172 1390T1242 1176Q1242 1004 1108 895T738 696L692 690Q590 671 541 622T492
510Q492 467 515 432T584 377T700 356Q852 356 977 454T1192 732T1326 1160Z" />
<glyph unicode="&apos;" horiz-adv-x="570" d="M70 1544H500L468 996H102L70 1544Z" />
<glyph unicode="(" horiz-adv-x="814" d="M488 582Q488 338 534 145T653 -190T806 -420H356Q232 -247 152 5T72 582Q72 906 152 1159T356 1584H806Q726 1496 653 1355T534 1020T488 582Z" />
<glyph unicode=")" horiz-adv-x="814" d="M326 582Q326 826 280 1019T161 1354T8 1584H458Q582 1411 662 1159T742 582Q742 258 662 5T458 -420H8Q88 -332 161 -191T280 144T326 582Z" />
<glyph unicode="*" horiz-adv-x="874" d="M590 1580L478 1214L590 850H284L396 1214L284 1580H590ZM676 1530L830 1264L456 1180L198 900L44 1166L416 1250L676 1530ZM198 1530L458 1250L830 1166L676 900L418 1180L44 1264L198 1530Z" />
<glyph unicode="+" horiz-adv-x="1188" d="M396 258V546H110V898H396V1186H792V898H1078V546H792V258H396Z" />
<glyph unicode="," horiz-adv-x="648" d="M70 480H578V0H70V480ZM354 340H578V0Q578 -175 475 -279T128 -386V-186Q233 -186 293 -137T354 -12V340Z" />
<glyph unicode="-" horiz-adv-x="754" d="M690 792V438H64V792H690Z" />
<glyph unicode="." horiz-adv-x="648" d="M70 480H578V0H70V480Z" />
<glyph unicode="/" horiz-adv-x="984" d="M1046 1580L462 -208H-28L556 1580H1046Z" />
<glyph unicode="0" horiz-adv-x="1504" d="M752 -24Q526 -24 367 71T123 345T38 772Q38 1020 122 1198T366 1472T752 1568Q978 1568 1137 1473T1381 1199T1466 772Q1466 523 1382 345T1138 72T752 -24ZM752 458Q848 458 897 540T946 772Q946 924 897 1005T752
1086Q656 1086 607 1005T558 772Q558 622 607 540T752 458Z" />
<glyph unicode="1" horiz-adv-x="1102" d="M476 1544H852V414H1096V0H84V414H336V1358L476 1544ZM90 1428H190Q240 1428 279 1442T346 1482T386 1544H498L376 1170H320Q296 1053 254 1009T140 964H90V1428Z" />
<glyph unicode="2" horiz-adv-x="1560" d="M1502 530Q1502 259 1387 122T1062 -16Q1008 -16 961 -7T869 15T783 36T696 46Q657 46 620 36T552 0H366L384 428L526 334Q579 402 642 430T778 458Q805 458 824 456T859 449T888 443T918 440Q956 440 976 460T996 530H1502ZM796
960Q864 980 891 1003T918 1056Q918 1077 906 1093T868 1119T804 1128Q726 1128 682 1092T636 990L114 1008Q118 1182 204 1307T444 1500T808 1568Q1009 1568 1153 1503T1375 1326T1452 1074Q1452 974 1404 876T1244 696T942 562L782 518Q655 483 580 425T473 266T440
0H68V128Q68 357 124 511T308 762T646 918L796 960Z" />
<glyph unicode="3" horiz-adv-x="1394" d="M14 534L514 574Q522 478 569 429T700 380Q746 380 777 394T825 437T842 506Q842 556 816 591T740 645T620 664V844Q877 844 1040 800T1282 663T1360 424Q1360 277 1288 177T1076 24T730 -28Q397 -28 218 113T14 534ZM46
1028Q54 1291 223 1431T702 1572Q898 1572 1034 1522T1241 1376T1312 1140Q1312 1004 1235 914T1005 780T620 736V916Q674 916 713 932T773 980T794 1056Q794 1092 781 1117T743 1155T682 1168Q616 1168 583 1129T548 1010L46 1028ZM530 916H620V664H530V916Z"
/>
<glyph unicode="4" horiz-adv-x="1460" d="M1244 1544V414H1388V0H558V414H728V1378L592 1544H1244ZM1388 790V510H60V790H1388ZM592 1544L922 1430L386 650L60 790L592 1544Z" />
<glyph unicode="5" horiz-adv-x="1432" d="M54 414L556 534Q562 486 600 461T702 436Q749 436 781 449T829 488T846 546Q846 580 829 605T777 645T694 660Q654 660 616 649T554 608L538 694L584 682Q608 797 647 883T754 1018T930 1066Q1059 1066 1161 999T1321
815T1380 552Q1380 380 1299 252T1067 52T712 -20Q441 -20 270 96T54 414ZM716 1544L554 608L58 692L200 1544H716ZM460 1130V1544H1298V1130H460Z" />
<glyph unicode="6" horiz-adv-x="1454" d="M746 432Q790 432 823 445T875 482T894 538Q894 569 877 593T827 630T750 644Q710 644 678 632T627 597T608 538L578 542L546 578H592L594 592Q611 711 658 792T783 914T972 956Q1102 956 1205 900T1368 743T1428 504Q1428
346 1345 227T1110 42T748 -24L746 432ZM748 -24Q495 -24 340 78T110 352Q73 439 56 542T38 762Q38 1034 121 1213T369 1480T774 1568Q1025 1568 1188 1475T1426 1200L946 998Q930 1036 889 1059T776 1082Q711 1082 662 1055T586 955T558 750Q558 699 563 658T584
566L608 538Q608 507 624 483T671 446T746 432L748 -24Z" />
<glyph unicode="7" horiz-adv-x="1500" d="M1580 1544L914 0H312L982 1426L1098 1544H1580ZM552 1268Q557 1408 599 1482T726 1556Q759 1556 784 1548T831 1529T881 1510T946 1502Q987 1502 1027 1513T1098 1544L878 1130L844 1150Q820 1120 795 1107T734 1094Q715
1094 702 1097T679 1104T658 1111T632 1116Q584 1118 563 1081T542 970L482 1268H552ZM542 1544V844H26V1544H542Z" />
<glyph unicode="8" horiz-adv-x="1476" d="M738 -24Q516 -24 359 31T118 185T34 413Q34 541 117 640T358 796T738 852Q960 852 1117 796T1358 641T1442 412Q1442 284 1359 186T1118 32T738 -24ZM738 386Q788 386 826 403T886 451T908 522Q908 565 887 597T827
648T738 666Q688 666 650 648T590 598T568 522Q568 482 589 452T649 404T738 386ZM738 734Q528 734 380 787T153 933T74 1148Q74 1271 152 1366T379 1514T738 1568Q948 1568 1096 1515T1323 1366T1402 1148Q1402 1027 1324 934T1097 787T738 734ZM738 920Q776 920
805 935T851 976T868 1038Q868 1075 852 1103T806 1146T738 1162Q700 1162 671 1147T625 1103T608 1038Q608 1003 624 977T670 935T738 920Z" />
<glyph unicode="9" horiz-adv-x="1454" d="M708 1112Q664 1112 631 1099T579 1062T560 1006Q560 975 577 951T627 914T704 900Q744 900 776 912T827 947T846 1006L876 1002L908 966H862L860 952Q843 833 796 752T671 630T482 588Q352 588 249 644T86 801T26 1040Q26
1198 109 1317T344 1502T706 1568L708 1112ZM706 1568Q959 1568 1114 1466T1344 1192Q1381 1105 1398 1002T1416 782Q1416 510 1333 331T1085 64T680 -24Q429 -24 266 69T28 344L508 546Q524 508 565 485T678 462Q743 462 792 489T868 589T896 794Q896 845 891
886T870 978L846 1006Q846 1037 830 1061T783 1098T708 1112L706 1568Z" />
<glyph unicode=":" horiz-adv-x="648" d="M70 480H578V0H70V480ZM70 1140H578V660H70V1140Z" />
<glyph unicode=";" horiz-adv-x="648" d="M70 1140H578V660H70V1140ZM70 480H578V0H70V480ZM354 340H578V0Q578 -175 475 -279T128 -386V-186Q233 -186 293 -137T354 -12V340Z" />
<glyph unicode="&lt;" horiz-adv-x="1200" d="M1092 860L590 744V726L1092 612V170L112 490V982L1092 1302V860Z" />
<glyph unicode="=" horiz-adv-x="1338" d="M1212 1122V770H126V1122H1212ZM1212 702V350H126V702H1212Z" />
<glyph unicode="&gt;" horiz-adv-x="1200" d="M108 860L610 744V726L108 612V170L1088 490V982L108 1302V860Z" />
<glyph unicode="?" horiz-adv-x="1340" d="M68 788Q41 856 29 913T16 1028Q16 1190 98 1311T328 1500T672 1568Q873 1568 1022 1501T1252 1316T1334 1048Q1334 956 1303 887T1222 766T1117 676T1013 608T932 552T900 496V466H392V504Q392 608 421 676T497 790T596
864T694 916T770 966T800 1032Q800 1059 785 1081T740 1115T668 1128Q629 1128 599 1116T550 1081T532 1022Q532 1009 535 996T546 966L68 788ZM392 400H900V0H392V400Z" />
<glyph unicode="@" horiz-adv-x="2266" d="M968 -448Q763 -448 593 -384T300 -200T109 83T42 446Q42 694 128 900T374 1257T753 1490T1238 1572Q1458 1572 1639 1520T1953 1365T2156 1109T2228 754L1966 762Q1967 955 1874 1087T1616 1288T1238 1356Q1033 1356
862 1291T566 1104T373 816T304 446Q304 246 389 93T623 -146T968 -232Q1117 -232 1244 -191T1472 -76L1594 -244Q1468 -341 1310 -394T968 -448ZM808 10Q688 10 611 71T494 233T448 454Q441 588 474 709T576 924T747 1072T980 1126Q1127 1126 1219 1055T1356 864T1400
596Q1400 553 1395 508T1376 426L1236 334H1202Q1159 220 1099 149T964 44T808 10ZM1086 418Q1128 418 1159 436T1210 485T1240 552T1248 624Q1245 681 1216 709T1138 738Q1083 738 1046 706T991 625T976 530Q979 475 1008 447T1086 418ZM1606 12Q1469 12 1381
65T1250 209T1204 410L1344 644L1224 780L1308 1106H1818L1672 538Q1651 456 1670 395T1748 334Q1786 334 1824 364T1895 450T1946 585T1966 762L2228 754Q2228 589 2182 453T2052 218T1855 66T1606 12Z" />
<glyph unicode="A" horiz-adv-x="1738" d="M1300 880V526H388V880H1300ZM1618 414H1712V0H920V414H1046L744 1440L948 1120H752L922 1440L620 414H770V0H26V414H130L536 1544H1212L1618 414Z" />
<glyph unicode="B" horiz-adv-x="1622" d="M756 1130V1544H960Q1236 1544 1394 1445T1552 1148Q1552 955 1391 864T918 772H502V956H908Q950 956 978 966T1020 995T1034 1042Q1034 1084 1003 1107T908 1130H756ZM736 414H946Q1014 414 1052 439T1090 508Q1090
531 1081 548T1054 577T1010 596T948 602H502V818H948Q1107 818 1230 796T1437 727T1564 605T1608 422Q1608 218 1453 109T1026 0H736V414ZM42 1130V1544H812V1130H672V414H812V0H42V414H156V1130H42ZM1148 850H1244V742H1148V850Z" />
<glyph unicode="C" horiz-adv-x="1692" d="M852 -28Q668 -28 516 30T254 196T83 451T22 776Q22 952 80 1097T237 1349T461 1514T722 1572Q848 1572 935 1520T1071 1363T1130 1098H1226L1146 904Q1115 988 1038 1037T860 1086Q769 1086 701 1047T594 938T556 776Q556
706 577 648T638 547T732 481T852 458Q931 458 994 492T1096 586T1146 728L1674 654Q1647 450 1537 297T1251 58T852 -28ZM1146 904V1544H1662V904H1146Z" />
<glyph unicode="D" horiz-adv-x="1694" d="M668 0V414H810Q913 413 986 459T1099 587T1138 776Q1138 881 1099 961T987 1085T810 1130H668V1544H822Q1077 1543 1268 1445T1565 1174T1672 776Q1672 547 1566 372T1268 99T822 0H668ZM42 0V414H156V1130H42V1544H746V1130H672V414H746V0H42Z"
/>
<glyph unicode="E" horiz-adv-x="1694" d="M978 954V600H410V954H978ZM1112 654H1628V0H42V414H156V1130H42V1544H1610V890H1094V1130H672V414H1112V654Z" />
<glyph unicode="F" horiz-adv-x="1580" d="M942 954V600H410V954H942ZM1562 1544V870H1046V1130H672V414H902V0H42V414H156V1130H42V1544H1562Z" />
<glyph unicode="G" horiz-adv-x="1810" d="M836 -28Q658 -28 510 30T252 196T82 451T22 776Q22 952 80 1097T237 1349T463 1514T726 1572Q850 1572 936 1523T1071 1372T1130 1118H1226L1146 924Q1116 999 1042 1042T868 1086Q775 1086 705 1047T596 938T556 776Q556
703 577 642T640 538T742 470T878 446Q959 446 1032 473T1162 551T1250 668L1474 654Q1450 418 1371 267T1157 44T836 -28ZM1386 0L1158 452V736H1674V0H1386ZM808 554V872H1784V554H808ZM1146 924V1544H1662V924H1146Z" />
<glyph unicode="H" horiz-adv-x="1752" d="M1322 954V600H410V954H1322ZM42 1130V1544H786V1130H672V414H786V0H42V414H156V1130H42ZM966 1130V1544H1710V1130H1596V414H1710V0H966V414H1080V1130H966Z" />
<glyph unicode="I" horiz-adv-x="828" d="M42 1130V1544H786V1130H672V414H786V0H42V414H156V1130H42Z" />
<glyph unicode="J" horiz-adv-x="1334" d="M604 -20Q294 -20 156 134T18 562V628H534V562Q534 519 551 493T604 466Q640 466 656 492T672 562V1130H496V1544H1304V1130H1190V560Q1190 386 1129 256T938 53T604 -20Z" />
<glyph unicode="K" horiz-adv-x="1884" d="M42 1130V1544H778V1130H668V414H778V0H42V414H152V1130H42ZM1276 966L1752 414H1858V0H942V414H1118L844 770L1276 966ZM438 708L1038 1130H890V1544H1808V1130H1688L630 422L438 708Z" />
<glyph unicode="L" horiz-adv-x="1514" d="M42 1130V1544H786V1130H672V414H1156V0H42V414H156V1130H42ZM1496 720V0H980V720H1496Z" />
<glyph unicode="M" horiz-adv-x="2200" d="M878 0L484 1544H1020L1240 592L1102 608L1286 1544H1616L1250 0H878ZM42 0V414H152V1130H42V1544H980L630 1130H568V414H668V0H42ZM1432 0V414H1532V1130H1470L1286 1544H2158V1130H2048V414H2158V0H1432Z" />
<glyph unicode="N" horiz-adv-x="1776" d="M990 0L266 1544H814L1538 0H990ZM42 1130V1544H814L660 880H564V414H674V0H42V414H152V1130H42ZM1130 1130V1544H1762V1130H1652V0H1314L1156 672H1240V1130H1130Z" />
<glyph unicode="O" horiz-adv-x="1736" d="M868 -28Q681 -28 526 30T258 196T84 451T22 776Q22 952 83 1097T257 1349T525 1514T869 1572Q1056 1572 1211 1514T1478 1350T1652 1098T1714 776Q1714 598 1653 451T1479 197T1211 31T868 -28ZM868 460Q960 460 1030
500T1140 612T1180 776Q1180 867 1141 936T1031 1045T868 1084Q776 1084 706 1045T596 937T556 776Q556 683 595 612T705 501T868 460Z" />
<glyph unicode="P" horiz-adv-x="1588" d="M42 0V414H156V1130H42V1544H672V414H786V0H42ZM546 600V954H878Q943 954 975 976T1008 1044Q1008 1089 973 1109T880 1130H580V1544H900Q1223 1544 1384 1420T1546 1074Q1546 962 1504 874T1378 725T1174 632T894 600H546Z" />
<glyph unicode="Q" horiz-adv-x="1736" d="M868 -28Q681 -28 526 30T258 196T84 451T22 776Q22 952 83 1097T257 1349T525 1514T869 1572Q1056 1572 1211 1514T1478 1350T1652 1098T1714 776Q1714 598 1653 451T1479 197T1211 31T868 -28ZM868 458Q960 458 1030
498T1140 610T1180 776Q1180 868 1141 938T1031 1047T868 1086Q776 1086 706 1047T596 938T556 776Q556 682 595 611T705 499T868 458ZM1050 18Q1022 10 1006 1T982 -18T974 -40Q974 -56 988 -62T1036 -68H1526V-420H874Q675 -420 590 -351T504 -164Q504 -26 628
66T1046 184L1050 18Z" />
<glyph unicode="R" horiz-adv-x="1632" d="M1102 916Q1227 886 1289 823T1372 710L1496 414H1578V0H1058L896 544Q887 574 876 584T842 594H658L1102 916ZM632 1130V1544H902Q1231 1544 1396 1428T1562 1104Q1562 1017 1534 955T1456 849T1344 770V736L996 594H498V948H892Q936
948 966 958T1012 988T1028 1038Q1028 1086 991 1108T894 1130H632ZM42 1130V1544H786V1130H672V414H794V0H42V414H156V1130H42Z" />
<glyph unicode="S" horiz-adv-x="1550" d="M1010 -20Q824 -20 725 54T608 286H562L592 496Q609 411 677 357T840 302Q906 302 944 328T982 400Q982 433 959 455T884 490T748 510Q513 529 358 601T127 798T50 1102Q50 1321 178 1446T544 1572Q664 1572 750 1537T885
1432T944 1260H990L960 1056Q947 1146 882 1198T716 1250Q656 1250 621 1229T586 1166Q586 1136 607 1111T680 1069T820 1044Q1052 1027 1207 956T1440 761T1518 458Q1518 226 1390 103T1010 -20ZM76 0V496H592V0H76ZM960 1056V1544H1476V1056H960Z" />
<glyph unicode="T" horiz-adv-x="1672" d="M1648 1544V866H1202V1130H1094V414H1208V0H464V414H578V1130H470V866H24V1544H1648Z" />
<glyph unicode="U" horiz-adv-x="1690" d="M936 1544H1660V1130H1550V646Q1550 440 1465 290T1220 59T842 -22Q626 -22 469 59T226 290T140 646V1130H30V1544H804V1130H676V666Q676 601 699 556T767 488T874 464Q935 464 977 487T1042 556T1064 666V1130H936V1544Z" />
<glyph unicode="V" horiz-adv-x="1724" d="M1604 1130L1194 0H530L120 1130H26V1544H844V1130H692L988 164L810 456H1006L828 164L1124 1130H972V1544H1698V1130H1604Z" />
<glyph unicode="W" horiz-adv-x="2568" d="M1870 1544H2542V1130H2428L2122 0H1472L1152 1130L1412 614H1224L1446 1130L1100 0H446L140 1130H26V1544H832V1130H696L964 0L666 514H982L684 0L1054 1130H920V1544H1782V1130H1644L2018 0L1700 514H2036L1738 0L2006
1130H1870V1544Z" />
<glyph unicode="X" horiz-adv-x="1744" d="M1614 1130L1084 604L1300 872V680L1162 958L1642 414H1702V0H860V414H970L738 710L924 586H732L918 710L680 414H804V0H42V414H130L660 956L444 688V880L582 602L102 1130H42V1544H884V1130H774L1006 850L820 968H1012L826
850L1064 1130H940V1544H1702V1130H1614Z" />
<glyph unicode="Y" horiz-adv-x="1672" d="M1564 1130L1084 562H588L106 1130H26V1544H848V1130H716L1012 756L798 910H994L780 756L1076 1130H944V1544H1646V1130H1564ZM1094 778V414H1216V0H456V414H578V778H1094Z" />
<glyph unicode="Z" horiz-adv-x="1548" d="M32 326L806 1202V1268L1514 1218L744 342V270L32 326ZM1514 1544V1218H564V970H54V1544H1514ZM1006 590H1516V0H32V326H1006V590Z" />
<glyph unicode="[" horiz-adv-x="948" d="M874 1722V1338H540V-96H892V-480H124V1722H874Z" />
<glyph unicode="\" horiz-adv-x="996" d="M-62 1580H440L1024 -208H522L-62 1580Z" />
<glyph unicode="]" horiz-adv-x="948" d="M74 1722V1338H408V-96H56V-480H824V1722H74Z" />
<glyph unicode="^" horiz-adv-x="1204" d="M800 1580L1130 864H744L608 1210H596L460 864H74L404 1580H800Z" />
<glyph unicode="_" horiz-adv-x="1000" d="M1000 -66V-422H0V-66H1000Z" />
<glyph unicode="`" horiz-adv-x="420" d="M88 1800L-112 1474L390 1248L532 1476L88 1800Z" />
<glyph unicode="a" horiz-adv-x="1408" d="M968 0Q881 0 834 48T786 184V374L814 414L798 526L786 578V682Q786 723 769 746T723 778T662 788Q617 788 579 770T526 698L72 752Q89 881 158 980T363 1136T720 1192Q892 1192 1021 1153T1222 1020T1294 768V408H1394V0H968ZM386
-30Q205 -30 116 55T26 282Q26 444 141 522T476 632L840 686V518L670 492Q610 485 584 461T558 402Q558 366 583 347T648 328Q683 328 717 346T775 408T798 526L844 292H776Q754 126 651 48T386 -30Z" />
<glyph unicode="b" horiz-adv-x="1492" d="M108 -28V1174H-2V1580H616V680L610 640V488L616 324L128 -28H108ZM812 -24Q701 -24 597 3T405 89T258 244L610 580Q610 527 629 489T685 429T770 408Q819 408 855 429T910 488T930 580Q930 633 911 671T855 731T770
752Q721 752 685 731T630 672T610 580L584 812H632Q651 941 692 1023T801 1145T968 1184Q1089 1184 1180 1133T1332 995T1423 801T1454 580Q1454 386 1372 251T1146 46T812 -24Z" />
<glyph unicode="c" horiz-adv-x="1394" d="M712 -28Q502 -28 349 48T112 260T28 580Q28 717 72 828T191 1020T361 1144T556 1188Q647 1188 710 1150T809 1034T854 834H956L870 608Q867 665 847 704T792 762T712 782Q663 782 627 759T570 694T550 594Q550 535 570
494T628 430T718 408Q781 408 821 439T870 522L1378 388Q1330 195 1155 84T712 -28ZM870 608V1160H1378V608H870Z" />
<glyph unicode="d" horiz-adv-x="1524" d="M876 0V462L882 506V662L876 846V1174H756V1580H1384V406H1494V0H876ZM520 1184Q632 1184 737 1133T929 969T1074 676L882 580Q882 633 863 671T807 731T722 752Q673 752 637 731T582 672T562 580Q562 527 581 489T637
429T722 408Q771 408 807 429T862 488T882 580L908 348H860Q841 219 800 137T691 16T522 -24Q402 -24 312 27T160 165T69 360T38 580Q38 775 100 910T272 1114T520 1184Z" />
<glyph unicode="e" horiz-adv-x="1400" d="M712 -28Q502 -28 349 48T112 260T28 580Q28 762 110 899T343 1112T700 1188Q906 1188 1057 1112T1290 899T1372 580Q1372 561 1372 543T1372 504H872Q874 525 874 547T874 590Q874 652 855 695T799 760T714 782Q664
782 627 759T570 690T550 580Q550 529 571 491T630 430T722 408Q770 408 806 424T864 468L1358 354Q1291 176 1123 74T712 -28ZM352 504V672H964L952 504H352Z" />
<glyph unicode="f" horiz-adv-x="1158" d="M42 0V406H220V754H42V1160H220V1166Q220 1372 347 1490T760 1608Q987 1608 1113 1525T1272 1260L876 1194Q870 1226 851 1242T802 1258Q766 1258 747 1236T728 1166V1160H1140V754H728V406H998V0H42Z" />
<glyph unicode="g" horiz-adv-x="1442" d="M676 -446Q465 -446 315 -427T84 -366T4 -256Q4 -170 121 -128T430 -72V-30L582 -56Q544 -56 524 -62T497 -79T490 -100Q490 -123 514 -136T582 -154T688 -160Q790 -160 840 -146T890 -100Q890 -56 792 -56H478Q271 -56
150 -3T28 166Q28 270 136 321T496 376V432L644 378H624Q591 378 575 373T558 354Q558 339 574 334T624 328H896Q1022 328 1134 288T1317 163T1388 -58Q1388 -187 1314 -273T1083 -402T676 -446ZM644 378Q455 378 320 428T111 569T38 784Q38 907 109 997T314 1137T632
1186Q808 1186 932 1137T1118 994Q1180 934 1201 876T1222 754Q1222 639 1153 555T954 424T644 378ZM646 674Q676 674 698 687T732 725T744 784Q744 818 732 842T697 880T646 894Q617 894 595 881T559 843T546 784Q546 750 558 726T593 688T646 674ZM1222 754L1136
872L1064 976L1122 1006Q1115 1021 1112 1041T1108 1074Q1108 1138 1138 1178T1222 1237T1350 1256Q1373 1256 1391 1255T1426 1250V774Q1380 785 1336 789T1262 794Q1247 794 1239 791T1226 782T1222 764Q1222 761 1222 760T1222 758T1222 754Z" />
<glyph unicode="h" horiz-adv-x="1518" d="M652 406H744V0H34V406H144V1174H34V1580H652V406ZM896 406V660Q896 717 870 751T798 786Q764 786 731 761T675 678T652 518L584 800H668Q685 929 731 1015T856 1145T1054 1188Q1231 1188 1317 1094T1404 832V406H1504V0H804V406H896Z"
/>
<glyph unicode="i" horiz-adv-x="788" d="M670 406H762V0H52V406H162V754H52V1160H670V406ZM142 1580H674V1216H142V1580Z" />
<glyph unicode="j" horiz-adv-x="794" d="M44 1160H712V-6Q712 -211 591 -329T192 -448Q-28 -448 -151 -365T-302 -100L96 -34Q101 -62 114 -77T150 -92Q177 -92 190 -71T204 -6V754H44V1160ZM184 1580H716V1216H184V1580Z" />
<glyph unicode="k" horiz-adv-x="1568" d="M652 406H724V0H34V406H144V1174H34V1580H652V406ZM1218 724L1452 406H1542V0H806V406H888L766 572L1218 724ZM472 338L410 494L934 754H744V1160H1522V754H1372L472 338Z" />
<glyph unicode="l" horiz-adv-x="770" d="M652 406H744V0H34V406H144V1174H34V1580H652V406Z" />
<glyph unicode="m" horiz-adv-x="2254" d="M1546 0V406H1632V660Q1632 717 1604 751T1530 786Q1499 786 1469 764T1420 688T1400 542L1332 844H1416Q1440 1015 1527 1101T1784 1188Q1964 1188 2052 1094T2140 832V406H2240V0H1546ZM42 0V406H152V754H42V1160H660V406H746V0H42ZM806
0V406H892V660Q892 717 864 751T790 786Q759 786 729 764T680 688T660 542L592 844H676Q700 1015 787 1101T1044 1188Q1224 1188 1312 1094T1400 832V406H1500V0H806Z" />
<glyph unicode="n" horiz-adv-x="1526" d="M660 406H752V0H42V406H152V754H42V1160H660V406ZM904 406V660Q904 717 876 751T800 786Q757 786 726 756T677 672T660 542L592 804H676Q693 931 743 1016T875 1145T1066 1188Q1234 1188 1323 1095T1412 828V406H1512V0H812V406H904Z"
/>
<glyph unicode="o" horiz-adv-x="1424" d="M712 -28Q502 -28 349 48T112 260T28 580Q28 762 111 899T348 1112T712 1188Q922 1188 1075 1112T1312 899T1396 580Q1396 397 1313 261T1077 48T712 -28ZM712 408Q761 408 797 430T852 490T872 580Q872 631 853 670T797
730T712 752Q663 752 627 731T572 670T552 580Q552 529 571 491T627 430T712 408Z" />
<glyph unicode="p" horiz-adv-x="1520" d="M26 -420V-14H136V754H26V1160H644V706L638 600V546L644 322V-14H742V-420H26ZM1000 -24Q888 -24 783 27T591 191T446 484L638 580Q638 527 657 489T713 429T798 408Q847 408 883 429T938 488T958 580Q958 633 939 671T883
731T798 752Q749 752 713 731T658 672T638 580L612 812H660Q679 941 720 1023T830 1145T998 1184Q1118 1184 1208 1133T1360 995T1451 801T1482 580Q1482 385 1420 250T1248 46T1000 -24Z" />
<glyph unicode="q" horiz-adv-x="1492" d="M1384 -10H1494V-418H766V-10H876L874 484L882 564V630L874 760V840L1364 1192H1384V-10ZM680 1184Q791 1184 895 1157T1087 1071T1234 916L882 580Q882 633 863 671T807 731T722 752Q673 752 637 731T582 672T562 580Q562
527 581 489T637 429T722 408Q771 408 807 429T862 488T882 580L908 348H860Q841 219 800 137T691 16T524 -24Q403 -24 312 27T160 165T69 360T38 580Q38 774 120 909T346 1114T680 1184Z" />
<glyph unicode="r" horiz-adv-x="1024" d="M660 406H752V0H42V406H152V754H42V1160H660V406ZM1022 708Q1010 711 995 712T954 714Q806 714 733 660T660 496L592 824H676Q684 942 717 1020T813 1138T972 1178Q987 1178 999 1177T1022 1172V708Z" />
<glyph unicode="s" horiz-adv-x="1344" d="M910 -20Q806 -20 736 3T624 74T568 200H522L552 392Q563 325 611 284T728 242Q769 242 792 258T816 306Q816 342 777 363T642 394Q339 424 186 533T32 832Q32 994 143 1089T450 1184Q545 1184 610 1166T713 1102T764
978H810L780 788Q771 859 732 898T636 938Q600 938 578 923T556 878Q556 838 608 813T766 776Q1053 749 1196 643T1340 350Q1340 173 1229 77T910 -20ZM44 0V392H552V0H44ZM780 788V1164H1288V788H780Z" />
<glyph unicode="t" horiz-adv-x="1242" d="M684 494Q684 461 694 445T724 428Q744 428 754 444T764 494V596H1188V496Q1188 342 1135 226T968 45T674 -20Q500 -20 390 45T228 225T176 494V752H16V1160H176V1484H684V1160H1190L1188 752H684V494Z" />
<glyph unicode="u" horiz-adv-x="1516" d="M872 754H762V1160H1380V406H1490V0H872V754ZM628 1160V500Q628 443 657 409T732 374Q766 374 798 396T851 472T872 618L940 336H856Q831 155 742 64T480 -28Q297 -28 209 66T120 326V752H14V1160H628Z" />
<glyph unicode="v" horiz-adv-x="1474" d="M828 1160H1456V754H1386L1042 0H432L88 754H18V1160H760V754H648L950 0L702 398H886L638 0L940 754H828V1160Z" />
<glyph unicode="w" horiz-adv-x="2304" d="M1694 1160H2284V754H2210L1912 0H1334L1054 754L1268 410H1084L1298 754L1018 0H392L94 754H20V1160H734V754H642L890 0L660 438H846L580 0L886 754H792V1160H1636V754H1542L1848 0L1586 438H1772L1538 0L1786 754H1694V1160Z" />
<glyph unicode="x" horiz-adv-x="1508" d="M1374 754L1040 520L1132 636V526L1040 642L1368 406H1478V0H704V406H798L644 530L726 504H616L698 530L544 406H644V0H30V406H134L468 648L376 532V642L468 526L140 754H30V1160H804V754H710L866 636L782 664H892L808
636L964 754H864V1160H1478V754H1374Z" />
<glyph unicode="y" horiz-adv-x="1502" d="M846 1160H1476V754H1402L1058 -44Q965 -257 814 -338T438 -420H104V-20H438Q509 -20 549 5T610 80L804 104L504 -162L100 754H26V1160H778V754H666L908 126L648 388H916L722 126L958 754H846V1160Z" />
<glyph unicode="z" horiz-adv-x="1332" d="M32 242L666 898V964L1296 914L690 258V186L32 242ZM1296 1160V914H474V722H32V1160H1296ZM866 432H1318V0H32V242H866V432Z" />
<glyph unicode="{" horiz-adv-x="1036" d="M804 1264Q732 1264 694 1225T656 1108V958Q656 762 532 651T132 540V774Q240 774 240 906V1094Q240 1255 304 1382T494 1584T804 1658Q861 1658 909 1651T1006 1630L906 1244Q881 1253 856 1258T804 1264ZM68 774H132V390H68V774ZM814
-128Q840 -128 862 -124T906 -114L1000 -468Q937 -480 878 -487T752 -494Q479 -494 360 -366T240 -2V240Q240 317 213 353T132 390V688Q407 688 531 578T656 274V38Q656 -128 814 -128Z" />
<glyph unicode="|" horiz-adv-x="970" d="M244 1580H726L730 -208H240L244 1580Z" />
<glyph unicode="}" horiz-adv-x="1036" d="M232 -102Q304 -102 342 -63T380 54V204Q380 400 504 511T904 622V388Q796 388 796 256V68Q796 -93 732 -220T542 -422T232 -496Q175 -496 127 -489T30 -468L130 -82Q155 -91 180 -96T232 -102ZM968 388H904V772H968V388ZM222
1290Q196 1290 174 1286T130 1276L36 1630Q99 1642 158 1649T284 1656Q557 1656 676 1528T796 1164V922Q796 845 823 809T904 772V474Q629 474 505 584T380 888V1124Q380 1290 222 1290Z" />
<glyph unicode="~" horiz-adv-x="1480" d="M1050 1006L1432 960Q1405 710 1297 584T1000 458Q897 458 820 487T680 544Q634 564 601 578T536 592Q487 592 461 559T430 468L48 510Q75 762 184 888T484 1014Q588 1014 664 983T804 926Q852 907 883 894T946 880Q993
880 1019 912T1050 1006Z" />
<glyph unicode="&#xa0;" horiz-adv-x="540" />
<glyph unicode="&#xa1;" horiz-adv-x="688" d="M64 -384H624L568 614H120L64 -384ZM90 680H598V1160H90V680Z" />
<glyph unicode="&#xa2;" horiz-adv-x="1420" d="M690 1544H770V0H690V1544ZM1396 576Q1336 381 1160 273T730 164Q522 164 369 239T131 450T46 772Q46 943 124 1081T355 1299T730 1380Q937 1380 1081 1316T1305 1127T1396 816H888Q885 864 865 899T810 954T730
974Q681 974 645 951T588 886T568 786Q568 728 588 687T645 623T736 600Q795 600 835 627T888 700L1396 576Z" />
<glyph unicode="&#xa3;" horiz-adv-x="1872" d="M1394 834V762H350V834H1394ZM1176 1568Q1505 1568 1654 1414T1818 972H1302Q1298 1058 1269 1101T1184 1144Q1157 1144 1137 1133T1102 1098T1081 1040T1074 958V776Q1074 616 1036 472T918 218T714 44T416 -20Q214
-20 119 69T24 318Q24 474 115 554T374 632L430 392Q318 392 318 316Q318 276 346 259T424 242Q495 242 526 277T558 388V974Q558 1111 595 1221T707 1408T899 1527T1176 1568ZM1822 650Q1827 620 1828 592T1830 530Q1821 263 1701 119T1332 -24Q1226 -23 1145
1T998 63T878 147T770 236L664 270Q616 324 560 358T430 392L374 632Q517 632 602 578T748 450L812 542Q853 518 892 495T969 454T1048 425T1134 414Q1229 414 1271 460T1314 564Q1314 578 1313 598T1306 640L1822 650Z" />
<glyph unicode="&#xa4;" horiz-adv-x="1314" d="M656 170Q498 170 378 234T191 411T124 672Q124 822 191 937T378 1117T656 1182Q814 1182 934 1117T1121 937T1188 672Q1188 524 1121 411T934 234T656 170ZM656 494Q709 494 749 517T813 580T836 672Q836 727 813
769T750 834T656 858Q603 858 563 835T499 769T476 672Q476 620 499 580T562 517T656 494ZM276 556L540 292L290 44L28 306L276 556ZM1022 1302L1286 1038L1036 790L774 1052L1022 1302ZM532 1046L284 798L36 1048L284 1294L532 1046ZM1278 300L1032 52L782 300L1030
548L1278 300Z" />
<glyph unicode="&#xa5;" horiz-adv-x="1696" d="M1314 698V626H330V698H1314ZM1314 554V482H330V554H1314ZM1576 1130L1096 562H600L118 1130H38V1544H860V1130H728L1024 756L810 910H1006L792 756L1088 1130H956V1544H1658V1130H1576ZM1106 778V414H1228V0H468V414H590V778H1106Z"
/>
<glyph unicode="&#xa6;" horiz-adv-x="880" d="M244 544H636L640 -226H240L244 544ZM244 1544H636L640 774H240L244 1544Z" />
<glyph unicode="&#xa7;" horiz-adv-x="1744" d="M1192 1058Q1192 1014 1225 970T1310 877T1420 766T1530 625T1615 444T1648 210Q1648 27 1579 -100T1389 -305T1113 -418T784 -454L684 -324Q754 -324 836 -299T992 -220T1113 -79T1160 134Q1160 252 1126 337T1037
488T922 616T807 746T719 905T684 1122Q684 1222 715 1294T818 1412T1010 1476L960 1604Q1205 1604 1396 1544T1714 1362L1448 1072Q1400 1119 1364 1134T1298 1150Q1249 1150 1221 1124T1192 1058ZM552 92Q552 136 519 180T434 273T324 384T214 525T129 706T96
940Q96 1123 165 1250T355 1455T632 1568T960 1604L1060 1474Q990 1474 908 1449T752 1371T631 1230T584 1018Q584 900 618 815T707 663T822 535T937 405T1025 245T1060 28Q1060 -72 1029 -144T926 -262T734 -326L784 -454Q541 -454 349 -394T30 -212L296 78Q350
35 388 18T456 0Q498 0 525 26T552 92Z" />
<glyph unicode="&#xa8;" horiz-adv-x="1028" d="M72 1580H488V1216H72V1580ZM540 1580H956V1216H540V1580Z" />
<glyph unicode="&#xa9;" horiz-adv-x="1664" d="M832 1568Q1012 1568 1160 1511T1417 1347T1583 1096T1642 776Q1642 540 1540 360T1256 78T832 -24Q652 -24 504 34T247 199T81 452T22 776Q22 951 80 1096T247 1347T503 1510T832 1568ZM832 228Q989 228 1109 298T1296
491T1364 776Q1364 929 1297 1045T1109 1227T832 1292Q675 1292 555 1227T368 1046T300 776Q300 615 367 492T555 298T832 228ZM842 360Q718 360 627 409T485 546T434 748Q434 862 479 949T600 1086T762 1136Q827 1136 862 1109T912 1034T930 920H962L936 804Q929
840 905 862T838 884Q802 884 775 867T733 820T718 751Q718 711 732 682T774 637T838 620Q882 620 912 643T956 706L1206 622Q1163 501 1068 431T842 360ZM936 804V1116H1206V804H936Z" />
<glyph unicode="&#xaa;" horiz-adv-x="1001" d="M710 676Q643 676 606 716T568 822V948L590 974L578 1070L568 1120V1190Q568 1229 541 1250T466 1272Q429 1272 398 1255T358 1196L48 1238Q60 1330 108 1401T251 1512T498 1552Q686 1552 797 1479T908 1240V958H990V676H710ZM290
660Q157 660 89 725T20 892Q20 983 66 1032T183 1104T328 1138L618 1180V1060L446 1032Q407 1026 387 1011T366 966Q366 939 385 925T434 910Q472 910 505 930T558 986T578 1070L618 880H558Q546 769 473 715T290 660Z" />
<glyph unicode="&#xab;" horiz-adv-x="1516" d="M556 592V576L892 90H388L108 512V656L388 1078H892L556 592ZM1150 592V576L1486 90H982L702 512V656L982 1078H1486L1150 592Z" />
<glyph unicode="&#xac;" horiz-adv-x="1222" d="M772 742V386H64V742H772ZM1030 192H630V742H1030V192Z" />
<glyph unicode="&#xad;" horiz-adv-x="754" d="M690 792V438H64V792H690Z" />
<glyph unicode="&#xae;" horiz-adv-x="1144" d="M572 1604Q723 1604 838 1542T1019 1369T1084 1112Q1084 964 1020 852T840 676T572 612Q420 612 305 675T125 851T60 1112Q60 1258 125 1369T305 1542T572 1604ZM572 794Q667 794 739 835T853 947T894 1112Q894
1204 853 1274T740 1383T572 1422Q477 1422 405 1383T291 1274T250 1112Q250 1019 291 948T404 835T572 794ZM548 1328H611Q703 1328 749 1296T796 1206Q796 1169 779 1151T734 1122V1112L638 1056H498V1162H602Q619 1162 626 1168T634 1186Q634 1197 626 1201T602
1206H548V1328ZM774 1018H798V896H640L604 1042Q601 1051 598 1053T588 1056H560L674 1152Q709 1145 726 1127T748 1094L774 1018ZM556 1018H588V896H367L366 1018H398V1206H366L367 1328H588V1206H556V1018Z" />
<glyph unicode="&#xaf;" horiz-adv-x="1080" d="M1000 1568V1234H80V1568H1000Z" />
<glyph unicode="&#xb0;" horiz-adv-x="784" d="M392 868Q282 868 199 913T70 1036T24 1216Q24 1318 70 1396T199 1519T392 1564Q502 1564 585 1520T714 1397T760 1216Q760 1115 714 1037T585 913T392 868ZM392 1106Q443 1106 474 1137T506 1216Q506 1266 475 1296T392
1326Q341 1326 310 1296T278 1216Q278 1168 309 1137T392 1106Z" />
<glyph unicode="&#xb1;" horiz-adv-x="1200" d="M396 544V832H110V1184H396V1472H792V1184H1078V832H792V544H396ZM1094 352V0H114V352H1094Z" />
<glyph unicode="&#xb2;" horiz-adv-x="912" d="M456 1556Q494 1567 507 1577T520 1604Q520 1622 508 1634T468 1646Q437 1646 417 1629T394 1582L72 1592Q84 1732 187 1812T456 1892Q639 1892 744 1812T850 1610Q850 1525 780 1443T536 1316L482 1302Q391 1278
361 1214T330 1018H40Q40 1183 70 1285T174 1444T376 1534L456 1556ZM878 1304Q878 1156 808 1082T624 1008Q579 1008 549 1016T491 1032T430 1040Q409 1040 391 1035T350 1018H262L312 1286L384 1230Q401 1250 420 1260T468 1270Q480 1270 488 1268T505 1263T524
1260Q544 1260 554 1269T564 1304H878Z" />
<glyph unicode="&#xb3;" horiz-adv-x="836" d="M8 1314L318 1336Q323 1297 345 1278T410 1258Q443 1258 459 1274T476 1320Q476 1350 450 1367T376 1384V1482Q601 1482 708 1428T816 1254Q816 1130 719 1063T436 996Q238 996 131 1076T8 1314ZM26 1582Q31 1732
134 1810T420 1888Q602 1888 696 1824T790 1642Q790 1531 686 1477T376 1424V1520Q411 1520 430 1535T450 1576Q450 1603 437 1616T400 1630Q338 1630 338 1572L26 1582ZM328 1520H376V1384H328V1520Z" />
<glyph unicode="&#xb4;" horiz-adv-x="840" d="M542 1800L742 1474L240 1248L98 1476L542 1800Z" />
<glyph unicode="&#xb5;" horiz-adv-x="1516" d="M872 754H762V1160H1380V406H1490V0H872V754ZM628 620V500Q628 443 656 409T730 374Q764 374 796 396T850 472T872 618L940 396H856Q851 255 838 161T798 20T728 -28Q677 -28 646 29T614 186V620H628ZM120 -420V752H14V1160H628V-420H120Z"
/>
<glyph unicode="&#xb6;" horiz-adv-x="2090" d="M530 -420V-6H708V1544H1224V-420H530ZM838 600H694Q536 600 415 632T210 725T85 874T42 1074Q42 1295 204 1419T688 1544H838V600ZM1996 -420H1320V1544H1996V1130H1836V-6H1996V-420Z" />
<glyph unicode="&#xb7;" horiz-adv-x="1248" d="M370 868H878V388H370V868Z" />
<glyph unicode="&#xb8;" horiz-adv-x="762" d="M126 -308Q144 -314 161 -317T198 -320Q237 -320 258 -308T280 -274Q280 -253 262 -241T210 -228H168V-94H358Q520 -94 601 -141T682 -262Q682 -355 571 -397T290 -440Q220 -440 170 -433T80 -412L126 -308ZM392
106H472L248 -94H168L392 106Z" />
<glyph unicode="&#xb9;" horiz-adv-x="642" d="M212 1870H504V1276H616V1018H48V1276H164V1752L212 1870ZM48 1780H92Q133 1780 160 1804T194 1870H226L192 1600H158Q148 1551 125 1532T66 1512H48V1780Z" />
<glyph unicode="&#xba;" horiz-adv-x="1008" d="M504 656Q359 656 251 712T82 869T22 1104Q22 1238 81 1340T249 1499T504 1556Q650 1556 758 1499T926 1340T986 1104Q986 970 927 869T759 712T504 656ZM504 974Q539 974 567 990T611 1035T628 1104Q628 1146 611
1175T566 1220T504 1236Q469 1236 441 1220T395 1174T378 1104Q378 1065 395 1036T440 991T504 974Z" />
<glyph unicode="&#xbb;" horiz-adv-x="1516" d="M960 592V576L624 90H1128L1408 512V656L1128 1078H624L960 592ZM366 592V576L30 90H534L814 512V656L534 1078H30L366 592Z" />
<glyph unicode="&#xbc;" horiz-adv-x="1994" d="M212 1528H504V934H616V676H48V934H164V1410L212 1528ZM48 1438H92Q133 1438 160 1462T194 1528H226L192 1258H158Q148 1209 125 1190T66 1170H48V1438ZM216 0L1358 1544H1756L614 0H216ZM1876 852V228H1952V0H1442L1444
228H1536V762L1436 852H1876ZM1950 476V276H1148V476H1950ZM1436 852L1632 790L1336 400L1148 476L1436 852Z" />
<glyph unicode="&#xbd;" horiz-adv-x="2080" d="M212 1528H504V934H616V676H48V934H164V1410L212 1528ZM48 1438H92Q133 1438 160 1462T194 1528H226L192 1258H158Q148 1209 125 1190T66 1170H48V1438ZM216 0L1358 1544H1756L614 0H216ZM1624 536Q1662 547 1675
557T1688 584Q1688 602 1676 614T1636 626Q1605 626 1585 609T1562 562L1240 572Q1252 712 1355 792T1624 872Q1807 872 1912 792T2018 590Q2018 505 1948 423T1704 296L1650 282Q1559 258 1529 194T1498 -2H1208Q1208 163 1238 265T1342 424T1544 514L1624 536ZM2046
284Q2046 136 1976 62T1792 -12Q1747 -12 1717 -4T1659 12T1598 20Q1577 20 1559 15T1518 -2H1430L1480 266L1552 210Q1569 230 1588 240T1636 250Q1648 250 1656 248T1673 243T1692 240Q1712 240 1722 249T1732 284H2046Z" />
<glyph unicode="&#xbe;" horiz-adv-x="2118" d="M8 972L318 994Q323 955 345 936T410 916Q443 916 459 932T476 978Q476 1008 450 1025T376 1042V1140Q601 1140 708 1086T816 912Q816 788 719 721T436 654Q238 654 131 734T8 972ZM26 1240Q31 1390 134 1468T420
1546Q602 1546 696 1482T790 1300Q790 1189 686 1135T376 1082V1178Q411 1178 430 1193T450 1234Q450 1261 437 1274T400 1288Q338 1288 338 1230L26 1240ZM328 1178H376V1042H328V1178ZM340 0L1482 1544H1880L738 0H340ZM2000 852V228H2076V0H1566L1568 228H1660V762L1560
852H2000ZM2074 476V276H1272V476H2074ZM1560 852L1756 790L1460 400L1272 476L1560 852Z" />
<glyph unicode="&#xbf;" horiz-adv-x="1340" d="M1272 284Q1299 216 1311 159T1324 44Q1324 -118 1242 -239T1012 -428T668 -496Q467 -496 318 -429T88 -244T6 24Q6 116 37 185T118 306T223 396T327 464T408 520T440 576V606H948V568Q948 464 919 396T843 282T744
208T646 156T570 106T540 40Q540 13 555 -9T600 -43T672 -56Q711 -56 741 -44T790 -9T808 50Q808 63 805 76T794 106L1272 284ZM948 672H440V1072H948V672Z" />
<glyph unicode="&#xc0;" horiz-adv-x="1738" d="M1300 880V526H388V880H1300ZM1618 414H1712V0H920V414H1046L744 1440L948 1120H752L922 1440L620 414H770V0H26V414H130L536 1544H1212L1618 414ZM662 2184L462 1858L964 1632L1106 1860L662 2184Z" />
<glyph unicode="&#xc1;" horiz-adv-x="1738" d="M1300 880V526H388V880H1300ZM1618 414H1712V0H920V414H1046L744 1440L948 1120H752L922 1440L620 414H770V0H26V414H130L536 1544H1212L1618 414ZM1038 2184L1238 1858L736 1632L594 1860L1038 2184Z" />
<glyph unicode="&#xc2;" horiz-adv-x="1738" d="M1300 880V526H388V880H1300ZM1618 414H1712V0H920V414H1046L744 1440L948 1120H752L922 1440L620 414H770V0H26V414H130L536 1544H1212L1618 414ZM1022 2110L1330 1860L1150 1628L850 1800L546 1624L366 1856L678
2110H1022Z" />
<glyph unicode="&#xc3;" horiz-adv-x="1738" d="M1300 880V526H388V880H1300ZM1618 414H1712V0H920V414H1046L744 1440L948 1120H752L922 1440L620 414H770V0H26V414H130L536 1544H1212L1618 414ZM1060 2108L1340 2072Q1316 1864 1237 1765T1030 1666Q954 1666
901 1691T808 1740Q775 1760 749 1773T696 1786Q660 1786 642 1757T618 1674L338 1708Q362 1918 442 2017T652 2116Q729 2116 781 2090T872 2040Q905 2021 929 2009T982 1996Q1017 1996 1036 2024T1060 2108Z" />
<glyph unicode="&#xc4;" horiz-adv-x="1738" d="M1300 880V526H388V880H1300ZM1618 414H1712V0H920V414H1046L744 1440L948 1120H752L922 1440L620 414H770V0H26V414H130L536 1544H1212L1618 414ZM408 1964H824V1600H408V1964ZM876 1964H1292V1600H876V1964Z" />
<glyph unicode="&#xc5;" horiz-adv-x="1738" d="M1300 880V526H388V880H1300ZM1618 414H1712V0H920V414H1046L744 1440L948 1120H752L922 1440L620 414H770V0H26V414H130L536 1544H1212L1618 414ZM850 1636Q679 1636 579 1718T478 1930Q478 2059 578 2141T850
2224Q1021 2224 1121 2142T1222 1930Q1222 1801 1122 1719T850 1636ZM850 1846Q891 1846 915 1869T940 1930Q940 1968 916 1991T850 2014Q810 2014 785 1991T760 1930Q760 1893 785 1870T850 1846Z" />
<glyph unicode="&#xc6;" horiz-adv-x="2716" d="M1064 0V414H1178V1130H326V1544H2632V890H2116V1130H1694V414H2134V654H2650V0H1064ZM12 0V414H146L844 1544H1312L718 414H844V0H12ZM492 504V858H1404V504H492ZM1432 600V954H2000V600H1432Z" />
<glyph unicode="&#xc7;" horiz-adv-x="1692" d="M852 -28Q668 -28 516 30T254 196T83 451T22 776Q22 952 80 1097T237 1349T461 1514T722 1572Q848 1572 935 1520T1071 1363T1130 1098H1226L1146 904Q1115 988 1038 1037T860 1086Q769 1086 701 1047T594 938T556
776Q556 706 577 648T638 547T732 481T852 458Q931 458 994 492T1096 586T1146 728L1674 654Q1647 450 1537 297T1251 58T852 -28ZM1146 904V1544H1662V904H1146ZM602 -308Q620 -314 637 -317T674 -320Q713 -320 734 -308T756 -274Q756 -253 738 -241T686 -228H644V-94H834Q996
-94 1077 -141T1158 -262Q1158 -355 1047 -397T766 -440Q696 -440 646 -433T556 -412L602 -308ZM868 106H948L724 -94H644L868 106Z" />
<glyph unicode="&#xc8;" horiz-adv-x="1694" d="M978 954V600H410V954H978ZM1112 654H1628V0H42V414H156V1130H42V1544H1610V890H1094V1130H672V414H1112V654ZM666 2184L466 1858L968 1632L1110 1860L666 2184Z" />
<glyph unicode="&#xc9;" horiz-adv-x="1694" d="M978 954V600H410V954H978ZM1112 654H1628V0H42V414H156V1130H42V1544H1610V890H1094V1130H672V414H1112V654ZM1042 2184L1242 1858L740 1632L598 1860L1042 2184Z" />
<glyph unicode="&#xca;" horiz-adv-x="1694" d="M978 954V600H410V954H978ZM1112 654H1628V0H42V414H156V1130H42V1544H1610V890H1094V1130H672V414H1112V654ZM1026 2110L1334 1860L1154 1628L854 1800L550 1624L370 1856L682 2110H1026Z" />
<glyph unicode="&#xcb;" horiz-adv-x="1694" d="M978 954V600H410V954H978ZM1112 654H1628V0H42V414H156V1130H42V1544H1610V890H1094V1130H672V414H1112V654ZM412 1964H828V1600H412V1964ZM880 1964H1296V1600H880V1964Z" />
<glyph unicode="&#xcc;" horiz-adv-x="828" d="M42 1130V1544H786V1130H672V414H786V0H42V414H156V1130H42ZM238 2184L38 1858L540 1632L682 1860L238 2184Z" />
<glyph unicode="&#xcd;" horiz-adv-x="828" d="M42 1130V1544H786V1130H672V414H786V0H42V414H156V1130H42ZM614 2184L814 1858L312 1632L170 1860L614 2184Z" />
<glyph unicode="&#xce;" horiz-adv-x="828" d="M42 1130V1544H786V1130H672V414H786V0H42V414H156V1130H42ZM598 2110L906 1860L726 1628L426 1800L122 1624L-58 1856L254 2110H598Z" />
<glyph unicode="&#xcf;" horiz-adv-x="828" d="M42 1130V1544H786V1130H672V414H786V0H42V414H156V1130H42ZM-16 1964H400V1600H-16V1964ZM452 1964H868V1600H452V1964Z" />
<glyph unicode="&#xd0;" horiz-adv-x="1704" d="M858 954V600H42V954H858ZM678 0V414H820Q923 413 996 459T1109 587T1148 776Q1148 881 1109 961T997 1085T820 1130H678V1544H832Q1087 1543 1278 1445T1575 1174T1682 776Q1682 547 1576 372T1278 99T832 0H678ZM52
0V414H166V1130H52V1544H756V1130H682V414H756V0H52Z" />
<glyph unicode="&#xd1;" horiz-adv-x="1776" d="M990 0L266 1544H814L1538 0H990ZM42 1130V1544H814L660 880H564V414H674V0H42V414H152V1130H42ZM1130 1130V1544H1762V1130H1652V0H1314L1156 672H1240V1130H1130ZM1098 2108L1378 2072Q1354 1864 1275 1765T1068
1666Q992 1666 939 1691T846 1740Q813 1760 787 1773T734 1786Q698 1786 680 1757T656 1674L376 1708Q400 1918 480 2017T690 2116Q767 2116 819 2090T910 2040Q943 2021 967 2009T1020 1996Q1055 1996 1074 2024T1098 2108Z" />
<glyph unicode="&#xd2;" horiz-adv-x="1736" d="M868 -28Q681 -28 526 30T258 196T84 451T22 776Q22 952 83 1097T257 1349T525 1514T869 1572Q1056 1572 1211 1514T1478 1350T1652 1098T1714 776Q1714 598 1653 451T1479 197T1211 31T868 -28ZM868 460Q960 460
1030 500T1140 612T1180 776Q1180 867 1141 936T1031 1045T868 1084Q776 1084 706 1045T596 937T556 776Q556 683 595 612T705 501T868 460ZM680 2184L480 1858L982 1632L1124 1860L680 2184Z" />
<glyph unicode="&#xd3;" horiz-adv-x="1736" d="M868 -28Q681 -28 526 30T258 196T84 451T22 776Q22 952 83 1097T257 1349T525 1514T869 1572Q1056 1572 1211 1514T1478 1350T1652 1098T1714 776Q1714 598 1653 451T1479 197T1211 31T868 -28ZM868 460Q960 460
1030 500T1140 612T1180 776Q1180 867 1141 936T1031 1045T868 1084Q776 1084 706 1045T596 937T556 776Q556 683 595 612T705 501T868 460ZM1056 2184L1256 1858L754 1632L612 1860L1056 2184Z" />
<glyph unicode="&#xd4;" horiz-adv-x="1736" d="M868 -28Q681 -28 526 30T258 196T84 451T22 776Q22 952 83 1097T257 1349T525 1514T869 1572Q1056 1572 1211 1514T1478 1350T1652 1098T1714 776Q1714 598 1653 451T1479 197T1211 31T868 -28ZM868 460Q960 460
1030 500T1140 612T1180 776Q1180 867 1141 936T1031 1045T868 1084Q776 1084 706 1045T596 937T556 776Q556 683 595 612T705 501T868 460ZM1040 2110L1348 1860L1168 1628L868 1800L564 1624L384 1856L696 2110H1040Z" />
<glyph unicode="&#xd5;" horiz-adv-x="1736" d="M868 -28Q681 -28 526 30T258 196T84 451T22 776Q22 952 83 1097T257 1349T525 1514T869 1572Q1056 1572 1211 1514T1478 1350T1652 1098T1714 776Q1714 598 1653 451T1479 197T1211 31T868 -28ZM868 460Q960 460
1030 500T1140 612T1180 776Q1180 867 1141 936T1031 1045T868 1084Q776 1084 706 1045T596 937T556 776Q556 683 595 612T705 501T868 460ZM1078 2108L1358 2072Q1334 1864 1255 1765T1048 1666Q972 1666 919 1691T826 1740Q793 1760 767 1773T714 1786Q678 1786
660 1757T636 1674L356 1708Q380 1918 460 2017T670 2116Q747 2116 799 2090T890 2040Q923 2021 947 2009T1000 1996Q1035 1996 1054 2024T1078 2108Z" />
<glyph unicode="&#xd6;" horiz-adv-x="1736" d="M868 -28Q681 -28 526 30T258 196T84 451T22 776Q22 952 83 1097T257 1349T525 1514T869 1572Q1056 1572 1211 1514T1478 1350T1652 1098T1714 776Q1714 598 1653 451T1479 197T1211 31T868 -28ZM868 460Q960 460
1030 500T1140 612T1180 776Q1180 867 1141 936T1031 1045T868 1084Q776 1084 706 1045T596 937T556 776Q556 683 595 612T705 501T868 460ZM426 1964H842V1600H426V1964ZM894 1964H1310V1600H894V1964Z" />
<glyph unicode="&#xd7;" horiz-adv-x="1170" d="M816 238L586 468L354 238L88 504L318 736L88 966L354 1232L586 1002L816 1232L1082 964L852 736L1082 504L816 238Z" />
<glyph unicode="&#xd8;" horiz-adv-x="1736" d="M1550 1506L1602 1456L186 40L136 90L1550 1506ZM868 -28Q681 -28 526 30T258 196T84 451T22 776Q22 952 83 1097T257 1349T525 1514T869 1572Q1056 1572 1211 1514T1478 1350T1652 1098T1714 776Q1714 598 1653
451T1479 197T1211 31T868 -28ZM868 460Q960 460 1030 500T1140 612T1180 776Q1180 867 1141 936T1031 1045T868 1084Q776 1084 706 1045T596 937T556 776Q556 683 595 612T705 501T868 460Z" />
<glyph unicode="&#xd9;" horiz-adv-x="1690" d="M936 1544H1660V1130H1550V646Q1550 440 1465 290T1220 59T842 -22Q626 -22 469 59T226 290T140 646V1130H30V1544H804V1130H676V666Q676 601 699 556T767 488T874 464Q935 464 977 487T1042 556T1064 666V1130H936V1544ZM676
2184L476 1858L978 1632L1120 1860L676 2184Z" />
<glyph unicode="&#xda;" horiz-adv-x="1690" d="M936 1544H1660V1130H1550V646Q1550 440 1465 290T1220 59T842 -22Q626 -22 469 59T226 290T140 646V1130H30V1544H804V1130H676V666Q676 601 699 556T767 488T874 464Q935 464 977 487T1042 556T1064 666V1130H936V1544ZM1052
2184L1252 1858L750 1632L608 1860L1052 2184Z" />
<glyph unicode="&#xdb;" horiz-adv-x="1690" d="M936 1544H1660V1130H1550V646Q1550 440 1465 290T1220 59T842 -22Q626 -22 469 59T226 290T140 646V1130H30V1544H804V1130H676V666Q676 601 699 556T767 488T874 464Q935 464 977 487T1042 556T1064 666V1130H936V1544ZM1036
2110L1344 1860L1164 1628L864 1800L560 1624L380 1856L692 2110H1036Z" />
<glyph unicode="&#xdc;" horiz-adv-x="1690" d="M936 1544H1660V1130H1550V646Q1550 440 1465 290T1220 59T842 -22Q626 -22 469 59T226 290T140 646V1130H30V1544H804V1130H676V666Q676 601 699 556T767 488T874 464Q935 464 977 487T1042 556T1064 666V1130H936V1544ZM422
1964H838V1600H422V1964ZM890 1964H1306V1600H890V1964Z" />
<glyph unicode="&#xdd;" horiz-adv-x="1672" d="M1564 1130L1084 562H588L106 1130H26V1544H848V1130H716L1012 756L798 910H994L780 756L1076 1130H944V1544H1646V1130H1564ZM1094 778V414H1216V0H456V414H578V778H1094ZM1024 2184L1224 1858L722 1632L580 1860L1024
2184Z" />
<glyph unicode="&#xde;" horiz-adv-x="1466" d="M42 1130V1544H786V1130H672V414H786V0H42V414H156V1130H42ZM464 844V1190H840Q1131 1190 1277 1081T1424 778Q1424 681 1386 604T1272 473T1087 391T834 362H464V708H778Q834 708 861 724T888 774Q888 812 858
828T780 844H464Z" />
<glyph unicode="&#xdf;" horiz-adv-x="1664" d="M834 940Q863 951 887 963T929 992T956 1027T966 1068Q966 1095 952 1116T912 1150T850 1162Q814 1162 787 1149T744 1107T728 1032V0H42V406H220V754H42V1160H220V1164Q220 1301 302 1398T527 1548T854 1600Q1034
1600 1178 1557T1406 1431T1490 1230Q1490 1165 1463 1117T1386 1036T1264 981T1104 946V860L834 940ZM938 388Q964 376 990 370T1044 364Q1098 364 1119 389T1140 442Q1140 478 1114 502T1034 526H834V940H1034Q1152 940 1262 912T1459 823T1598 669T1650 442Q1650
291 1585 188T1394 33T1092 -20Q989 -20 923 -6T802 36L938 388Z" />
<glyph unicode="&#xe0;" horiz-adv-x="1408" d="M968 0Q881 0 834 48T786 184V374L814 414L798 526L786 578V682Q786 723 769 746T723 778T662 788Q617 788 579 770T526 698L72 752Q89 881 158 980T363 1136T720 1192Q892 1192 1021 1153T1222 1020T1294 768V408H1394V0H968ZM386
-30Q205 -30 116 55T26 282Q26 444 141 522T476 632L840 686V518L670 492Q610 485 584 461T558 402Q558 366 583 347T648 328Q683 328 717 346T775 408T798 526L844 292H776Q754 126 651 48T386 -30ZM532 1800L332 1474L834 1248L976 1476L532 1800Z" />
<glyph unicode="&#xe1;" horiz-adv-x="1408" d="M968 0Q881 0 834 48T786 184V374L814 414L798 526L786 578V682Q786 723 769 746T723 778T662 788Q617 788 579 770T526 698L72 752Q89 881 158 980T363 1136T720 1192Q892 1192 1021 1153T1222 1020T1294 768V408H1394V0H968ZM386
-30Q205 -30 116 55T26 282Q26 444 141 522T476 632L840 686V518L670 492Q610 485 584 461T558 402Q558 366 583 347T648 328Q683 328 717 346T775 408T798 526L844 292H776Q754 126 651 48T386 -30ZM908 1800L1108 1474L606 1248L464 1476L908 1800Z" />
<glyph unicode="&#xe2;" horiz-adv-x="1408" d="M968 0Q881 0 834 48T786 184V374L814 414L798 526L786 578V682Q786 723 769 746T723 778T662 788Q617 788 579 770T526 698L72 752Q89 881 158 980T363 1136T720 1192Q892 1192 1021 1153T1222 1020T1294 768V408H1394V0H968ZM386
-30Q205 -30 116 55T26 282Q26 444 141 522T476 632L840 686V518L670 492Q610 485 584 461T558 402Q558 366 583 347T648 328Q683 328 717 346T775 408T798 526L844 292H776Q754 126 651 48T386 -30ZM892 1726L1200 1476L1020 1244L720 1416L416 1240L236 1472L548
1726H892Z" />
<glyph unicode="&#xe3;" horiz-adv-x="1408" d="M968 0Q881 0 834 48T786 184V374L814 414L798 526L786 578V682Q786 723 769 746T723 778T662 788Q617 788 579 770T526 698L72 752Q89 881 158 980T363 1136T720 1192Q892 1192 1021 1153T1222 1020T1294 768V408H1394V0H968ZM386
-30Q205 -30 116 55T26 282Q26 444 141 522T476 632L840 686V518L670 492Q610 485 584 461T558 402Q558 366 583 347T648 328Q683 328 717 346T775 408T798 526L844 292H776Q754 126 651 48T386 -30ZM930 1724L1210 1688Q1186 1480 1107 1381T900 1282Q824 1282
771 1307T678 1356Q645 1376 619 1389T566 1402Q530 1402 512 1373T488 1290L208 1324Q232 1534 312 1633T522 1732Q599 1732 651 1706T742 1656Q775 1637 799 1625T852 1612Q887 1612 906 1640T930 1724Z" />
<glyph unicode="&#xe4;" horiz-adv-x="1408" d="M968 0Q881 0 834 48T786 184V374L814 414L798 526L786 578V682Q786 723 769 746T723 778T662 788Q617 788 579 770T526 698L72 752Q89 881 158 980T363 1136T720 1192Q892 1192 1021 1153T1222 1020T1294 768V408H1394V0H968ZM386
-30Q205 -30 116 55T26 282Q26 444 141 522T476 632L840 686V518L670 492Q610 485 584 461T558 402Q558 366 583 347T648 328Q683 328 717 346T775 408T798 526L844 292H776Q754 126 651 48T386 -30ZM278 1580H694V1216H278V1580ZM746 1580H1162V1216H746V1580Z"
/>
<glyph unicode="&#xe5;" horiz-adv-x="1408" d="M968 0Q881 0 834 48T786 184V374L814 414L798 526L786 578V682Q786 723 769 746T723 778T662 788Q617 788 579 770T526 698L72 752Q89 881 158 980T363 1136T720 1192Q892 1192 1021 1153T1222 1020T1294 768V408H1394V0H968ZM386
-30Q205 -30 116 55T26 282Q26 444 141 522T476 632L840 686V518L670 492Q610 485 584 461T558 402Q558 366 583 347T648 328Q683 328 717 346T775 408T798 526L844 292H776Q754 126 651 48T386 -30ZM720 1252Q549 1252 449 1334T348 1546Q348 1675 448 1757T720
1840Q891 1840 991 1758T1092 1546Q1092 1417 992 1335T720 1252ZM720 1462Q761 1462 785 1485T810 1546Q810 1584 786 1607T720 1630Q680 1630 655 1607T630 1546Q630 1509 655 1486T720 1462Z" />
<glyph unicode="&#xe6;" horiz-adv-x="2140" d="M1452 -28Q1284 -28 1151 23T928 167T796 390L836 920H1238Q1269 1007 1323 1067T1449 1157T1610 1188Q1750 1188 1864 1112T2045 899T2112 580Q2112 561 2112 543T2112 504H1612Q1614 525 1614 547T1614 590Q1614
652 1595 695T1539 760T1454 782Q1404 782 1367 759T1310 690T1290 580Q1290 529 1311 491T1370 430T1462 408Q1510 408 1546 424T1604 468L2098 354Q2031 176 1863 74T1452 -28ZM390 -30Q206 -30 116 55T26 282Q26 444 141 521T476 632L840 686V518L670 492Q610
483 584 460T558 402Q558 366 582 347T646 328Q673 328 700 338T749 371T784 432T798 526L880 316H812Q788 136 676 53T390 -30ZM1294 408L814 414L798 526L786 578V682Q786 723 769 746T723 778T662 788Q617 788 579 770T526 698L72 752Q88 881 155 980T354 1136T700
1192Q863 1192 985 1153T1176 1020T1244 768L1294 408ZM1092 504V672H1704L1692 504H1092Z" />
<glyph unicode="&#xe7;" horiz-adv-x="1394" d="M712 -28Q502 -28 349 48T112 260T28 580Q28 717 72 828T191 1020T361 1144T556 1188Q647 1188 710 1150T809 1034T854 834H956L870 608Q867 665 847 704T792 762T712 782Q663 782 627 759T570 694T550 594Q550
535 570 494T628 430T718 408Q781 408 821 439T870 522L1378 388Q1330 195 1155 84T712 -28ZM870 608V1160H1378V608H870ZM482 -308Q500 -314 517 -317T554 -320Q593 -320 614 -308T636 -274Q636 -253 618 -241T566 -228H524V-94H714Q876 -94 957 -141T1038 -262Q1038
-355 927 -397T646 -440Q576 -440 526 -433T436 -412L482 -308ZM748 106H828L604 -94H524L748 106Z" />
<glyph unicode="&#xe8;" horiz-adv-x="1400" d="M712 -28Q502 -28 349 48T112 260T28 580Q28 762 110 899T343 1112T700 1188Q906 1188 1057 1112T1290 899T1372 580Q1372 561 1372 543T1372 504H872Q874 525 874 547T874 590Q874 652 855 695T799 760T714 782Q664
782 627 759T570 690T550 580Q550 529 571 491T630 430T722 408Q770 408 806 424T864 468L1358 354Q1291 176 1123 74T712 -28ZM352 504V672H964L952 504H352ZM512 1800L312 1474L814 1248L956 1476L512 1800Z" />
<glyph unicode="&#xe9;" horiz-adv-x="1400" d="M712 -28Q502 -28 349 48T112 260T28 580Q28 762 110 899T343 1112T700 1188Q906 1188 1057 1112T1290 899T1372 580Q1372 561 1372 543T1372 504H872Q874 525 874 547T874 590Q874 652 855 695T799 760T714 782Q664
782 627 759T570 690T550 580Q550 529 571 491T630 430T722 408Q770 408 806 424T864 468L1358 354Q1291 176 1123 74T712 -28ZM352 504V672H964L952 504H352ZM888 1800L1088 1474L586 1248L444 1476L888 1800Z" />
<glyph unicode="&#xea;" horiz-adv-x="1400" d="M712 -28Q502 -28 349 48T112 260T28 580Q28 762 110 899T343 1112T700 1188Q906 1188 1057 1112T1290 899T1372 580Q1372 561 1372 543T1372 504H872Q874 525 874 547T874 590Q874 652 855 695T799 760T714 782Q664
782 627 759T570 690T550 580Q550 529 571 491T630 430T722 408Q770 408 806 424T864 468L1358 354Q1291 176 1123 74T712 -28ZM352 504V672H964L952 504H352ZM872 1726L1180 1476L1000 1244L700 1416L396 1240L216 1472L528 1726H872Z" />
<glyph unicode="&#xeb;" horiz-adv-x="1400" d="M712 -28Q502 -28 349 48T112 260T28 580Q28 762 110 899T343 1112T700 1188Q906 1188 1057 1112T1290 899T1372 580Q1372 561 1372 543T1372 504H872Q874 525 874 547T874 590Q874 652 855 695T799 760T714 782Q664
782 627 759T570 690T550 580Q550 529 571 491T630 430T722 408Q770 408 806 424T864 468L1358 354Q1291 176 1123 74T712 -28ZM352 504V672H964L952 504H352ZM258 1580H674V1216H258V1580ZM726 1580H1142V1216H726V1580Z" />
<glyph unicode="&#xec;" horiz-adv-x="788" d="M670 406H762V0H52V406H162V754H52V1160H670V406ZM476 1800L276 1474L778 1248L920 1476L476 1800Z" />
<glyph unicode="&#xed;" horiz-adv-x="788" d="M670 406H762V0H52V406H162V754H52V1160H670V406ZM596 1800L796 1474L294 1248L152 1476L596 1800Z" />
<glyph unicode="&#xee;" horiz-adv-x="788" d="M670 406H762V0H52V406H162V754H52V1160H670V406ZM580 1726L888 1476L708 1244L408 1416L104 1240L-76 1472L236 1726H580Z" />
<glyph unicode="&#xef;" horiz-adv-x="788" d="M670 406H762V0H52V406H162V754H52V1160H670V406ZM222 1580H638V1216H222V1580ZM690 1580H1106V1216H690V1580Z" />
<glyph unicode="&#xf0;" horiz-adv-x="1424" d="M502 1090Q595 1086 659 1049T768 940T848 756L894 762L1396 652Q1396 484 1345 353T1168 124Q1075 51 965 16T716 -20Q505 -20 351 52T112 253T28 554Q28 707 90 830T259 1025T502 1090ZM710 720Q663 720 628 701T572
648T552 568Q552 523 572 488T627 433T710 412Q757 412 793 432T851 488T872 568Q872 613 851 647T794 701T710 720ZM870 1674Q1026 1536 1144 1381T1329 1045T1396 652L872 568Q872 770 801 944T619 1260T388 1508L870 1674ZM270 1104L198 1324L1228 1624L1300
1404L270 1104Z" />
<glyph unicode="&#xf1;" horiz-adv-x="1526" d="M660 406H752V0H42V406H152V754H42V1160H660V406ZM904 406V660Q904 717 876 751T800 786Q757 786 726 756T677 672T660 542L592 804H676Q693 931 743 1016T875 1145T1066 1188Q1234 1188 1323 1095T1412 828V406H1512V0H812V406H904ZM996
1724L1276 1688Q1252 1480 1173 1381T966 1282Q890 1282 837 1307T744 1356Q711 1376 685 1389T632 1402Q596 1402 578 1373T554 1290L274 1324Q298 1534 378 1633T588 1732Q665 1732 717 1706T808 1656Q841 1637 865 1625T918 1612Q953 1612 972 1640T996 1724Z"
/>
<glyph unicode="&#xf2;" horiz-adv-x="1424" d="M712 -28Q502 -28 349 48T112 260T28 580Q28 762 111 899T348 1112T712 1188Q922 1188 1075 1112T1312 899T1396 580Q1396 397 1313 261T1077 48T712 -28ZM712 408Q761 408 797 430T852 490T872 580Q872 631 853
670T797 730T712 752Q663 752 627 731T572 670T552 580Q552 529 571 491T627 430T712 408ZM524 1800L324 1474L826 1248L968 1476L524 1800Z" />
<glyph unicode="&#xf3;" horiz-adv-x="1424" d="M712 -28Q502 -28 349 48T112 260T28 580Q28 762 111 899T348 1112T712 1188Q922 1188 1075 1112T1312 899T1396 580Q1396 397 1313 261T1077 48T712 -28ZM712 408Q761 408 797 430T852 490T872 580Q872 631 853
670T797 730T712 752Q663 752 627 731T572 670T552 580Q552 529 571 491T627 430T712 408ZM900 1800L1100 1474L598 1248L456 1476L900 1800Z" />
<glyph unicode="&#xf4;" horiz-adv-x="1424" d="M712 -28Q502 -28 349 48T112 260T28 580Q28 762 111 899T348 1112T712 1188Q922 1188 1075 1112T1312 899T1396 580Q1396 397 1313 261T1077 48T712 -28ZM712 408Q761 408 797 430T852 490T872 580Q872 631 853
670T797 730T712 752Q663 752 627 731T572 670T552 580Q552 529 571 491T627 430T712 408ZM884 1726L1192 1476L1012 1244L712 1416L408 1240L228 1472L540 1726H884Z" />
<glyph unicode="&#xf5;" horiz-adv-x="1424" d="M712 -28Q502 -28 349 48T112 260T28 580Q28 762 111 899T348 1112T712 1188Q922 1188 1075 1112T1312 899T1396 580Q1396 397 1313 261T1077 48T712 -28ZM712 408Q761 408 797 430T852 490T872 580Q872 631 853
670T797 730T712 752Q663 752 627 731T572 670T552 580Q552 529 571 491T627 430T712 408ZM922 1724L1202 1688Q1178 1480 1099 1381T892 1282Q816 1282 763 1307T670 1356Q637 1376 611 1389T558 1402Q522 1402 504 1373T480 1290L200 1324Q224 1534 304 1633T514
1732Q591 1732 643 1706T734 1656Q767 1637 791 1625T844 1612Q879 1612 898 1640T922 1724Z" />
<glyph unicode="&#xf6;" horiz-adv-x="1424" d="M712 -28Q502 -28 349 48T112 260T28 580Q28 762 111 899T348 1112T712 1188Q922 1188 1075 1112T1312 899T1396 580Q1396 397 1313 261T1077 48T712 -28ZM712 408Q761 408 797 430T852 490T872 580Q872 631 853
670T797 730T712 752Q663 752 627 731T572 670T552 580Q552 529 571 491T627 430T712 408ZM270 1580H686V1216H270V1580ZM738 1580H1154V1216H738V1580Z" />
<glyph unicode="&#xf7;" horiz-adv-x="1380" d="M1316 912V560H64V912H1316ZM436 514H944V106H436V514ZM436 1366H944V958H436V1366Z" />
<glyph unicode="&#xf8;" horiz-adv-x="1424" d="M1237 1149L1285 1102L220 -3L172 43L1237 1149ZM712 -28Q502 -28 349 48T112 260T28 580Q28 762 111 899T348 1112T712 1188Q922 1188 1075 1112T1312 899T1396 580Q1396 397 1313 261T1077 48T712 -28ZM712 408Q761
408 797 430T852 490T872 580Q872 631 853 670T797 730T712 752Q663 752 627 731T572 670T552 580Q552 529 571 491T627 430T712 408Z" />
<glyph unicode="&#xf9;" horiz-adv-x="1516" d="M872 754H762V1160H1380V406H1490V0H872V754ZM628 1160V500Q628 443 657 409T732 374Q766 374 798 396T851 472T872 618L940 336H856Q831 155 742 64T480 -28Q297 -28 209 66T120 326V752H14V1160H628ZM536 1800L336
1474L838 1248L980 1476L536 1800Z" />
<glyph unicode="&#xfa;" horiz-adv-x="1516" d="M872 754H762V1160H1380V406H1490V0H872V754ZM628 1160V500Q628 443 657 409T732 374Q766 374 798 396T851 472T872 618L940 336H856Q831 155 742 64T480 -28Q297 -28 209 66T120 326V752H14V1160H628ZM912 1800L1112
1474L610 1248L468 1476L912 1800Z" />
<glyph unicode="&#xfb;" horiz-adv-x="1516" d="M872 754H762V1160H1380V406H1490V0H872V754ZM628 1160V500Q628 443 657 409T732 374Q766 374 798 396T851 472T872 618L940 336H856Q831 155 742 64T480 -28Q297 -28 209 66T120 326V752H14V1160H628ZM896 1726L1204
1476L1024 1244L724 1416L420 1240L240 1472L552 1726H896Z" />
<glyph unicode="&#xfc;" horiz-adv-x="1516" d="M872 754H762V1160H1380V406H1490V0H872V754ZM628 1160V500Q628 443 657 409T732 374Q766 374 798 396T851 472T872 618L940 336H856Q831 155 742 64T480 -28Q297 -28 209 66T120 326V752H14V1160H628ZM282 1580H698V1216H282V1580ZM750
1580H1166V1216H750V1580Z" />
<glyph unicode="&#xfd;" horiz-adv-x="1502" d="M846 1160H1476V754H1402L1058 -44Q965 -257 814 -338T438 -420H104V-20H438Q509 -20 549 5T610 80L804 104L504 -162L100 754H26V1160H778V754H666L908 126L648 388H916L722 126L958 754H846V1160ZM948 1800L1148
1474L646 1248L504 1476L948 1800Z" />
<glyph unicode="&#xfe;" horiz-adv-x="1492" d="M-2 -420V-14H108V1174H-2V1580H616V706L610 620V566L616 322V-14H708V-420H-2ZM972 -24Q860 -24 755 27T563 191T418 484L610 580Q610 527 629 489T685 429T770 408Q819 408 855 429T910 488T930 580Q930 633 911
671T855 731T770 752Q721 752 685 731T630 672T610 580L584 812H632Q651 941 692 1023T802 1145T970 1184Q1090 1184 1180 1133T1332 995T1423 801T1454 580Q1454 385 1392 250T1220 46T972 -24Z" />
<glyph unicode="&#xff;" horiz-adv-x="1502" d="M846 1160H1476V754H1402L1058 -44Q965 -257 814 -338T438 -420H104V-20H438Q509 -20 549 5T610 80L804 104L504 -162L100 754H26V1160H778V754H666L908 126L648 388H916L722 126L958 754H846V1160ZM318 1580H734V1216H318V1580ZM786
1580H1202V1216H786V1580Z" />
<glyph unicode="&#x2013;" horiz-adv-x="1130" d="M1066 742V388H64V742H1066Z" />
<glyph unicode="&#x2014;" horiz-adv-x="2130" d="M2066 742V388H64V742H2066Z" />
<glyph unicode="&#x2018;" horiz-adv-x="648" d="M578 706H70V1186H578V706ZM294 846H70V1186Q70 1361 173 1465T520 1572V1372Q415 1372 355 1323T294 1198V846Z" />
<glyph unicode="&#x2019;" horiz-adv-x="648" d="M70 1544H578V1064H70V1544ZM354 1404H578V1064Q578 889 475 785T128 678V878Q233 878 293 927T354 1052V1404Z" />
<glyph unicode="&#x201a;" horiz-adv-x="648" d="M70 480H578V0H70V480ZM354 340H578V0Q578 -175 475 -279T128 -386V-186Q233 -186 293 -137T354 -12V340Z" />
<glyph unicode="&#x201c;" horiz-adv-x="1208" d="M578 706H70V1186H578V706ZM294 846H70V1186Q70 1361 173 1465T520 1572V1372Q415 1372 355 1323T294 1198V846ZM1138 706H630V1186H1138V706ZM854 846H630V1186Q630 1361 733 1465T1080 1572V1372Q975 1372 915
1323T854 1198V846Z" />
<glyph unicode="&#x201d;" horiz-adv-x="1208" d="M70 1544H578V1064H70V1544ZM354 1404H578V1064Q578 889 475 785T128 678V878Q233 878 293 927T354 1052V1404ZM630 1544H1138V1064H630V1544ZM914 1404H1138V1064Q1138 889 1035 785T688 678V878Q793 878 853
927T914 1052V1404Z" />
<glyph unicode="&#x201e;" horiz-adv-x="1208" d="M70 480H578V0H70V480ZM354 340H578V0Q578 -175 475 -279T128 -386V-186Q233 -186 293 -137T354 -12V340ZM630 480H1138V0H630V480ZM914 340H1138V0Q1138 -175 1035 -279T688 -386V-186Q793 -186 853 -137T914 -12V340Z" />
<glyph unicode="&#x2022;" horiz-adv-x="1158" d="M198 966H960V218H198V966Z" />
<glyph unicode="&#x2039;" horiz-adv-x="922" d="M556 592V576L892 90H388L108 512V656L388 1078H892L556 592Z" />
<glyph unicode="&#x203a;" horiz-adv-x="922" d="M366 592V576L30 90H534L814 512V656L534 1078H30L366 592Z" />
</font>
</defs>
</svg>
